G75*
%MOIN*%
%OFA0B0*%
%FSLAX25Y25*%
%IPPOS*%
%LPD*%
%AMOC8*
5,1,8,0,0,1.08239X$1,22.5*
%
%ADD10OC8,0.05200*%
%ADD11C,0.06000*%
%ADD12C,0.02400*%
%ADD13C,0.00600*%
D10*
X0251000Y0181000D03*
X0251000Y0211000D03*
X0251000Y0226000D03*
X0251000Y0236000D03*
X0251000Y0276000D03*
X0251000Y0306000D03*
X0251000Y0316000D03*
X0251000Y0346000D03*
D11*
X0268000Y0336000D02*
X0274000Y0336000D01*
X0274000Y0326000D02*
X0268000Y0326000D01*
X0268000Y0316000D02*
X0274000Y0316000D01*
X0274000Y0306000D02*
X0268000Y0306000D01*
X0268000Y0296000D02*
X0274000Y0296000D01*
X0274000Y0286000D02*
X0268000Y0286000D01*
X0268000Y0276000D02*
X0274000Y0276000D01*
X0274000Y0266000D02*
X0268000Y0266000D01*
X0254000Y0261000D02*
X0248000Y0261000D01*
X0248000Y0251000D02*
X0254000Y0251000D01*
X0268000Y0246000D02*
X0274000Y0246000D01*
X0274000Y0256000D02*
X0268000Y0256000D01*
X0268000Y0236000D02*
X0274000Y0236000D01*
X0274000Y0226000D02*
X0268000Y0226000D01*
X0268000Y0216000D02*
X0274000Y0216000D01*
X0274000Y0206000D02*
X0268000Y0206000D01*
X0268000Y0196000D02*
X0274000Y0196000D01*
X0274000Y0186000D02*
X0268000Y0186000D01*
X0261000Y0169000D02*
X0261000Y0163000D01*
X0251000Y0163000D02*
X0251000Y0169000D01*
X0348000Y0186000D02*
X0354000Y0186000D01*
X0354000Y0196000D02*
X0348000Y0196000D01*
X0348000Y0206000D02*
X0354000Y0206000D01*
X0354000Y0216000D02*
X0348000Y0216000D01*
X0348000Y0226000D02*
X0354000Y0226000D01*
X0354000Y0236000D02*
X0348000Y0236000D01*
X0348000Y0246000D02*
X0354000Y0246000D01*
X0354000Y0256000D02*
X0348000Y0256000D01*
X0348000Y0266000D02*
X0354000Y0266000D01*
X0354000Y0276000D02*
X0348000Y0276000D01*
X0348000Y0286000D02*
X0354000Y0286000D01*
X0354000Y0296000D02*
X0348000Y0296000D01*
X0348000Y0306000D02*
X0354000Y0306000D01*
X0354000Y0316000D02*
X0348000Y0316000D01*
X0348000Y0326000D02*
X0354000Y0326000D01*
X0354000Y0336000D02*
X0348000Y0336000D01*
D12*
X0241500Y0171000D02*
X0246500Y0166000D01*
X0251000Y0166000D01*
X0261000Y0166000D02*
X0351000Y0166000D01*
X0360500Y0175500D01*
X0360500Y0211000D01*
X0356000Y0216000D01*
X0351000Y0216000D01*
X0351000Y0206000D02*
X0346000Y0206000D01*
X0341000Y0201000D01*
X0341000Y0186500D01*
X0331000Y0176500D01*
X0255500Y0176500D01*
X0251000Y0181000D01*
X0241500Y0171000D02*
X0241500Y0196000D01*
X0246000Y0201000D01*
X0281000Y0201000D01*
X0291000Y0211000D01*
X0291000Y0326000D01*
X0281000Y0336000D01*
X0271000Y0336000D01*
X0251000Y0346000D02*
X0311000Y0346000D01*
X0331000Y0326000D01*
X0331000Y0306000D01*
X0341000Y0296000D01*
X0351000Y0296000D01*
X0271000Y0296000D02*
X0261000Y0296000D01*
X0251000Y0306000D01*
X0251000Y0316000D01*
X0251000Y0276000D02*
X0246000Y0276000D01*
X0241500Y0271500D01*
X0241500Y0255500D01*
X0246000Y0251000D01*
X0251000Y0251000D01*
X0256000Y0246000D01*
X0256000Y0231000D01*
X0251000Y0226000D01*
X0241500Y0231500D02*
X0241500Y0215500D01*
X0246000Y0211000D01*
X0251000Y0211000D01*
X0261000Y0221000D02*
X0266000Y0216000D01*
X0271000Y0216000D01*
X0261000Y0221000D02*
X0261000Y0256000D01*
X0256000Y0261000D01*
X0251000Y0261000D01*
X0251000Y0236000D02*
X0246000Y0236000D01*
X0241500Y0231500D01*
D13*
X0251000Y0276000D02*
X0251400Y0276000D01*
X0265800Y0290400D01*
X0274200Y0290400D01*
X0278400Y0294600D01*
X0278400Y0297600D01*
X0271200Y0304800D01*
X0271200Y0306000D01*
X0271000Y0306000D01*
M02*
