G04 EAGLE Gerber RS-274X export*
G75*
%MOMM*%
%FSLAX34Y34*%
%LPD*%
%INSilkscreen Top*%
%IPPOS*%
%AMOC8*
5,1,8,0,0,1.08239X$1,22.5*%
G01*
%ADD10C,0.101600*%
%ADD11R,0.327656X0.036319*%
%ADD12R,0.398781X0.036319*%
%ADD13R,0.289556X0.036319*%
%ADD14R,0.543556X0.036319*%
%ADD15R,0.835656X0.036319*%
%ADD16R,0.254000X0.036319*%
%ADD17R,0.289563X0.036319*%
%ADD18R,0.617219X0.036319*%
%ADD19R,0.363219X0.036319*%
%ADD20R,0.906775X0.036319*%
%ADD21R,0.182875X0.036319*%
%ADD22R,0.508000X0.036319*%
%ADD23R,0.688338X0.036319*%
%ADD24R,0.871219X0.036319*%
%ADD25R,0.360681X0.036319*%
%ADD26R,0.762000X0.036319*%
%ADD27R,0.325119X0.036319*%
%ADD28R,0.762000X0.036069*%
%ADD29R,0.871219X0.036069*%
%ADD30R,0.254000X0.036069*%
%ADD31R,0.398781X0.036069*%
%ADD32R,0.906781X0.036069*%
%ADD33R,0.289563X0.036069*%
%ADD34R,0.325119X0.036069*%
%ADD35R,0.434338X0.036069*%
%ADD36R,0.906775X0.036069*%
%ADD37R,0.726438X0.036069*%
%ADD38R,0.977900X0.036319*%
%ADD39R,0.434338X0.036319*%
%ADD40R,1.054100X0.036319*%
%ADD41R,0.469900X0.036319*%
%ADD42R,1.125219X0.036319*%
%ADD43R,0.401319X0.036319*%
%ADD44R,0.436875X0.036319*%
%ADD45R,0.292100X0.036319*%
%ADD46R,0.144781X0.036319*%
%ADD47R,0.147319X0.036319*%
%ADD48R,0.398775X0.036319*%
%ADD49R,0.546100X0.036319*%
%ADD50R,0.073656X0.036319*%
%ADD51R,0.289556X0.036069*%
%ADD52R,0.543556X0.036069*%
%ADD53R,0.327656X0.036069*%
%ADD54R,0.360681X0.036069*%
%ADD55R,0.363219X0.036069*%
%ADD56R,0.292100X0.036069*%
%ADD57R,0.182875X0.036069*%
%ADD58R,0.579119X0.036319*%
%ADD59R,0.472438X0.036069*%
%ADD60R,0.543563X0.036319*%
%ADD61R,0.797563X0.036319*%
%ADD62R,0.581656X0.036319*%
%ADD63R,0.797556X0.036319*%
%ADD64R,0.833119X0.036319*%
%ADD65R,0.614681X0.036319*%
%ADD66R,0.906781X0.036319*%
%ADD67R,0.942338X0.036319*%
%ADD68R,0.797556X0.036069*%
%ADD69R,0.398775X0.036069*%
%ADD70R,0.472438X0.036319*%
%ADD71R,0.109219X0.036319*%
%ADD72R,0.180338X0.036319*%
%ADD73R,0.071119X0.036319*%
%ADD74R,0.144775X0.036319*%
%ADD75R,0.218438X0.036319*%
%ADD76R,0.215900X0.036319*%
%ADD77R,1.089656X0.036319*%
%ADD78R,0.980438X0.036319*%
%ADD79R,1.051556X0.036319*%
%ADD80R,0.800100X0.036319*%
%ADD81R,0.723900X0.036069*%
%ADD82R,0.655319X0.036319*%
%ADD83R,0.652781X0.036319*%
%ADD84R,0.652775X0.036319*%
%ADD85R,0.617219X0.036069*%
%ADD86R,0.833119X0.036069*%
%ADD87R,0.726438X0.036319*%
%ADD88R,1.016000X0.036319*%
%ADD89R,1.051562X0.036319*%
%ADD90R,1.087119X0.036319*%
%ADD91R,0.436881X0.036319*%
%ADD92R,0.508000X0.036069*%
%ADD93R,1.016000X0.036069*%
%ADD94R,0.436881X0.036069*%
%ADD95R,0.944881X0.036319*%
%ADD96R,0.797563X0.036069*%
%ADD97R,0.942338X0.036069*%
%ADD98R,0.469900X0.036069*%
%ADD99R,0.980438X0.036069*%
%ADD100R,0.977900X0.036069*%
%ADD101C,0.000000*%
%ADD102C,0.152400*%
%ADD103R,1.270000X0.127000*%
%ADD104C,0.127000*%
%ADD105R,0.508000X0.381000*%


D10*
X906103Y737108D02*
X913892Y739704D01*
X906103Y742301D01*
X902208Y747073D02*
X913892Y747073D01*
X913892Y750318D01*
X913890Y750405D01*
X913884Y750493D01*
X913874Y750579D01*
X913861Y750666D01*
X913843Y750751D01*
X913822Y750836D01*
X913797Y750920D01*
X913768Y751002D01*
X913735Y751083D01*
X913699Y751163D01*
X913660Y751241D01*
X913616Y751317D01*
X913570Y751391D01*
X913520Y751462D01*
X913467Y751532D01*
X913411Y751599D01*
X913352Y751663D01*
X913290Y751725D01*
X913226Y751784D01*
X913159Y751840D01*
X913089Y751893D01*
X913018Y751943D01*
X912944Y751989D01*
X912868Y752033D01*
X912790Y752072D01*
X912710Y752108D01*
X912629Y752141D01*
X912547Y752170D01*
X912463Y752195D01*
X912378Y752216D01*
X912293Y752234D01*
X912206Y752247D01*
X912120Y752257D01*
X912032Y752263D01*
X911945Y752265D01*
X911945Y752266D02*
X908050Y752266D01*
X908050Y752265D02*
X907963Y752263D01*
X907875Y752257D01*
X907789Y752247D01*
X907702Y752234D01*
X907617Y752216D01*
X907532Y752195D01*
X907448Y752170D01*
X907366Y752141D01*
X907285Y752108D01*
X907205Y752072D01*
X907127Y752033D01*
X907051Y751989D01*
X906977Y751943D01*
X906906Y751893D01*
X906836Y751840D01*
X906769Y751784D01*
X906705Y751725D01*
X906643Y751663D01*
X906584Y751599D01*
X906528Y751532D01*
X906475Y751462D01*
X906425Y751391D01*
X906379Y751317D01*
X906335Y751241D01*
X906296Y751163D01*
X906260Y751083D01*
X906227Y751002D01*
X906198Y750920D01*
X906173Y750836D01*
X906152Y750751D01*
X906134Y750666D01*
X906121Y750579D01*
X906111Y750493D01*
X906105Y750405D01*
X906103Y750318D01*
X906103Y747073D01*
X909348Y759133D02*
X909348Y762054D01*
X909348Y759133D02*
X909350Y759039D01*
X909356Y758945D01*
X909365Y758852D01*
X909379Y758759D01*
X909396Y758667D01*
X909418Y758575D01*
X909442Y758485D01*
X909471Y758395D01*
X909503Y758307D01*
X909539Y758220D01*
X909579Y758135D01*
X909622Y758052D01*
X909668Y757970D01*
X909718Y757890D01*
X909771Y757813D01*
X909827Y757738D01*
X909886Y757665D01*
X909948Y757594D01*
X910013Y757526D01*
X910081Y757461D01*
X910152Y757399D01*
X910225Y757340D01*
X910300Y757284D01*
X910377Y757231D01*
X910457Y757181D01*
X910539Y757135D01*
X910622Y757092D01*
X910707Y757052D01*
X910794Y757016D01*
X910882Y756984D01*
X910972Y756955D01*
X911062Y756931D01*
X911154Y756909D01*
X911246Y756892D01*
X911339Y756878D01*
X911432Y756869D01*
X911526Y756863D01*
X911620Y756861D01*
X911714Y756863D01*
X911808Y756869D01*
X911901Y756878D01*
X911994Y756892D01*
X912086Y756909D01*
X912178Y756931D01*
X912268Y756955D01*
X912358Y756984D01*
X912446Y757016D01*
X912533Y757052D01*
X912618Y757092D01*
X912701Y757135D01*
X912783Y757181D01*
X912863Y757231D01*
X912940Y757284D01*
X913015Y757340D01*
X913088Y757399D01*
X913159Y757461D01*
X913227Y757526D01*
X913292Y757594D01*
X913354Y757665D01*
X913413Y757738D01*
X913469Y757813D01*
X913522Y757890D01*
X913572Y757970D01*
X913618Y758052D01*
X913661Y758135D01*
X913701Y758220D01*
X913737Y758307D01*
X913769Y758395D01*
X913798Y758485D01*
X913822Y758575D01*
X913844Y758667D01*
X913861Y758759D01*
X913875Y758852D01*
X913884Y758945D01*
X913890Y759039D01*
X913892Y759133D01*
X913892Y762054D01*
X908050Y762054D01*
X907963Y762052D01*
X907875Y762046D01*
X907789Y762036D01*
X907702Y762023D01*
X907617Y762005D01*
X907532Y761984D01*
X907448Y761959D01*
X907366Y761930D01*
X907285Y761897D01*
X907205Y761861D01*
X907127Y761822D01*
X907051Y761778D01*
X906977Y761732D01*
X906906Y761682D01*
X906836Y761629D01*
X906769Y761573D01*
X906705Y761514D01*
X906643Y761452D01*
X906584Y761388D01*
X906528Y761321D01*
X906475Y761251D01*
X906425Y761180D01*
X906379Y761106D01*
X906335Y761030D01*
X906296Y760952D01*
X906260Y760872D01*
X906227Y760791D01*
X906198Y760709D01*
X906173Y760625D01*
X906152Y760540D01*
X906134Y760455D01*
X906121Y760368D01*
X906111Y760282D01*
X906105Y760194D01*
X906103Y760107D01*
X906103Y757510D01*
X906103Y766240D02*
X906103Y770134D01*
X902208Y767538D02*
X911945Y767538D01*
X912032Y767540D01*
X912120Y767546D01*
X912206Y767556D01*
X912293Y767569D01*
X912378Y767587D01*
X912463Y767608D01*
X912547Y767633D01*
X912629Y767662D01*
X912710Y767695D01*
X912790Y767731D01*
X912868Y767770D01*
X912944Y767814D01*
X913018Y767860D01*
X913089Y767910D01*
X913159Y767963D01*
X913226Y768019D01*
X913290Y768078D01*
X913352Y768140D01*
X913411Y768204D01*
X913467Y768271D01*
X913520Y768341D01*
X913570Y768412D01*
X913616Y768486D01*
X913660Y768562D01*
X913699Y768640D01*
X913735Y768720D01*
X913768Y768801D01*
X913797Y768883D01*
X913822Y768967D01*
X913843Y769052D01*
X913861Y769137D01*
X913874Y769224D01*
X913884Y769310D01*
X913890Y769398D01*
X913892Y769485D01*
X913892Y770134D01*
X902208Y537154D02*
X904804Y533908D01*
X902208Y537154D02*
X913892Y537154D01*
X913892Y540399D02*
X913892Y533908D01*
X907401Y545338D02*
X907401Y549233D01*
X907403Y549332D01*
X907409Y549432D01*
X907418Y549531D01*
X907431Y549629D01*
X907448Y549727D01*
X907469Y549825D01*
X907494Y549921D01*
X907522Y550016D01*
X907554Y550110D01*
X907589Y550203D01*
X907628Y550295D01*
X907671Y550385D01*
X907716Y550473D01*
X907766Y550560D01*
X907818Y550644D01*
X907874Y550727D01*
X907932Y550807D01*
X907994Y550885D01*
X908059Y550960D01*
X908127Y551033D01*
X908197Y551103D01*
X908270Y551171D01*
X908345Y551236D01*
X908423Y551298D01*
X908503Y551356D01*
X908586Y551412D01*
X908670Y551464D01*
X908757Y551514D01*
X908845Y551559D01*
X908935Y551602D01*
X909027Y551641D01*
X909120Y551676D01*
X909214Y551708D01*
X909309Y551736D01*
X909405Y551761D01*
X909503Y551782D01*
X909601Y551799D01*
X909699Y551812D01*
X909798Y551821D01*
X909898Y551827D01*
X909997Y551829D01*
X910646Y551829D01*
X910646Y551830D02*
X910759Y551828D01*
X910872Y551822D01*
X910985Y551812D01*
X911098Y551798D01*
X911210Y551781D01*
X911321Y551759D01*
X911431Y551734D01*
X911541Y551704D01*
X911649Y551671D01*
X911756Y551634D01*
X911862Y551594D01*
X911966Y551549D01*
X912069Y551501D01*
X912170Y551450D01*
X912269Y551395D01*
X912366Y551337D01*
X912461Y551275D01*
X912554Y551210D01*
X912644Y551142D01*
X912732Y551071D01*
X912818Y550996D01*
X912901Y550919D01*
X912981Y550839D01*
X913058Y550756D01*
X913133Y550670D01*
X913204Y550582D01*
X913272Y550492D01*
X913337Y550399D01*
X913399Y550304D01*
X913457Y550207D01*
X913512Y550108D01*
X913563Y550007D01*
X913611Y549904D01*
X913656Y549800D01*
X913696Y549694D01*
X913733Y549587D01*
X913766Y549479D01*
X913796Y549369D01*
X913821Y549259D01*
X913843Y549148D01*
X913860Y549036D01*
X913874Y548923D01*
X913884Y548810D01*
X913890Y548697D01*
X913892Y548584D01*
X913890Y548471D01*
X913884Y548358D01*
X913874Y548245D01*
X913860Y548132D01*
X913843Y548020D01*
X913821Y547909D01*
X913796Y547799D01*
X913766Y547689D01*
X913733Y547581D01*
X913696Y547474D01*
X913656Y547368D01*
X913611Y547264D01*
X913563Y547161D01*
X913512Y547060D01*
X913457Y546961D01*
X913399Y546864D01*
X913337Y546769D01*
X913272Y546676D01*
X913204Y546586D01*
X913133Y546498D01*
X913058Y546412D01*
X912981Y546329D01*
X912901Y546249D01*
X912818Y546172D01*
X912732Y546097D01*
X912644Y546026D01*
X912554Y545958D01*
X912461Y545893D01*
X912366Y545831D01*
X912269Y545773D01*
X912170Y545718D01*
X912069Y545667D01*
X911966Y545619D01*
X911862Y545574D01*
X911756Y545534D01*
X911649Y545497D01*
X911541Y545464D01*
X911431Y545434D01*
X911321Y545409D01*
X911210Y545387D01*
X911098Y545370D01*
X910985Y545356D01*
X910872Y545346D01*
X910759Y545340D01*
X910646Y545338D01*
X907401Y545338D01*
X907258Y545340D01*
X907115Y545346D01*
X906972Y545356D01*
X906830Y545370D01*
X906688Y545387D01*
X906546Y545409D01*
X906405Y545434D01*
X906265Y545464D01*
X906126Y545497D01*
X905988Y545534D01*
X905851Y545575D01*
X905715Y545619D01*
X905580Y545668D01*
X905447Y545720D01*
X905315Y545775D01*
X905185Y545835D01*
X905056Y545898D01*
X904929Y545964D01*
X904805Y546034D01*
X904682Y546107D01*
X904561Y546184D01*
X904442Y546263D01*
X904326Y546347D01*
X904211Y546433D01*
X904100Y546522D01*
X903991Y546615D01*
X903884Y546710D01*
X903780Y546809D01*
X903679Y546910D01*
X903580Y547014D01*
X903485Y547120D01*
X903392Y547230D01*
X903303Y547341D01*
X903217Y547455D01*
X903134Y547572D01*
X903054Y547691D01*
X902977Y547812D01*
X902904Y547934D01*
X902834Y548059D01*
X902768Y548186D01*
X902705Y548315D01*
X902645Y548445D01*
X902590Y548577D01*
X902538Y548710D01*
X902489Y548845D01*
X902445Y548981D01*
X902404Y549118D01*
X902367Y549256D01*
X902334Y549395D01*
X902304Y549535D01*
X902279Y549676D01*
X902257Y549818D01*
X902240Y549960D01*
X902226Y550102D01*
X902216Y550245D01*
X902210Y550388D01*
X902208Y550531D01*
X905129Y514999D02*
X905022Y514997D01*
X904916Y514991D01*
X904810Y514981D01*
X904704Y514968D01*
X904598Y514950D01*
X904494Y514929D01*
X904390Y514904D01*
X904287Y514875D01*
X904186Y514843D01*
X904086Y514806D01*
X903987Y514766D01*
X903889Y514723D01*
X903793Y514676D01*
X903699Y514625D01*
X903607Y514571D01*
X903517Y514514D01*
X903429Y514454D01*
X903344Y514390D01*
X903261Y514323D01*
X903180Y514253D01*
X903102Y514181D01*
X903026Y514105D01*
X902954Y514027D01*
X902884Y513946D01*
X902817Y513863D01*
X902753Y513778D01*
X902693Y513690D01*
X902636Y513600D01*
X902582Y513508D01*
X902531Y513414D01*
X902484Y513318D01*
X902441Y513220D01*
X902401Y513121D01*
X902364Y513021D01*
X902332Y512920D01*
X902303Y512817D01*
X902278Y512713D01*
X902257Y512609D01*
X902239Y512503D01*
X902226Y512397D01*
X902216Y512291D01*
X902210Y512185D01*
X902208Y512078D01*
X902210Y511957D01*
X902216Y511836D01*
X902226Y511716D01*
X902239Y511595D01*
X902257Y511476D01*
X902278Y511356D01*
X902303Y511238D01*
X902332Y511121D01*
X902365Y511004D01*
X902401Y510889D01*
X902442Y510775D01*
X902485Y510662D01*
X902533Y510550D01*
X902584Y510441D01*
X902639Y510333D01*
X902697Y510226D01*
X902758Y510122D01*
X902823Y510020D01*
X902891Y509920D01*
X902962Y509822D01*
X903036Y509726D01*
X903113Y509633D01*
X903194Y509543D01*
X903277Y509455D01*
X903363Y509370D01*
X903452Y509287D01*
X903543Y509208D01*
X903637Y509131D01*
X903733Y509058D01*
X903831Y508988D01*
X903932Y508921D01*
X904035Y508857D01*
X904140Y508797D01*
X904247Y508739D01*
X904355Y508686D01*
X904465Y508636D01*
X904577Y508590D01*
X904690Y508547D01*
X904805Y508508D01*
X907401Y514025D02*
X907323Y514104D01*
X907243Y514180D01*
X907160Y514253D01*
X907074Y514323D01*
X906987Y514390D01*
X906896Y514454D01*
X906804Y514514D01*
X906710Y514572D01*
X906613Y514626D01*
X906515Y514676D01*
X906415Y514723D01*
X906314Y514767D01*
X906211Y514807D01*
X906106Y514843D01*
X906001Y514875D01*
X905894Y514904D01*
X905787Y514929D01*
X905678Y514951D01*
X905569Y514968D01*
X905460Y514982D01*
X905350Y514991D01*
X905239Y514997D01*
X905129Y514999D01*
X907401Y514025D02*
X913892Y508508D01*
X913892Y514999D01*
D11*
X698707Y259511D03*
X736071Y259511D03*
D12*
X749863Y259511D03*
D13*
X810277Y259511D03*
D14*
X698695Y259874D03*
D15*
X710671Y259874D03*
D16*
X718659Y259874D03*
D17*
X727549Y259874D03*
D14*
X736083Y259874D03*
D18*
X749863Y259874D03*
D16*
X760391Y259874D03*
D13*
X768545Y259874D03*
D19*
X781257Y259874D03*
D20*
X792687Y259874D03*
D21*
X801387Y259874D03*
D22*
X810277Y259874D03*
D23*
X698707Y260237D03*
D24*
X710493Y260237D03*
D16*
X718659Y260237D03*
D25*
X727549Y260237D03*
D23*
X736071Y260237D03*
D26*
X749876Y260237D03*
D17*
X760569Y260237D03*
D27*
X768367Y260237D03*
D12*
X781435Y260237D03*
D20*
X792687Y260237D03*
D13*
X801565Y260237D03*
D18*
X810467Y260237D03*
D28*
X698695Y260599D03*
D29*
X710493Y260599D03*
D30*
X718659Y260599D03*
D31*
X727358Y260599D03*
D28*
X736083Y260599D03*
D32*
X749863Y260599D03*
D33*
X760569Y260599D03*
D34*
X768367Y260599D03*
D35*
X781257Y260599D03*
D36*
X792687Y260599D03*
D34*
X801387Y260599D03*
D37*
X810277Y260599D03*
D15*
X698707Y260961D03*
D24*
X710493Y260961D03*
D16*
X718659Y260961D03*
D12*
X727358Y260961D03*
D15*
X736071Y260961D03*
D38*
X749863Y260961D03*
D17*
X760569Y260961D03*
D27*
X768011Y260961D03*
D39*
X781257Y260961D03*
D20*
X792687Y260961D03*
D27*
X801387Y260961D03*
D26*
X810455Y260961D03*
D24*
X698885Y261324D03*
X710493Y261324D03*
D16*
X718659Y261324D03*
D39*
X727181Y261324D03*
D24*
X736248Y261324D03*
D40*
X749863Y261324D03*
D17*
X760569Y261324D03*
D27*
X768011Y261324D03*
D41*
X781435Y261324D03*
D20*
X792687Y261324D03*
D27*
X801387Y261324D03*
D15*
X810467Y261324D03*
D24*
X698885Y261687D03*
X710493Y261687D03*
D16*
X718659Y261687D03*
D39*
X727181Y261687D03*
D24*
X736248Y261687D03*
D42*
X749863Y261687D03*
D17*
X760569Y261687D03*
D19*
X767821Y261687D03*
D22*
X781245Y261687D03*
D20*
X792687Y261687D03*
D27*
X801387Y261687D03*
D24*
X810289Y261687D03*
D16*
X695799Y262051D03*
D12*
X701603Y262051D03*
D13*
X707585Y262051D03*
D16*
X718659Y262051D03*
D41*
X727003Y262051D03*
D16*
X733162Y262051D03*
D43*
X738979Y262051D03*
D44*
X746421Y262051D03*
D39*
X753317Y262051D03*
D17*
X760569Y262051D03*
D11*
X767643Y262051D03*
D22*
X781245Y262051D03*
D45*
X792865Y262051D03*
D27*
X801387Y262051D03*
D19*
X807749Y262051D03*
X813185Y262051D03*
D46*
X695253Y262414D03*
D27*
X701971Y262414D03*
D13*
X707585Y262414D03*
D16*
X718659Y262414D03*
D41*
X727003Y262414D03*
D47*
X732629Y262414D03*
D11*
X739347Y262414D03*
D12*
X745875Y262414D03*
D48*
X753851Y262414D03*
D17*
X760569Y262414D03*
D11*
X767643Y262414D03*
D49*
X781435Y262414D03*
D45*
X792865Y262414D03*
D27*
X801387Y262414D03*
D13*
X807381Y262414D03*
D11*
X813363Y262414D03*
D50*
X694897Y262777D03*
D25*
X702149Y262777D03*
D13*
X707585Y262777D03*
D16*
X718659Y262777D03*
D22*
X726812Y262777D03*
D50*
X732261Y262777D03*
D19*
X739525Y262777D03*
X745697Y262777D03*
X754409Y262777D03*
D17*
X760569Y262777D03*
D11*
X767287Y262777D03*
D13*
X779797Y262777D03*
D16*
X782896Y262777D03*
D45*
X792865Y262777D03*
D13*
X801565Y262777D03*
D11*
X807191Y262777D03*
D13*
X813553Y262777D03*
D34*
X702327Y263139D03*
D51*
X707585Y263139D03*
D30*
X718659Y263139D03*
D52*
X726635Y263139D03*
D53*
X739703Y263139D03*
D54*
X745329Y263139D03*
D55*
X754409Y263139D03*
D33*
X760569Y263139D03*
D53*
X767287Y263139D03*
D51*
X779797Y263139D03*
D30*
X782896Y263139D03*
D56*
X792865Y263139D03*
D57*
X801387Y263139D03*
D56*
X807013Y263139D03*
D33*
X813909Y263139D03*
D27*
X702327Y263501D03*
D13*
X707585Y263501D03*
D16*
X718659Y263501D03*
D14*
X726635Y263501D03*
D11*
X739703Y263501D03*
D25*
X745329Y263501D03*
D11*
X754587Y263501D03*
D17*
X760569Y263501D03*
D27*
X766919Y263501D03*
X779619Y263501D03*
D13*
X783073Y263501D03*
D45*
X792865Y263501D03*
X807013Y263501D03*
D17*
X813909Y263501D03*
D27*
X702327Y263864D03*
D13*
X707585Y263864D03*
D16*
X718659Y263864D03*
D58*
X726457Y263864D03*
D11*
X739703Y263864D03*
D27*
X745151Y263864D03*
D11*
X754943Y263864D03*
D17*
X760569Y263864D03*
D27*
X766919Y263864D03*
D13*
X779441Y263864D03*
D16*
X783251Y263864D03*
D45*
X792865Y263864D03*
X807013Y263864D03*
D17*
X813909Y263864D03*
D27*
X702327Y264227D03*
D13*
X707585Y264227D03*
D16*
X718659Y264227D03*
D17*
X725009Y264227D03*
D16*
X728082Y264227D03*
D11*
X739703Y264227D03*
D27*
X745151Y264227D03*
D11*
X754943Y264227D03*
D17*
X760569Y264227D03*
D27*
X766919Y264227D03*
D13*
X779441Y264227D03*
D16*
X783251Y264227D03*
D45*
X792865Y264227D03*
D13*
X806645Y264227D03*
D16*
X814087Y264227D03*
D25*
X702149Y264591D03*
D13*
X707585Y264591D03*
D16*
X718659Y264591D03*
D27*
X724831Y264591D03*
D16*
X728082Y264591D03*
D19*
X739525Y264591D03*
X744961Y264591D03*
D11*
X754943Y264591D03*
D17*
X760569Y264591D03*
D11*
X766551Y264591D03*
X779251Y264591D03*
D17*
X783429Y264591D03*
D45*
X792865Y264591D03*
D13*
X806645Y264591D03*
X814265Y264591D03*
D12*
X701958Y264954D03*
D13*
X707585Y264954D03*
D16*
X718659Y264954D03*
D13*
X724653Y264954D03*
D16*
X728082Y264954D03*
D48*
X739347Y264954D03*
D11*
X744783Y264954D03*
D19*
X755121Y264954D03*
D17*
X760569Y264954D03*
D19*
X766373Y264954D03*
D45*
X779073Y264954D03*
D17*
X783429Y264954D03*
D45*
X792865Y264954D03*
D13*
X806645Y264954D03*
X814265Y264954D03*
D12*
X701603Y265317D03*
D13*
X707585Y265317D03*
D16*
X718659Y265317D03*
D11*
X724463Y265317D03*
D16*
X728082Y265317D03*
D43*
X738979Y265317D03*
D11*
X744783Y265317D03*
D27*
X755311Y265317D03*
D17*
X760569Y265317D03*
D11*
X766195Y265317D03*
D45*
X779073Y265317D03*
D16*
X783607Y265317D03*
D45*
X792865Y265317D03*
D13*
X806645Y265317D03*
X814265Y265317D03*
D59*
X701235Y265679D03*
D51*
X707585Y265679D03*
D30*
X718659Y265679D03*
D56*
X724285Y265679D03*
D30*
X728082Y265679D03*
D59*
X738623Y265679D03*
D53*
X744783Y265679D03*
D34*
X755311Y265679D03*
D33*
X760569Y265679D03*
D54*
X765649Y265679D03*
D53*
X778895Y265679D03*
D51*
X783785Y265679D03*
D56*
X792865Y265679D03*
D51*
X806645Y265679D03*
X814265Y265679D03*
D60*
X700879Y266041D03*
D13*
X707585Y266041D03*
D16*
X718659Y266041D03*
D11*
X724107Y266041D03*
D16*
X728082Y266041D03*
D49*
X738255Y266041D03*
D11*
X744783Y266041D03*
D27*
X755311Y266041D03*
D61*
X763109Y266041D03*
D13*
X778705Y266041D03*
X783785Y266041D03*
D45*
X792865Y266041D03*
D13*
X806645Y266041D03*
X814265Y266041D03*
D62*
X700333Y266404D03*
D63*
X710125Y266404D03*
D16*
X718659Y266404D03*
D13*
X723917Y266404D03*
D16*
X728082Y266404D03*
D58*
X737709Y266404D03*
D11*
X744783Y266404D03*
D27*
X755311Y266404D03*
D26*
X762931Y266404D03*
D13*
X778705Y266404D03*
D16*
X783962Y266404D03*
D45*
X792865Y266404D03*
D13*
X806645Y266404D03*
X814265Y266404D03*
D18*
X699799Y266767D03*
D63*
X710125Y266767D03*
D16*
X718659Y266767D03*
D27*
X723739Y266767D03*
D16*
X728082Y266767D03*
D18*
X737163Y266767D03*
D11*
X744783Y266767D03*
D27*
X755311Y266767D03*
D26*
X762931Y266767D03*
D27*
X778527Y266767D03*
D45*
X784153Y266767D03*
X792865Y266767D03*
D13*
X806645Y266767D03*
X814265Y266767D03*
D18*
X699418Y267131D03*
D63*
X710125Y267131D03*
D16*
X718659Y267131D03*
D13*
X723561Y267131D03*
D16*
X728082Y267131D03*
D18*
X736807Y267131D03*
D11*
X744783Y267131D03*
D27*
X755311Y267131D03*
D64*
X763287Y267131D03*
D17*
X778349Y267131D03*
D45*
X784153Y267131D03*
X792865Y267131D03*
D13*
X806645Y267131D03*
X814265Y267131D03*
D18*
X699063Y267494D03*
D63*
X710125Y267494D03*
D16*
X718659Y267494D03*
D11*
X723371Y267494D03*
D16*
X728082Y267494D03*
D65*
X736439Y267494D03*
D11*
X744783Y267494D03*
D27*
X755311Y267494D03*
D66*
X763655Y267494D03*
D17*
X778349Y267494D03*
D45*
X784153Y267494D03*
X792865Y267494D03*
D13*
X806645Y267494D03*
X814265Y267494D03*
D58*
X698517Y267857D03*
D63*
X710125Y267857D03*
D16*
X718659Y267857D03*
D45*
X723193Y267857D03*
D16*
X728082Y267857D03*
D62*
X735893Y267857D03*
D11*
X744783Y267857D03*
D27*
X755311Y267857D03*
D67*
X763833Y267857D03*
D27*
X778171Y267857D03*
D13*
X784521Y267857D03*
D45*
X792865Y267857D03*
D13*
X806645Y267857D03*
X814265Y267857D03*
D52*
X697983Y268219D03*
D68*
X710125Y268219D03*
D30*
X718659Y268219D03*
D53*
X723015Y268219D03*
D30*
X728082Y268219D03*
D52*
X735347Y268219D03*
D53*
X744783Y268219D03*
D34*
X755311Y268219D03*
D33*
X760569Y268219D03*
D69*
X766551Y268219D03*
D51*
X777993Y268219D03*
X784521Y268219D03*
D56*
X792865Y268219D03*
D51*
X806645Y268219D03*
X814265Y268219D03*
D41*
X697615Y268581D03*
D13*
X707585Y268581D03*
D16*
X718659Y268581D03*
D27*
X722647Y268581D03*
D16*
X728082Y268581D03*
D70*
X734991Y268581D03*
D11*
X744783Y268581D03*
D27*
X755311Y268581D03*
D17*
X760569Y268581D03*
D19*
X767109Y268581D03*
D13*
X777993Y268581D03*
X784521Y268581D03*
D45*
X792865Y268581D03*
D13*
X806645Y268581D03*
X814265Y268581D03*
D12*
X697259Y268944D03*
D13*
X707585Y268944D03*
D16*
X718659Y268944D03*
D27*
X722647Y268944D03*
D16*
X728082Y268944D03*
D12*
X734623Y268944D03*
D19*
X744961Y268944D03*
D27*
X755311Y268944D03*
D17*
X760569Y268944D03*
D11*
X767287Y268944D03*
X777803Y268944D03*
D13*
X784877Y268944D03*
D45*
X792865Y268944D03*
D13*
X806645Y268944D03*
X814265Y268944D03*
D19*
X696701Y269307D03*
D13*
X707585Y269307D03*
D16*
X718659Y269307D03*
D27*
X722291Y269307D03*
D16*
X728082Y269307D03*
D19*
X734089Y269307D03*
D27*
X745151Y269307D03*
D19*
X755121Y269307D03*
D17*
X760569Y269307D03*
D11*
X767643Y269307D03*
D45*
X777625Y269307D03*
D13*
X784877Y269307D03*
D45*
X792865Y269307D03*
D13*
X806645Y269307D03*
X814265Y269307D03*
D11*
X696523Y269671D03*
D13*
X707585Y269671D03*
D16*
X718659Y269671D03*
D27*
X722291Y269671D03*
D16*
X728082Y269671D03*
D27*
X733899Y269671D03*
X745151Y269671D03*
D11*
X754943Y269671D03*
D17*
X760569Y269671D03*
D11*
X767643Y269671D03*
D45*
X777625Y269671D03*
D13*
X784877Y269671D03*
D45*
X792865Y269671D03*
D16*
X806822Y269671D03*
D13*
X814265Y269671D03*
D45*
X696345Y270034D03*
D13*
X707585Y270034D03*
D16*
X718659Y270034D03*
D11*
X721923Y270034D03*
D16*
X728082Y270034D03*
D13*
X733721Y270034D03*
D27*
X745151Y270034D03*
D11*
X754943Y270034D03*
D17*
X760569Y270034D03*
D11*
X767643Y270034D03*
D45*
X777625Y270034D03*
D13*
X784877Y270034D03*
D71*
X788699Y270034D03*
D45*
X792865Y270034D03*
X807013Y270034D03*
D17*
X813909Y270034D03*
D45*
X696345Y270397D03*
D13*
X707585Y270397D03*
D16*
X718659Y270397D03*
D45*
X721745Y270397D03*
D16*
X728082Y270397D03*
D13*
X733721Y270397D03*
D27*
X745507Y270397D03*
D19*
X754765Y270397D03*
D17*
X760569Y270397D03*
D11*
X767643Y270397D03*
D16*
X777435Y270397D03*
X785055Y270397D03*
D72*
X789055Y270397D03*
D45*
X792865Y270397D03*
X807013Y270397D03*
D17*
X813909Y270397D03*
D56*
X696345Y270759D03*
D51*
X707585Y270759D03*
D30*
X718659Y270759D03*
D56*
X721745Y270759D03*
D30*
X728082Y270759D03*
D51*
X733721Y270759D03*
D55*
X745697Y270759D03*
X754765Y270759D03*
D33*
X760569Y270759D03*
D53*
X767643Y270759D03*
D30*
X789423Y270759D03*
D56*
X792865Y270759D03*
X807013Y270759D03*
D33*
X813909Y270759D03*
D45*
X696345Y271121D03*
D13*
X707585Y271121D03*
D14*
X720107Y271121D03*
D16*
X728082Y271121D03*
D13*
X733721Y271121D03*
D19*
X745697Y271121D03*
X754409Y271121D03*
D17*
X760569Y271121D03*
D19*
X767465Y271121D03*
D13*
X789601Y271121D03*
D45*
X792865Y271121D03*
D13*
X807381Y271121D03*
D27*
X813731Y271121D03*
D45*
X696345Y271484D03*
D50*
X702873Y271484D03*
D13*
X707585Y271484D03*
D14*
X720107Y271484D03*
D16*
X728082Y271484D03*
D13*
X733721Y271484D03*
D73*
X740249Y271484D03*
D48*
X746231Y271484D03*
D43*
X754219Y271484D03*
D17*
X760569Y271484D03*
D19*
X767465Y271484D03*
D18*
X791239Y271484D03*
D27*
X807559Y271484D03*
X813731Y271484D03*
D13*
X696713Y271847D03*
D74*
X702517Y271847D03*
D13*
X707585Y271847D03*
D22*
X719929Y271847D03*
D16*
X728082Y271847D03*
D13*
X734077Y271847D03*
D74*
X739881Y271847D03*
D44*
X746777Y271847D03*
D39*
X753673Y271847D03*
D17*
X760569Y271847D03*
D43*
X766919Y271847D03*
D62*
X791417Y271847D03*
D19*
X807749Y271847D03*
X813185Y271847D03*
D25*
X697069Y272211D03*
D75*
X702149Y272211D03*
D24*
X710493Y272211D03*
D22*
X719929Y272211D03*
D16*
X728082Y272211D03*
D19*
X734445Y272211D03*
D76*
X739525Y272211D03*
D77*
X750041Y272211D03*
D78*
X764023Y272211D03*
D49*
X791595Y272211D03*
D24*
X810645Y272211D03*
D26*
X699431Y272574D03*
D24*
X710493Y272574D03*
D70*
X719751Y272574D03*
D16*
X728082Y272574D03*
D26*
X736795Y272574D03*
D79*
X750231Y272574D03*
D67*
X763833Y272574D03*
D70*
X791963Y272574D03*
D80*
X810645Y272574D03*
D26*
X699431Y272937D03*
D24*
X710493Y272937D03*
D70*
X719751Y272937D03*
D16*
X728082Y272937D03*
D26*
X736795Y272937D03*
D78*
X750231Y272937D03*
D66*
X763655Y272937D03*
D44*
X792141Y272937D03*
D26*
X810455Y272937D03*
D37*
X699609Y273299D03*
D29*
X710493Y273299D03*
D35*
X719561Y273299D03*
D30*
X728082Y273299D03*
D81*
X736985Y273299D03*
D32*
X750218Y273299D03*
D29*
X763477Y273299D03*
D55*
X792509Y273299D03*
D81*
X810645Y273299D03*
D82*
X699609Y273661D03*
D24*
X710493Y273661D03*
D12*
X719383Y273661D03*
D16*
X728082Y273661D03*
D83*
X736985Y273661D03*
D26*
X750231Y273661D03*
D61*
X763109Y273661D03*
D11*
X792687Y273661D03*
D18*
X810467Y273661D03*
D22*
X699609Y274024D03*
D15*
X710671Y274024D03*
D11*
X719383Y274024D03*
D16*
X728082Y274024D03*
D22*
X736972Y274024D03*
D18*
X750218Y274024D03*
D84*
X762741Y274024D03*
D16*
X793056Y274024D03*
D22*
X810632Y274024D03*
D17*
X699609Y274387D03*
D45*
X736985Y274387D03*
D12*
X750218Y274387D03*
D45*
X810645Y274387D03*
D27*
X760747Y287814D03*
D48*
X805387Y287814D03*
D12*
X820983Y287814D03*
D16*
X679467Y288177D03*
D13*
X687265Y288177D03*
D15*
X695075Y288177D03*
D16*
X703063Y288177D03*
D13*
X711953Y288177D03*
D16*
X718659Y288177D03*
D13*
X726457Y288177D03*
D15*
X734267Y288177D03*
D16*
X742256Y288177D03*
D45*
X751133Y288177D03*
D22*
X760925Y288177D03*
D13*
X774361Y288177D03*
D84*
X788141Y288177D03*
D18*
X805387Y288177D03*
X820983Y288177D03*
D16*
X831511Y288177D03*
D13*
X839665Y288177D03*
D33*
X679289Y288539D03*
D34*
X687087Y288539D03*
D29*
X694897Y288539D03*
D30*
X703063Y288539D03*
D55*
X711941Y288539D03*
D51*
X718481Y288539D03*
D34*
X726279Y288539D03*
D29*
X734089Y288539D03*
D30*
X742256Y288539D03*
D55*
X751133Y288539D03*
D85*
X760759Y288539D03*
D51*
X774361Y288539D03*
D86*
X788687Y288539D03*
D28*
X805375Y288539D03*
X820996Y288539D03*
D33*
X831689Y288539D03*
D34*
X839487Y288539D03*
D17*
X679289Y288901D03*
D25*
X686909Y288901D03*
D24*
X694897Y288901D03*
D16*
X703063Y288901D03*
D12*
X711763Y288901D03*
D13*
X718481Y288901D03*
D19*
X726088Y288901D03*
D24*
X734089Y288901D03*
D16*
X742256Y288901D03*
D12*
X750955Y288901D03*
D87*
X760925Y288901D03*
D13*
X774361Y288901D03*
D66*
X789055Y288901D03*
D20*
X805387Y288901D03*
D66*
X820983Y288901D03*
D17*
X831689Y288901D03*
D27*
X839487Y288901D03*
D17*
X679289Y289264D03*
D27*
X686731Y289264D03*
D24*
X694897Y289264D03*
D16*
X703063Y289264D03*
D12*
X711763Y289264D03*
D13*
X718481Y289264D03*
D11*
X725911Y289264D03*
D24*
X734089Y289264D03*
D16*
X742256Y289264D03*
D12*
X750955Y289264D03*
D63*
X760925Y289264D03*
D13*
X774361Y289264D03*
D78*
X789423Y289264D03*
X805375Y289264D03*
D38*
X820983Y289264D03*
D17*
X831689Y289264D03*
D27*
X839131Y289264D03*
D17*
X679289Y289627D03*
D11*
X686363Y289627D03*
D24*
X694897Y289627D03*
D16*
X703063Y289627D03*
D39*
X711585Y289627D03*
D13*
X718481Y289627D03*
D11*
X725555Y289627D03*
D24*
X734089Y289627D03*
D16*
X742256Y289627D03*
D39*
X750777Y289627D03*
D15*
X761115Y289627D03*
D13*
X774361Y289627D03*
D88*
X789601Y289627D03*
D79*
X805375Y289627D03*
D40*
X820983Y289627D03*
D17*
X831689Y289627D03*
D27*
X839131Y289627D03*
D17*
X679289Y289991D03*
D19*
X686185Y289991D03*
D24*
X694897Y289991D03*
D16*
X703063Y289991D03*
D39*
X711585Y289991D03*
D13*
X718481Y289991D03*
D19*
X725377Y289991D03*
D24*
X734089Y289991D03*
D16*
X742256Y289991D03*
D39*
X750777Y289991D03*
D19*
X758397Y289991D03*
D11*
X763655Y289991D03*
D13*
X774361Y289991D03*
D89*
X789779Y289991D03*
D42*
X805387Y289991D03*
X820983Y289991D03*
D17*
X831689Y289991D03*
D19*
X838941Y289991D03*
D17*
X679289Y290354D03*
D19*
X685829Y290354D03*
D17*
X691989Y290354D03*
D16*
X703063Y290354D03*
D70*
X711395Y290354D03*
D13*
X718481Y290354D03*
D25*
X725009Y290354D03*
D13*
X731181Y290354D03*
D16*
X742256Y290354D03*
D70*
X750587Y290354D03*
D17*
X758029Y290354D03*
D11*
X764011Y290354D03*
D13*
X774361Y290354D03*
D90*
X789957Y290354D03*
D39*
X801933Y290354D03*
D91*
X808829Y290354D03*
D44*
X817541Y290354D03*
D39*
X824437Y290354D03*
D17*
X831689Y290354D03*
D11*
X838763Y290354D03*
D17*
X679289Y290717D03*
D27*
X685639Y290717D03*
D17*
X691989Y290717D03*
D16*
X703063Y290717D03*
D70*
X711395Y290717D03*
D13*
X718481Y290717D03*
D27*
X724831Y290717D03*
D13*
X731181Y290717D03*
D16*
X742256Y290717D03*
D70*
X750587Y290717D03*
D27*
X757851Y290717D03*
D13*
X764201Y290717D03*
X774361Y290717D03*
D17*
X785969Y290717D03*
D22*
X793233Y290717D03*
D12*
X801399Y290717D03*
X809375Y290717D03*
X816995Y290717D03*
D48*
X824971Y290717D03*
D17*
X831689Y290717D03*
D11*
X838763Y290717D03*
D33*
X679289Y291079D03*
D53*
X685271Y291079D03*
D33*
X691989Y291079D03*
D30*
X703063Y291079D03*
D92*
X711217Y291079D03*
D51*
X718481Y291079D03*
D53*
X724463Y291079D03*
D51*
X731181Y291079D03*
D30*
X742256Y291079D03*
D92*
X750409Y291079D03*
D51*
X757673Y291079D03*
X764201Y291079D03*
D93*
X772177Y291079D03*
D33*
X785969Y291079D03*
D94*
X793589Y291079D03*
D54*
X801209Y291079D03*
D55*
X809908Y291079D03*
X816817Y291079D03*
X825529Y291079D03*
D33*
X831689Y291079D03*
D53*
X838407Y291079D03*
D17*
X679289Y291441D03*
D19*
X685093Y291441D03*
D17*
X691989Y291441D03*
D16*
X703063Y291441D03*
D60*
X711039Y291441D03*
D13*
X718481Y291441D03*
D19*
X724285Y291441D03*
D13*
X731181Y291441D03*
D16*
X742256Y291441D03*
D14*
X750231Y291441D03*
D13*
X757673Y291441D03*
X764557Y291441D03*
D90*
X772177Y291441D03*
D17*
X785969Y291441D03*
D12*
X794135Y291441D03*
D19*
X800841Y291441D03*
X809908Y291441D03*
D25*
X816449Y291441D03*
D19*
X825529Y291441D03*
D17*
X831689Y291441D03*
D11*
X838407Y291441D03*
D17*
X679289Y291804D03*
D11*
X684915Y291804D03*
D17*
X691989Y291804D03*
D16*
X703063Y291804D03*
D60*
X711039Y291804D03*
D13*
X718481Y291804D03*
D11*
X724107Y291804D03*
D13*
X731181Y291804D03*
D16*
X742256Y291804D03*
D14*
X750231Y291804D03*
D13*
X757673Y291804D03*
X764557Y291804D03*
D90*
X772177Y291804D03*
D17*
X785969Y291804D03*
D19*
X794313Y291804D03*
X800841Y291804D03*
D27*
X810099Y291804D03*
D25*
X816449Y291804D03*
D11*
X825707Y291804D03*
D17*
X831689Y291804D03*
D27*
X838039Y291804D03*
D17*
X679289Y292167D03*
D27*
X684547Y292167D03*
D17*
X691989Y292167D03*
D16*
X703063Y292167D03*
D58*
X710861Y292167D03*
D13*
X718481Y292167D03*
D27*
X723739Y292167D03*
D13*
X731181Y292167D03*
D16*
X742256Y292167D03*
D62*
X750041Y292167D03*
D45*
X757305Y292167D03*
D13*
X764557Y292167D03*
D90*
X772177Y292167D03*
D17*
X785969Y292167D03*
D19*
X794668Y292167D03*
D11*
X800663Y292167D03*
X810467Y292167D03*
D27*
X816271Y292167D03*
D11*
X826063Y292167D03*
D17*
X831689Y292167D03*
D27*
X838039Y292167D03*
D17*
X679289Y292531D03*
D25*
X684369Y292531D03*
D17*
X691989Y292531D03*
D16*
X703063Y292531D03*
D13*
X709413Y292531D03*
D16*
X712487Y292531D03*
D13*
X718481Y292531D03*
D19*
X723548Y292531D03*
D13*
X731181Y292531D03*
D16*
X742256Y292531D03*
D45*
X748593Y292531D03*
D16*
X751679Y292531D03*
D45*
X757305Y292531D03*
D13*
X764557Y292531D03*
D90*
X772177Y292531D03*
D17*
X785969Y292531D03*
D19*
X794668Y292531D03*
D11*
X800663Y292531D03*
X810467Y292531D03*
D27*
X816271Y292531D03*
D11*
X826063Y292531D03*
D17*
X831689Y292531D03*
D27*
X838039Y292531D03*
D17*
X679289Y292894D03*
D27*
X684191Y292894D03*
D17*
X691989Y292894D03*
D16*
X703063Y292894D03*
D11*
X709223Y292894D03*
D16*
X712487Y292894D03*
D13*
X718481Y292894D03*
D11*
X723371Y292894D03*
D13*
X731181Y292894D03*
D16*
X742256Y292894D03*
D11*
X748415Y292894D03*
D16*
X751679Y292894D03*
D45*
X757305Y292894D03*
D13*
X764557Y292894D03*
D90*
X772177Y292894D03*
D17*
X785969Y292894D03*
D27*
X794859Y292894D03*
D19*
X800485Y292894D03*
D11*
X810467Y292894D03*
D19*
X816081Y292894D03*
D11*
X826063Y292894D03*
D17*
X831689Y292894D03*
D11*
X837671Y292894D03*
D17*
X679289Y293257D03*
D11*
X683823Y293257D03*
D17*
X691989Y293257D03*
D16*
X703063Y293257D03*
D45*
X709045Y293257D03*
D16*
X712487Y293257D03*
D13*
X718481Y293257D03*
D11*
X723015Y293257D03*
D13*
X731181Y293257D03*
D16*
X742256Y293257D03*
D13*
X748225Y293257D03*
D16*
X751679Y293257D03*
D45*
X757305Y293257D03*
D13*
X764557Y293257D03*
D89*
X771999Y293257D03*
D17*
X785969Y293257D03*
D27*
X794859Y293257D03*
D11*
X800307Y293257D03*
D19*
X810645Y293257D03*
D11*
X815903Y293257D03*
D19*
X826241Y293257D03*
D17*
X831689Y293257D03*
D19*
X837493Y293257D03*
D33*
X679289Y293619D03*
D53*
X683467Y293619D03*
D33*
X691989Y293619D03*
D30*
X703063Y293619D03*
D53*
X708867Y293619D03*
D30*
X712487Y293619D03*
D51*
X718481Y293619D03*
D34*
X722647Y293619D03*
D51*
X731181Y293619D03*
D30*
X742256Y293619D03*
D34*
X748047Y293619D03*
D30*
X751679Y293619D03*
D56*
X757305Y293619D03*
D51*
X764557Y293619D03*
D30*
X768011Y293619D03*
D51*
X774361Y293619D03*
D33*
X785969Y293619D03*
D55*
X795049Y293619D03*
D53*
X800307Y293619D03*
X810823Y293619D03*
X815903Y293619D03*
D34*
X826431Y293619D03*
D33*
X831689Y293619D03*
D53*
X837315Y293619D03*
D17*
X679289Y293981D03*
D11*
X683467Y293981D03*
D17*
X691989Y293981D03*
D16*
X703063Y293981D03*
D13*
X708677Y293981D03*
D16*
X712487Y293981D03*
D13*
X718481Y293981D03*
D27*
X722647Y293981D03*
D13*
X731181Y293981D03*
D16*
X742256Y293981D03*
D17*
X747869Y293981D03*
D16*
X751679Y293981D03*
D45*
X757305Y293981D03*
D27*
X764379Y293981D03*
D16*
X768367Y293981D03*
D13*
X774361Y293981D03*
D17*
X785969Y293981D03*
D11*
X795227Y293981D03*
X800307Y293981D03*
X810823Y293981D03*
X815903Y293981D03*
D27*
X826431Y293981D03*
D17*
X831689Y293981D03*
D25*
X836769Y293981D03*
D17*
X679289Y294344D03*
D27*
X683099Y294344D03*
D17*
X691989Y294344D03*
D16*
X703063Y294344D03*
D27*
X708499Y294344D03*
D16*
X712487Y294344D03*
D13*
X718481Y294344D03*
D27*
X722291Y294344D03*
D13*
X731181Y294344D03*
D16*
X742256Y294344D03*
D27*
X747691Y294344D03*
D16*
X751679Y294344D03*
D11*
X757483Y294344D03*
D13*
X764201Y294344D03*
D16*
X768367Y294344D03*
D13*
X774361Y294344D03*
D17*
X785969Y294344D03*
D11*
X795227Y294344D03*
X800307Y294344D03*
X810823Y294344D03*
X815903Y294344D03*
D27*
X826431Y294344D03*
D61*
X834229Y294344D03*
D17*
X679289Y294707D03*
D11*
X682731Y294707D03*
D61*
X694529Y294707D03*
D16*
X703063Y294707D03*
D13*
X708321Y294707D03*
D16*
X712487Y294707D03*
D13*
X718481Y294707D03*
D11*
X721923Y294707D03*
D63*
X733721Y294707D03*
D16*
X742256Y294707D03*
D13*
X747513Y294707D03*
D16*
X751679Y294707D03*
D12*
X757838Y294707D03*
D19*
X763833Y294707D03*
D16*
X768722Y294707D03*
D13*
X774361Y294707D03*
D17*
X785969Y294707D03*
D11*
X795227Y294707D03*
X800307Y294707D03*
X810823Y294707D03*
X815903Y294707D03*
D27*
X826431Y294707D03*
D26*
X834051Y294707D03*
D83*
X681105Y295071D03*
D61*
X694529Y295071D03*
D16*
X703063Y295071D03*
D11*
X708131Y295071D03*
D16*
X712487Y295071D03*
D84*
X720297Y295071D03*
D63*
X733721Y295071D03*
D16*
X742256Y295071D03*
D11*
X747323Y295071D03*
D16*
X751679Y295071D03*
D78*
X760747Y295071D03*
D16*
X768722Y295071D03*
D13*
X774361Y295071D03*
D17*
X785969Y295071D03*
D11*
X795227Y295071D03*
X800307Y295071D03*
X810823Y295071D03*
X815903Y295071D03*
D27*
X826431Y295071D03*
D26*
X834051Y295071D03*
D18*
X680927Y295434D03*
D61*
X694529Y295434D03*
D16*
X703063Y295434D03*
D45*
X707953Y295434D03*
D16*
X712487Y295434D03*
D18*
X720119Y295434D03*
D63*
X733721Y295434D03*
D16*
X742256Y295434D03*
D45*
X747145Y295434D03*
D16*
X751679Y295434D03*
D95*
X760569Y295434D03*
D16*
X769103Y295434D03*
D13*
X774361Y295434D03*
D17*
X785969Y295434D03*
D11*
X795227Y295434D03*
X800307Y295434D03*
X810823Y295434D03*
X815903Y295434D03*
D27*
X826431Y295434D03*
D64*
X834407Y295434D03*
D58*
X680737Y295797D03*
D61*
X694529Y295797D03*
D16*
X703063Y295797D03*
D11*
X707775Y295797D03*
D16*
X712487Y295797D03*
D58*
X719929Y295797D03*
D63*
X733721Y295797D03*
D16*
X742256Y295797D03*
D11*
X746967Y295797D03*
D16*
X751679Y295797D03*
D95*
X760569Y295797D03*
D13*
X769281Y295797D03*
X774361Y295797D03*
D17*
X785969Y295797D03*
D11*
X795227Y295797D03*
X800307Y295797D03*
X810823Y295797D03*
X815903Y295797D03*
D27*
X826431Y295797D03*
D66*
X834775Y295797D03*
D85*
X680927Y296159D03*
D96*
X694529Y296159D03*
D30*
X703063Y296159D03*
D51*
X707585Y296159D03*
D30*
X712487Y296159D03*
D85*
X720119Y296159D03*
D68*
X733721Y296159D03*
D30*
X742256Y296159D03*
D51*
X746777Y296159D03*
D30*
X751679Y296159D03*
D32*
X760378Y296159D03*
D30*
X769459Y296159D03*
D51*
X774361Y296159D03*
D33*
X785969Y296159D03*
D53*
X795227Y296159D03*
X800307Y296159D03*
X810823Y296159D03*
X815903Y296159D03*
D34*
X826431Y296159D03*
D97*
X834953Y296159D03*
D17*
X679289Y296521D03*
D11*
X682731Y296521D03*
D61*
X694529Y296521D03*
D16*
X703063Y296521D03*
D27*
X707407Y296521D03*
D16*
X712487Y296521D03*
D13*
X718481Y296521D03*
D11*
X721923Y296521D03*
D63*
X733721Y296521D03*
D16*
X742256Y296521D03*
D27*
X746599Y296521D03*
D16*
X751679Y296521D03*
D45*
X757305Y296521D03*
D22*
X761661Y296521D03*
D16*
X769815Y296521D03*
D13*
X774361Y296521D03*
D17*
X785969Y296521D03*
D11*
X795227Y296521D03*
X800307Y296521D03*
X810823Y296521D03*
X815903Y296521D03*
D27*
X826431Y296521D03*
D17*
X831689Y296521D03*
D48*
X837671Y296521D03*
D17*
X679289Y296884D03*
D13*
X682921Y296884D03*
D17*
X691989Y296884D03*
D16*
X703063Y296884D03*
D27*
X707051Y296884D03*
D16*
X712487Y296884D03*
D13*
X718481Y296884D03*
X722113Y296884D03*
X731181Y296884D03*
D16*
X742256Y296884D03*
D11*
X746231Y296884D03*
D16*
X751679Y296884D03*
D45*
X757305Y296884D03*
D27*
X761839Y296884D03*
D16*
X769815Y296884D03*
D13*
X774361Y296884D03*
D17*
X785969Y296884D03*
D11*
X795227Y296884D03*
X800307Y296884D03*
X810823Y296884D03*
X815903Y296884D03*
D27*
X826431Y296884D03*
D17*
X831689Y296884D03*
D19*
X838229Y296884D03*
D17*
X679289Y297247D03*
D13*
X683277Y297247D03*
D17*
X691989Y297247D03*
D16*
X703063Y297247D03*
D27*
X707051Y297247D03*
D16*
X712487Y297247D03*
D13*
X718481Y297247D03*
D17*
X722469Y297247D03*
D13*
X731181Y297247D03*
D16*
X742256Y297247D03*
D11*
X746231Y297247D03*
D16*
X751679Y297247D03*
D45*
X757305Y297247D03*
D16*
X770196Y297247D03*
D13*
X774361Y297247D03*
D17*
X785969Y297247D03*
D19*
X795049Y297247D03*
X800485Y297247D03*
D11*
X810823Y297247D03*
D19*
X816081Y297247D03*
D27*
X826431Y297247D03*
D17*
X831689Y297247D03*
D11*
X838407Y297247D03*
D17*
X679289Y297611D03*
D11*
X683467Y297611D03*
D17*
X691989Y297611D03*
D16*
X703063Y297611D03*
D11*
X706683Y297611D03*
D16*
X712487Y297611D03*
D13*
X718481Y297611D03*
D27*
X722647Y297611D03*
D13*
X731181Y297611D03*
D16*
X742256Y297611D03*
D11*
X745875Y297611D03*
D16*
X751679Y297611D03*
X757496Y297611D03*
X770196Y297611D03*
D13*
X774361Y297611D03*
D17*
X785969Y297611D03*
D27*
X794859Y297611D03*
D11*
X800663Y297611D03*
D19*
X810645Y297611D03*
D27*
X816271Y297611D03*
D19*
X826241Y297611D03*
D17*
X831689Y297611D03*
D11*
X838763Y297611D03*
D17*
X679289Y297974D03*
D11*
X683823Y297974D03*
D17*
X691989Y297974D03*
D16*
X703063Y297974D03*
D11*
X706683Y297974D03*
D16*
X712487Y297974D03*
D13*
X718481Y297974D03*
D11*
X723015Y297974D03*
D13*
X731181Y297974D03*
D16*
X742256Y297974D03*
D11*
X745875Y297974D03*
D16*
X751679Y297974D03*
X757496Y297974D03*
X770551Y297974D03*
D13*
X774361Y297974D03*
D17*
X785969Y297974D03*
D27*
X794859Y297974D03*
D11*
X800663Y297974D03*
X810467Y297974D03*
D27*
X816271Y297974D03*
D11*
X826063Y297974D03*
D17*
X831689Y297974D03*
D11*
X838763Y297974D03*
D17*
X679289Y298337D03*
D27*
X684191Y298337D03*
D17*
X691989Y298337D03*
D16*
X703063Y298337D03*
D11*
X706327Y298337D03*
D16*
X712487Y298337D03*
D13*
X718481Y298337D03*
D11*
X723371Y298337D03*
D13*
X731181Y298337D03*
D16*
X742256Y298337D03*
D27*
X745507Y298337D03*
D16*
X751679Y298337D03*
D13*
X757673Y298337D03*
D16*
X770551Y298337D03*
D13*
X774361Y298337D03*
D17*
X785969Y298337D03*
D19*
X794668Y298337D03*
D11*
X800663Y298337D03*
X810467Y298337D03*
D27*
X816271Y298337D03*
D11*
X826063Y298337D03*
D17*
X831689Y298337D03*
D11*
X838763Y298337D03*
D33*
X679289Y298699D03*
D34*
X684191Y298699D03*
D33*
X691989Y298699D03*
D30*
X703063Y298699D03*
D51*
X706137Y298699D03*
D30*
X712487Y298699D03*
D51*
X718481Y298699D03*
D53*
X723371Y298699D03*
D51*
X731181Y298699D03*
D30*
X742256Y298699D03*
D33*
X745329Y298699D03*
D30*
X751679Y298699D03*
D51*
X757673Y298699D03*
D30*
X770907Y298699D03*
D51*
X774361Y298699D03*
D33*
X785969Y298699D03*
D53*
X794491Y298699D03*
D34*
X801031Y298699D03*
D55*
X810289Y298699D03*
D34*
X816627Y298699D03*
D55*
X825885Y298699D03*
D33*
X831689Y298699D03*
D53*
X838763Y298699D03*
D17*
X679289Y299061D03*
D27*
X684547Y299061D03*
D17*
X691989Y299061D03*
D16*
X703063Y299061D03*
D13*
X706137Y299061D03*
D16*
X712487Y299061D03*
D13*
X718481Y299061D03*
D27*
X723739Y299061D03*
D13*
X731181Y299061D03*
D16*
X742256Y299061D03*
D17*
X745329Y299061D03*
D16*
X751679Y299061D03*
X757851Y299061D03*
X771262Y299061D03*
D13*
X774361Y299061D03*
D17*
X785969Y299061D03*
D19*
X794313Y299061D03*
D25*
X801209Y299061D03*
D19*
X810289Y299061D03*
X816817Y299061D03*
X825885Y299061D03*
D17*
X831689Y299061D03*
D11*
X838763Y299061D03*
D17*
X679289Y299424D03*
D11*
X684915Y299424D03*
D17*
X691989Y299424D03*
D14*
X704511Y299424D03*
D16*
X712487Y299424D03*
D13*
X718481Y299424D03*
D11*
X724107Y299424D03*
D13*
X731181Y299424D03*
D14*
X743703Y299424D03*
D16*
X751679Y299424D03*
D17*
X758029Y299424D03*
D16*
X771262Y299424D03*
D13*
X774361Y299424D03*
D17*
X785969Y299424D03*
D19*
X793957Y299424D03*
D25*
X801209Y299424D03*
D19*
X809908Y299424D03*
X816817Y299424D03*
X825529Y299424D03*
D17*
X831689Y299424D03*
D19*
X838585Y299424D03*
D17*
X679289Y299787D03*
D11*
X685271Y299787D03*
D17*
X691989Y299787D03*
D14*
X704511Y299787D03*
D16*
X712487Y299787D03*
D13*
X718481Y299787D03*
D11*
X724463Y299787D03*
D13*
X731181Y299787D03*
D14*
X743703Y299787D03*
D16*
X751679Y299787D03*
D13*
X758385Y299787D03*
D14*
X773091Y299787D03*
D17*
X785969Y299787D03*
D91*
X793589Y299787D03*
D12*
X801755Y299787D03*
D48*
X809731Y299787D03*
X817351Y299787D03*
D43*
X825339Y299787D03*
D17*
X831689Y299787D03*
D19*
X838585Y299787D03*
D17*
X679289Y300151D03*
D19*
X685448Y300151D03*
D17*
X691989Y300151D03*
D22*
X704333Y300151D03*
D16*
X712487Y300151D03*
D13*
X718481Y300151D03*
D19*
X724641Y300151D03*
D13*
X731181Y300151D03*
D22*
X743526Y300151D03*
D16*
X751679Y300151D03*
D11*
X758575Y300151D03*
D14*
X773091Y300151D03*
D17*
X785969Y300151D03*
D41*
X793043Y300151D03*
D44*
X802301Y300151D03*
D39*
X809197Y300151D03*
D44*
X817897Y300151D03*
D39*
X824793Y300151D03*
D17*
X831689Y300151D03*
D43*
X838039Y300151D03*
D17*
X679289Y300514D03*
D27*
X685639Y300514D03*
D24*
X694897Y300514D03*
D22*
X704333Y300514D03*
D16*
X712487Y300514D03*
D13*
X718481Y300514D03*
D27*
X724831Y300514D03*
D24*
X734089Y300514D03*
D22*
X743526Y300514D03*
D16*
X751679Y300514D03*
D19*
X759108Y300514D03*
D46*
X764188Y300514D03*
D22*
X773269Y300514D03*
D89*
X789779Y300514D03*
D77*
X805565Y300514D03*
X821161Y300514D03*
D78*
X835143Y300514D03*
D17*
X679289Y300877D03*
D11*
X686007Y300877D03*
D24*
X694897Y300877D03*
D41*
X704143Y300877D03*
D16*
X712487Y300877D03*
D13*
X718481Y300877D03*
D27*
X725187Y300877D03*
D24*
X734089Y300877D03*
D41*
X743335Y300877D03*
D16*
X751679Y300877D03*
D26*
X761102Y300877D03*
D22*
X773269Y300877D03*
D88*
X789601Y300877D03*
D40*
X805743Y300877D03*
D79*
X821351Y300877D03*
D67*
X834953Y300877D03*
D33*
X679289Y301239D03*
D55*
X686185Y301239D03*
D29*
X694897Y301239D03*
D98*
X704143Y301239D03*
D30*
X712487Y301239D03*
D51*
X718481Y301239D03*
D55*
X725377Y301239D03*
D29*
X734089Y301239D03*
D98*
X743335Y301239D03*
D30*
X751679Y301239D03*
D81*
X761293Y301239D03*
D59*
X773447Y301239D03*
D99*
X789423Y301239D03*
D100*
X805743Y301239D03*
D99*
X821351Y301239D03*
D32*
X834775Y301239D03*
D17*
X679289Y301601D03*
D19*
X686541Y301601D03*
D24*
X694897Y301601D03*
D39*
X703965Y301601D03*
D16*
X712487Y301601D03*
D13*
X718481Y301601D03*
D19*
X725733Y301601D03*
D24*
X734089Y301601D03*
D39*
X743157Y301601D03*
D16*
X751679Y301601D03*
D23*
X761471Y301601D03*
D39*
X773637Y301601D03*
D66*
X789055Y301601D03*
X805743Y301601D03*
X821338Y301601D03*
D24*
X834597Y301601D03*
D17*
X679289Y301964D03*
D27*
X686731Y301964D03*
D24*
X694897Y301964D03*
D48*
X703787Y301964D03*
D16*
X712487Y301964D03*
D13*
X718481Y301964D03*
D11*
X725911Y301964D03*
D24*
X734089Y301964D03*
D12*
X742979Y301964D03*
D16*
X751679Y301964D03*
D65*
X761839Y301964D03*
D39*
X773637Y301964D03*
D64*
X788687Y301964D03*
D26*
X805756Y301964D03*
X821351Y301964D03*
D61*
X834229Y301964D03*
D17*
X679289Y302327D03*
D16*
X686731Y302327D03*
D15*
X695075Y302327D03*
D11*
X703787Y302327D03*
D16*
X712487Y302327D03*
D13*
X718481Y302327D03*
D16*
X725923Y302327D03*
D15*
X734267Y302327D03*
D27*
X742967Y302327D03*
D16*
X751679Y302327D03*
D60*
X761839Y302327D03*
D19*
X773637Y302327D03*
D84*
X788141Y302327D03*
D18*
X805743Y302327D03*
X821338Y302327D03*
D84*
X833861Y302327D03*
D19*
X762029Y302691D03*
D12*
X805743Y302691D03*
X821338Y302691D03*
D101*
X0Y-1067D02*
X0Y-1803D01*
X0Y-1067D02*
X205Y-1067D01*
X205Y-1066D02*
X232Y-1068D01*
X258Y-1073D01*
X283Y-1082D01*
X308Y-1093D01*
X330Y-1108D01*
X350Y-1126D01*
X368Y-1146D01*
X383Y-1169D01*
X394Y-1193D01*
X403Y-1218D01*
X408Y-1244D01*
X410Y-1271D01*
X409Y-1271D02*
X409Y-1599D01*
X410Y-1599D02*
X408Y-1626D01*
X403Y-1652D01*
X394Y-1677D01*
X383Y-1702D01*
X368Y-1724D01*
X350Y-1744D01*
X330Y-1762D01*
X307Y-1777D01*
X283Y-1788D01*
X258Y-1797D01*
X232Y-1802D01*
X205Y-1804D01*
X205Y-1803D02*
X0Y-1803D01*
X692Y-1742D02*
X692Y-1701D01*
X733Y-1701D01*
X733Y-1742D01*
X692Y-1742D01*
X692Y-1415D02*
X692Y-1374D01*
X733Y-1374D01*
X733Y-1415D01*
X692Y-1415D01*
X969Y-1885D02*
X1296Y-985D01*
X1552Y-1067D02*
X1552Y-1803D01*
X1552Y-1067D02*
X1756Y-1067D01*
X1756Y-1066D02*
X1783Y-1068D01*
X1809Y-1073D01*
X1834Y-1082D01*
X1859Y-1093D01*
X1881Y-1108D01*
X1901Y-1126D01*
X1919Y-1146D01*
X1934Y-1169D01*
X1945Y-1193D01*
X1954Y-1218D01*
X1959Y-1244D01*
X1961Y-1271D01*
X1959Y-1298D01*
X1954Y-1324D01*
X1945Y-1349D01*
X1934Y-1374D01*
X1919Y-1396D01*
X1901Y-1416D01*
X1881Y-1434D01*
X1858Y-1449D01*
X1834Y-1460D01*
X1809Y-1469D01*
X1783Y-1474D01*
X1756Y-1476D01*
X1552Y-1476D01*
X2208Y-1312D02*
X2208Y-1803D01*
X2208Y-1312D02*
X2454Y-1312D01*
X2454Y-1394D01*
X2648Y-1476D02*
X2648Y-1640D01*
X2648Y-1476D02*
X2650Y-1452D01*
X2655Y-1428D01*
X2664Y-1405D01*
X2676Y-1384D01*
X2692Y-1364D01*
X2710Y-1348D01*
X2730Y-1334D01*
X2752Y-1323D01*
X2776Y-1316D01*
X2800Y-1312D01*
X2824Y-1312D01*
X2848Y-1316D01*
X2872Y-1323D01*
X2894Y-1334D01*
X2914Y-1348D01*
X2932Y-1364D01*
X2948Y-1384D01*
X2960Y-1405D01*
X2969Y-1428D01*
X2974Y-1452D01*
X2976Y-1476D01*
X2976Y-1640D01*
X2974Y-1664D01*
X2969Y-1688D01*
X2960Y-1711D01*
X2948Y-1732D01*
X2932Y-1752D01*
X2914Y-1768D01*
X2894Y-1782D01*
X2872Y-1793D01*
X2848Y-1800D01*
X2824Y-1804D01*
X2800Y-1804D01*
X2776Y-1800D01*
X2752Y-1793D01*
X2730Y-1782D01*
X2710Y-1768D01*
X2692Y-1752D01*
X2676Y-1732D01*
X2664Y-1711D01*
X2655Y-1688D01*
X2650Y-1664D01*
X2648Y-1640D01*
X3226Y-1926D02*
X3226Y-1312D01*
X3226Y-1926D02*
X3224Y-1947D01*
X3219Y-1968D01*
X3210Y-1988D01*
X3197Y-2005D01*
X3182Y-2020D01*
X3165Y-2033D01*
X3145Y-2042D01*
X3124Y-2047D01*
X3103Y-2049D01*
X3062Y-2049D01*
X3206Y-1108D02*
X3206Y-1067D01*
X3247Y-1067D01*
X3247Y-1108D01*
X3206Y-1108D01*
X3611Y-1803D02*
X3815Y-1803D01*
X3611Y-1804D02*
X3590Y-1802D01*
X3569Y-1797D01*
X3550Y-1788D01*
X3532Y-1775D01*
X3517Y-1760D01*
X3504Y-1743D01*
X3495Y-1723D01*
X3490Y-1702D01*
X3488Y-1681D01*
X3488Y-1476D01*
X3490Y-1452D01*
X3495Y-1428D01*
X3504Y-1405D01*
X3516Y-1384D01*
X3532Y-1364D01*
X3550Y-1348D01*
X3570Y-1334D01*
X3592Y-1323D01*
X3616Y-1316D01*
X3640Y-1312D01*
X3664Y-1312D01*
X3688Y-1316D01*
X3712Y-1323D01*
X3734Y-1334D01*
X3754Y-1348D01*
X3772Y-1364D01*
X3788Y-1384D01*
X3800Y-1405D01*
X3809Y-1428D01*
X3814Y-1452D01*
X3816Y-1476D01*
X3815Y-1476D02*
X3815Y-1558D01*
X3488Y-1558D01*
X4186Y-1803D02*
X4349Y-1803D01*
X4186Y-1804D02*
X4165Y-1802D01*
X4144Y-1797D01*
X4125Y-1788D01*
X4107Y-1775D01*
X4092Y-1760D01*
X4079Y-1743D01*
X4070Y-1723D01*
X4065Y-1702D01*
X4063Y-1681D01*
X4063Y-1435D01*
X4065Y-1414D01*
X4070Y-1393D01*
X4079Y-1374D01*
X4092Y-1356D01*
X4107Y-1341D01*
X4124Y-1328D01*
X4144Y-1319D01*
X4165Y-1314D01*
X4186Y-1312D01*
X4349Y-1312D01*
X4521Y-1312D02*
X4766Y-1312D01*
X4602Y-1067D02*
X4602Y-1681D01*
X4604Y-1702D01*
X4609Y-1723D01*
X4618Y-1743D01*
X4631Y-1760D01*
X4646Y-1775D01*
X4664Y-1788D01*
X4683Y-1797D01*
X4704Y-1802D01*
X4725Y-1804D01*
X4725Y-1803D02*
X4766Y-1803D01*
X5052Y-1517D02*
X5256Y-1599D01*
X5052Y-1516D02*
X5034Y-1507D01*
X5019Y-1496D01*
X5006Y-1481D01*
X4996Y-1464D01*
X4989Y-1446D01*
X4985Y-1426D01*
X4986Y-1407D01*
X4989Y-1388D01*
X4997Y-1370D01*
X5007Y-1353D01*
X5021Y-1339D01*
X5036Y-1327D01*
X5054Y-1319D01*
X5073Y-1314D01*
X5092Y-1312D01*
X5093Y-1312D02*
X5130Y-1314D01*
X5168Y-1319D01*
X5205Y-1328D01*
X5241Y-1339D01*
X5277Y-1353D01*
X5256Y-1599D02*
X5274Y-1608D01*
X5289Y-1619D01*
X5302Y-1634D01*
X5312Y-1651D01*
X5319Y-1669D01*
X5323Y-1689D01*
X5322Y-1708D01*
X5319Y-1727D01*
X5311Y-1745D01*
X5301Y-1762D01*
X5287Y-1776D01*
X5272Y-1788D01*
X5254Y-1796D01*
X5235Y-1801D01*
X5216Y-1803D01*
X5215Y-1804D02*
X5169Y-1802D01*
X5124Y-1797D01*
X5078Y-1788D01*
X5034Y-1777D01*
X4990Y-1763D01*
X5543Y-1885D02*
X5870Y-985D01*
X6104Y-1312D02*
X6104Y-1803D01*
X6084Y-1108D02*
X6084Y-1067D01*
X6125Y-1067D01*
X6125Y-1108D01*
X6084Y-1108D01*
X6360Y-1476D02*
X6360Y-1640D01*
X6360Y-1476D02*
X6362Y-1452D01*
X6367Y-1428D01*
X6376Y-1405D01*
X6388Y-1384D01*
X6404Y-1364D01*
X6422Y-1348D01*
X6442Y-1334D01*
X6464Y-1323D01*
X6488Y-1316D01*
X6512Y-1312D01*
X6536Y-1312D01*
X6560Y-1316D01*
X6584Y-1323D01*
X6606Y-1334D01*
X6626Y-1348D01*
X6644Y-1364D01*
X6660Y-1384D01*
X6672Y-1405D01*
X6681Y-1428D01*
X6686Y-1452D01*
X6688Y-1476D01*
X6688Y-1640D01*
X6686Y-1664D01*
X6681Y-1688D01*
X6672Y-1711D01*
X6660Y-1732D01*
X6644Y-1752D01*
X6626Y-1768D01*
X6606Y-1782D01*
X6584Y-1793D01*
X6560Y-1800D01*
X6536Y-1804D01*
X6512Y-1804D01*
X6488Y-1800D01*
X6464Y-1793D01*
X6442Y-1782D01*
X6422Y-1768D01*
X6404Y-1752D01*
X6388Y-1732D01*
X6376Y-1711D01*
X6367Y-1688D01*
X6362Y-1664D01*
X6360Y-1640D01*
X6885Y-1312D02*
X7130Y-1312D01*
X6967Y-1067D02*
X6967Y-1681D01*
X6966Y-1681D02*
X6968Y-1702D01*
X6973Y-1723D01*
X6982Y-1743D01*
X6995Y-1760D01*
X7010Y-1775D01*
X7028Y-1788D01*
X7047Y-1797D01*
X7068Y-1802D01*
X7089Y-1804D01*
X7089Y-1803D02*
X7130Y-1803D01*
X7361Y-1517D02*
X7852Y-1517D01*
X8432Y-1803D02*
X8432Y-1067D01*
X8432Y-1803D02*
X8227Y-1803D01*
X8227Y-1804D02*
X8206Y-1802D01*
X8185Y-1797D01*
X8166Y-1788D01*
X8148Y-1775D01*
X8133Y-1760D01*
X8120Y-1743D01*
X8111Y-1723D01*
X8106Y-1702D01*
X8104Y-1681D01*
X8104Y-1435D01*
X8106Y-1414D01*
X8111Y-1393D01*
X8120Y-1374D01*
X8133Y-1356D01*
X8148Y-1341D01*
X8165Y-1328D01*
X8185Y-1319D01*
X8206Y-1314D01*
X8227Y-1312D01*
X8432Y-1312D01*
X8703Y-1476D02*
X8703Y-1640D01*
X8702Y-1476D02*
X8704Y-1452D01*
X8709Y-1428D01*
X8718Y-1405D01*
X8730Y-1384D01*
X8746Y-1364D01*
X8764Y-1348D01*
X8784Y-1334D01*
X8806Y-1323D01*
X8830Y-1316D01*
X8854Y-1312D01*
X8878Y-1312D01*
X8902Y-1316D01*
X8926Y-1323D01*
X8948Y-1334D01*
X8968Y-1348D01*
X8986Y-1364D01*
X9002Y-1384D01*
X9014Y-1405D01*
X9023Y-1428D01*
X9028Y-1452D01*
X9030Y-1476D01*
X9030Y-1640D01*
X9028Y-1664D01*
X9023Y-1688D01*
X9014Y-1711D01*
X9002Y-1732D01*
X8986Y-1752D01*
X8968Y-1768D01*
X8948Y-1782D01*
X8926Y-1793D01*
X8902Y-1800D01*
X8878Y-1804D01*
X8854Y-1804D01*
X8830Y-1800D01*
X8806Y-1793D01*
X8784Y-1782D01*
X8764Y-1768D01*
X8746Y-1752D01*
X8730Y-1732D01*
X8718Y-1711D01*
X8709Y-1688D01*
X8704Y-1664D01*
X8702Y-1640D01*
X9277Y-1640D02*
X9277Y-1476D01*
X9279Y-1452D01*
X9284Y-1428D01*
X9293Y-1405D01*
X9305Y-1384D01*
X9321Y-1364D01*
X9339Y-1348D01*
X9359Y-1334D01*
X9381Y-1323D01*
X9405Y-1316D01*
X9429Y-1312D01*
X9453Y-1312D01*
X9477Y-1316D01*
X9501Y-1323D01*
X9523Y-1334D01*
X9543Y-1348D01*
X9561Y-1364D01*
X9577Y-1384D01*
X9589Y-1405D01*
X9598Y-1428D01*
X9603Y-1452D01*
X9605Y-1476D01*
X9605Y-1640D01*
X9603Y-1664D01*
X9598Y-1688D01*
X9589Y-1711D01*
X9577Y-1732D01*
X9561Y-1752D01*
X9543Y-1768D01*
X9523Y-1782D01*
X9501Y-1793D01*
X9477Y-1800D01*
X9453Y-1804D01*
X9429Y-1804D01*
X9405Y-1800D01*
X9381Y-1793D01*
X9359Y-1782D01*
X9339Y-1768D01*
X9321Y-1752D01*
X9305Y-1732D01*
X9293Y-1711D01*
X9284Y-1688D01*
X9279Y-1664D01*
X9277Y-1640D01*
X9876Y-1803D02*
X9876Y-1312D01*
X10121Y-1312D01*
X10121Y-1394D01*
X10322Y-1517D02*
X10813Y-1517D01*
X11128Y-1517D02*
X11333Y-1599D01*
X11129Y-1516D02*
X11111Y-1507D01*
X11096Y-1496D01*
X11083Y-1481D01*
X11073Y-1464D01*
X11066Y-1446D01*
X11062Y-1426D01*
X11063Y-1407D01*
X11066Y-1388D01*
X11074Y-1370D01*
X11084Y-1353D01*
X11098Y-1339D01*
X11113Y-1327D01*
X11131Y-1319D01*
X11150Y-1314D01*
X11169Y-1312D01*
X11170Y-1312D02*
X11207Y-1314D01*
X11245Y-1319D01*
X11282Y-1328D01*
X11318Y-1339D01*
X11354Y-1353D01*
X11333Y-1599D02*
X11351Y-1608D01*
X11366Y-1619D01*
X11379Y-1634D01*
X11389Y-1651D01*
X11396Y-1669D01*
X11400Y-1689D01*
X11399Y-1708D01*
X11396Y-1727D01*
X11388Y-1745D01*
X11378Y-1762D01*
X11364Y-1776D01*
X11349Y-1788D01*
X11331Y-1796D01*
X11312Y-1801D01*
X11293Y-1803D01*
X11292Y-1804D02*
X11246Y-1802D01*
X11201Y-1797D01*
X11155Y-1788D01*
X11111Y-1777D01*
X11067Y-1763D01*
X11764Y-1803D02*
X11969Y-1803D01*
X11764Y-1804D02*
X11743Y-1802D01*
X11722Y-1797D01*
X11703Y-1788D01*
X11685Y-1775D01*
X11670Y-1760D01*
X11657Y-1743D01*
X11648Y-1723D01*
X11643Y-1702D01*
X11641Y-1681D01*
X11642Y-1681D02*
X11642Y-1476D01*
X11641Y-1476D02*
X11643Y-1452D01*
X11648Y-1428D01*
X11657Y-1405D01*
X11669Y-1384D01*
X11685Y-1364D01*
X11703Y-1348D01*
X11723Y-1334D01*
X11745Y-1323D01*
X11769Y-1316D01*
X11793Y-1312D01*
X11817Y-1312D01*
X11841Y-1316D01*
X11865Y-1323D01*
X11887Y-1334D01*
X11907Y-1348D01*
X11925Y-1364D01*
X11941Y-1384D01*
X11953Y-1405D01*
X11962Y-1428D01*
X11967Y-1452D01*
X11969Y-1476D01*
X11969Y-1558D01*
X11642Y-1558D01*
X12238Y-1803D02*
X12238Y-1312D01*
X12443Y-1312D01*
X12464Y-1314D01*
X12485Y-1319D01*
X12505Y-1328D01*
X12522Y-1341D01*
X12537Y-1356D01*
X12550Y-1374D01*
X12559Y-1393D01*
X12564Y-1414D01*
X12566Y-1435D01*
X12566Y-1803D01*
X12896Y-1517D02*
X13101Y-1599D01*
X12897Y-1516D02*
X12879Y-1507D01*
X12864Y-1496D01*
X12851Y-1481D01*
X12841Y-1464D01*
X12834Y-1446D01*
X12830Y-1426D01*
X12831Y-1407D01*
X12834Y-1388D01*
X12842Y-1370D01*
X12852Y-1353D01*
X12866Y-1339D01*
X12881Y-1327D01*
X12899Y-1319D01*
X12918Y-1314D01*
X12937Y-1312D01*
X12938Y-1312D02*
X12975Y-1314D01*
X13013Y-1319D01*
X13050Y-1328D01*
X13086Y-1339D01*
X13122Y-1353D01*
X13100Y-1599D02*
X13118Y-1608D01*
X13133Y-1619D01*
X13146Y-1634D01*
X13156Y-1651D01*
X13163Y-1669D01*
X13167Y-1689D01*
X13166Y-1708D01*
X13163Y-1727D01*
X13155Y-1745D01*
X13145Y-1762D01*
X13131Y-1776D01*
X13116Y-1788D01*
X13098Y-1796D01*
X13079Y-1801D01*
X13060Y-1803D01*
X13060Y-1804D02*
X13014Y-1802D01*
X12969Y-1797D01*
X12923Y-1788D01*
X12879Y-1777D01*
X12835Y-1763D01*
X13409Y-1640D02*
X13409Y-1476D01*
X13411Y-1452D01*
X13416Y-1428D01*
X13425Y-1405D01*
X13437Y-1384D01*
X13453Y-1364D01*
X13471Y-1348D01*
X13491Y-1334D01*
X13513Y-1323D01*
X13537Y-1316D01*
X13561Y-1312D01*
X13585Y-1312D01*
X13609Y-1316D01*
X13633Y-1323D01*
X13655Y-1334D01*
X13675Y-1348D01*
X13693Y-1364D01*
X13709Y-1384D01*
X13721Y-1405D01*
X13730Y-1428D01*
X13735Y-1452D01*
X13737Y-1476D01*
X13737Y-1640D01*
X13735Y-1664D01*
X13730Y-1688D01*
X13721Y-1711D01*
X13709Y-1732D01*
X13693Y-1752D01*
X13675Y-1768D01*
X13655Y-1782D01*
X13633Y-1793D01*
X13609Y-1800D01*
X13585Y-1804D01*
X13561Y-1804D01*
X13537Y-1800D01*
X13513Y-1793D01*
X13491Y-1782D01*
X13471Y-1768D01*
X13453Y-1752D01*
X13437Y-1732D01*
X13425Y-1711D01*
X13416Y-1688D01*
X13411Y-1664D01*
X13409Y-1640D01*
X14008Y-1803D02*
X14008Y-1312D01*
X14253Y-1312D01*
X14253Y-1394D01*
X14426Y-1885D02*
X14753Y-985D01*
X15002Y-1312D02*
X15002Y-2049D01*
X15002Y-1312D02*
X15207Y-1312D01*
X15228Y-1314D01*
X15249Y-1319D01*
X15269Y-1328D01*
X15286Y-1341D01*
X15301Y-1356D01*
X15314Y-1374D01*
X15323Y-1393D01*
X15328Y-1414D01*
X15330Y-1435D01*
X15329Y-1435D02*
X15329Y-1681D01*
X15330Y-1681D02*
X15328Y-1702D01*
X15323Y-1723D01*
X15314Y-1743D01*
X15301Y-1760D01*
X15286Y-1775D01*
X15269Y-1788D01*
X15249Y-1797D01*
X15228Y-1802D01*
X15207Y-1804D01*
X15207Y-1803D02*
X15002Y-1803D01*
X15698Y-1803D02*
X15862Y-1803D01*
X15698Y-1804D02*
X15677Y-1802D01*
X15656Y-1797D01*
X15637Y-1788D01*
X15619Y-1775D01*
X15604Y-1760D01*
X15591Y-1743D01*
X15582Y-1723D01*
X15577Y-1702D01*
X15575Y-1681D01*
X15575Y-1435D01*
X15577Y-1414D01*
X15582Y-1393D01*
X15591Y-1374D01*
X15604Y-1356D01*
X15619Y-1341D01*
X15636Y-1328D01*
X15656Y-1319D01*
X15677Y-1314D01*
X15698Y-1312D01*
X15862Y-1312D01*
X16107Y-1067D02*
X16107Y-1803D01*
X16311Y-1803D01*
X16311Y-1804D02*
X16332Y-1802D01*
X16353Y-1797D01*
X16372Y-1788D01*
X16390Y-1775D01*
X16405Y-1760D01*
X16418Y-1743D01*
X16427Y-1723D01*
X16432Y-1702D01*
X16434Y-1681D01*
X16434Y-1435D01*
X16432Y-1414D01*
X16427Y-1393D01*
X16418Y-1374D01*
X16405Y-1356D01*
X16390Y-1341D01*
X16373Y-1328D01*
X16353Y-1319D01*
X16332Y-1314D01*
X16311Y-1312D01*
X16107Y-1312D01*
X16686Y-1517D02*
X17177Y-1517D01*
X17757Y-1803D02*
X17757Y-1067D01*
X17757Y-1803D02*
X17552Y-1803D01*
X17552Y-1804D02*
X17531Y-1802D01*
X17510Y-1797D01*
X17491Y-1788D01*
X17473Y-1775D01*
X17458Y-1760D01*
X17445Y-1743D01*
X17436Y-1723D01*
X17431Y-1702D01*
X17429Y-1681D01*
X17429Y-1435D01*
X17431Y-1414D01*
X17436Y-1393D01*
X17445Y-1374D01*
X17458Y-1356D01*
X17473Y-1341D01*
X17490Y-1328D01*
X17510Y-1319D01*
X17531Y-1314D01*
X17552Y-1312D01*
X17757Y-1312D01*
X18150Y-1803D02*
X18355Y-1803D01*
X18150Y-1804D02*
X18129Y-1802D01*
X18108Y-1797D01*
X18089Y-1788D01*
X18071Y-1775D01*
X18056Y-1760D01*
X18043Y-1743D01*
X18034Y-1723D01*
X18029Y-1702D01*
X18027Y-1681D01*
X18028Y-1681D02*
X18028Y-1476D01*
X18027Y-1476D02*
X18029Y-1452D01*
X18034Y-1428D01*
X18043Y-1405D01*
X18055Y-1384D01*
X18071Y-1364D01*
X18089Y-1348D01*
X18109Y-1334D01*
X18131Y-1323D01*
X18155Y-1316D01*
X18179Y-1312D01*
X18203Y-1312D01*
X18227Y-1316D01*
X18251Y-1323D01*
X18273Y-1334D01*
X18293Y-1348D01*
X18311Y-1364D01*
X18327Y-1384D01*
X18339Y-1405D01*
X18348Y-1428D01*
X18353Y-1452D01*
X18355Y-1476D01*
X18355Y-1558D01*
X18028Y-1558D01*
X18663Y-1517D02*
X18868Y-1599D01*
X18664Y-1516D02*
X18646Y-1507D01*
X18631Y-1496D01*
X18618Y-1481D01*
X18608Y-1464D01*
X18601Y-1446D01*
X18597Y-1426D01*
X18598Y-1407D01*
X18601Y-1388D01*
X18609Y-1370D01*
X18619Y-1353D01*
X18633Y-1339D01*
X18648Y-1327D01*
X18666Y-1319D01*
X18685Y-1314D01*
X18704Y-1312D01*
X18705Y-1312D02*
X18742Y-1314D01*
X18780Y-1319D01*
X18817Y-1328D01*
X18853Y-1339D01*
X18889Y-1353D01*
X18868Y-1599D02*
X18886Y-1608D01*
X18901Y-1619D01*
X18914Y-1634D01*
X18924Y-1651D01*
X18931Y-1669D01*
X18935Y-1689D01*
X18934Y-1708D01*
X18931Y-1727D01*
X18923Y-1745D01*
X18913Y-1762D01*
X18899Y-1776D01*
X18884Y-1788D01*
X18866Y-1796D01*
X18847Y-1801D01*
X18828Y-1803D01*
X18827Y-1804D02*
X18781Y-1802D01*
X18736Y-1797D01*
X18690Y-1788D01*
X18646Y-1777D01*
X18602Y-1763D01*
X19186Y-1803D02*
X19186Y-1312D01*
X19165Y-1108D02*
X19165Y-1067D01*
X19206Y-1067D01*
X19206Y-1108D01*
X19165Y-1108D01*
X19563Y-1803D02*
X19767Y-1803D01*
X19563Y-1804D02*
X19542Y-1802D01*
X19521Y-1797D01*
X19502Y-1788D01*
X19484Y-1775D01*
X19469Y-1760D01*
X19456Y-1743D01*
X19447Y-1723D01*
X19442Y-1702D01*
X19440Y-1681D01*
X19440Y-1435D01*
X19442Y-1414D01*
X19447Y-1393D01*
X19456Y-1374D01*
X19469Y-1356D01*
X19484Y-1341D01*
X19501Y-1328D01*
X19521Y-1319D01*
X19542Y-1314D01*
X19563Y-1312D01*
X19767Y-1312D01*
X19767Y-1926D01*
X19768Y-1926D02*
X19766Y-1947D01*
X19761Y-1968D01*
X19752Y-1988D01*
X19739Y-2005D01*
X19724Y-2020D01*
X19707Y-2033D01*
X19687Y-2042D01*
X19666Y-2047D01*
X19645Y-2049D01*
X19481Y-2049D01*
X20060Y-1803D02*
X20060Y-1312D01*
X20265Y-1312D01*
X20286Y-1314D01*
X20307Y-1319D01*
X20327Y-1328D01*
X20344Y-1341D01*
X20359Y-1356D01*
X20372Y-1374D01*
X20381Y-1393D01*
X20386Y-1414D01*
X20388Y-1435D01*
X20388Y-1803D01*
X20635Y-1885D02*
X20962Y-985D01*
X21211Y-1312D02*
X21211Y-2049D01*
X21211Y-1312D02*
X21416Y-1312D01*
X21437Y-1314D01*
X21458Y-1319D01*
X21478Y-1328D01*
X21495Y-1341D01*
X21510Y-1356D01*
X21523Y-1374D01*
X21532Y-1393D01*
X21537Y-1414D01*
X21539Y-1435D01*
X21539Y-1681D01*
X21537Y-1702D01*
X21532Y-1723D01*
X21523Y-1743D01*
X21510Y-1760D01*
X21495Y-1775D01*
X21478Y-1788D01*
X21458Y-1797D01*
X21437Y-1802D01*
X21416Y-1804D01*
X21416Y-1803D02*
X21211Y-1803D01*
X21907Y-1803D02*
X22071Y-1803D01*
X21907Y-1804D02*
X21886Y-1802D01*
X21865Y-1797D01*
X21846Y-1788D01*
X21828Y-1775D01*
X21813Y-1760D01*
X21800Y-1743D01*
X21791Y-1723D01*
X21786Y-1702D01*
X21784Y-1681D01*
X21784Y-1435D01*
X21786Y-1414D01*
X21791Y-1393D01*
X21800Y-1374D01*
X21813Y-1356D01*
X21828Y-1341D01*
X21845Y-1328D01*
X21865Y-1319D01*
X21886Y-1314D01*
X21907Y-1312D01*
X22071Y-1312D01*
X22316Y-1067D02*
X22316Y-1803D01*
X22521Y-1803D01*
X22521Y-1804D02*
X22542Y-1802D01*
X22563Y-1797D01*
X22582Y-1788D01*
X22600Y-1775D01*
X22615Y-1760D01*
X22628Y-1743D01*
X22637Y-1723D01*
X22642Y-1702D01*
X22644Y-1681D01*
X22643Y-1681D02*
X22643Y-1435D01*
X22644Y-1435D02*
X22642Y-1414D01*
X22637Y-1393D01*
X22628Y-1374D01*
X22615Y-1356D01*
X22600Y-1341D01*
X22583Y-1328D01*
X22563Y-1319D01*
X22542Y-1314D01*
X22521Y-1312D01*
X22316Y-1312D01*
X22867Y-1885D02*
X23194Y-1885D01*
X23434Y-1681D02*
X23434Y-1067D01*
X23434Y-1681D02*
X23436Y-1702D01*
X23441Y-1723D01*
X23450Y-1743D01*
X23463Y-1760D01*
X23478Y-1775D01*
X23496Y-1788D01*
X23515Y-1797D01*
X23536Y-1802D01*
X23557Y-1804D01*
X23773Y-1640D02*
X23773Y-1476D01*
X23772Y-1476D02*
X23774Y-1452D01*
X23779Y-1428D01*
X23788Y-1405D01*
X23800Y-1384D01*
X23816Y-1364D01*
X23834Y-1348D01*
X23854Y-1334D01*
X23876Y-1323D01*
X23900Y-1316D01*
X23924Y-1312D01*
X23948Y-1312D01*
X23972Y-1316D01*
X23996Y-1323D01*
X24018Y-1334D01*
X24038Y-1348D01*
X24056Y-1364D01*
X24072Y-1384D01*
X24084Y-1405D01*
X24093Y-1428D01*
X24098Y-1452D01*
X24100Y-1476D01*
X24100Y-1640D01*
X24098Y-1664D01*
X24093Y-1688D01*
X24084Y-1711D01*
X24072Y-1732D01*
X24056Y-1752D01*
X24038Y-1768D01*
X24018Y-1782D01*
X23996Y-1793D01*
X23972Y-1800D01*
X23948Y-1804D01*
X23924Y-1804D01*
X23900Y-1800D01*
X23876Y-1793D01*
X23854Y-1782D01*
X23834Y-1768D01*
X23816Y-1752D01*
X23800Y-1732D01*
X23788Y-1711D01*
X23779Y-1688D01*
X23774Y-1664D01*
X23772Y-1640D01*
X24468Y-1803D02*
X24673Y-1803D01*
X24468Y-1804D02*
X24447Y-1802D01*
X24426Y-1797D01*
X24407Y-1788D01*
X24389Y-1775D01*
X24374Y-1760D01*
X24361Y-1743D01*
X24352Y-1723D01*
X24347Y-1702D01*
X24345Y-1681D01*
X24345Y-1435D01*
X24347Y-1414D01*
X24352Y-1393D01*
X24361Y-1374D01*
X24374Y-1356D01*
X24389Y-1341D01*
X24406Y-1328D01*
X24426Y-1319D01*
X24447Y-1314D01*
X24468Y-1312D01*
X24673Y-1312D01*
X24673Y-1926D01*
X24671Y-1947D01*
X24666Y-1968D01*
X24657Y-1988D01*
X24644Y-2005D01*
X24629Y-2020D01*
X24612Y-2033D01*
X24592Y-2042D01*
X24571Y-2047D01*
X24550Y-2049D01*
X24386Y-2049D01*
X24944Y-1640D02*
X24944Y-1476D01*
X24943Y-1476D02*
X24945Y-1452D01*
X24950Y-1428D01*
X24959Y-1405D01*
X24971Y-1384D01*
X24987Y-1364D01*
X25005Y-1348D01*
X25025Y-1334D01*
X25047Y-1323D01*
X25071Y-1316D01*
X25095Y-1312D01*
X25119Y-1312D01*
X25143Y-1316D01*
X25167Y-1323D01*
X25189Y-1334D01*
X25209Y-1348D01*
X25227Y-1364D01*
X25243Y-1384D01*
X25255Y-1405D01*
X25264Y-1428D01*
X25269Y-1452D01*
X25271Y-1476D01*
X25271Y-1640D01*
X25269Y-1664D01*
X25264Y-1688D01*
X25255Y-1711D01*
X25243Y-1732D01*
X25227Y-1752D01*
X25209Y-1768D01*
X25189Y-1782D01*
X25167Y-1793D01*
X25143Y-1800D01*
X25119Y-1804D01*
X25095Y-1804D01*
X25071Y-1800D01*
X25047Y-1793D01*
X25025Y-1782D01*
X25005Y-1768D01*
X24987Y-1752D01*
X24971Y-1732D01*
X24959Y-1711D01*
X24950Y-1688D01*
X24945Y-1664D01*
X24943Y-1640D01*
X25507Y-1763D02*
X25507Y-1803D01*
X25507Y-1763D02*
X25548Y-1763D01*
X25548Y-1803D01*
X25507Y-1803D01*
X25807Y-1803D02*
X25807Y-1067D01*
X25807Y-1803D02*
X26012Y-1803D01*
X26012Y-1804D02*
X26033Y-1802D01*
X26054Y-1797D01*
X26073Y-1788D01*
X26091Y-1775D01*
X26106Y-1760D01*
X26119Y-1743D01*
X26128Y-1723D01*
X26133Y-1702D01*
X26135Y-1681D01*
X26135Y-1435D01*
X26133Y-1414D01*
X26128Y-1393D01*
X26119Y-1374D01*
X26106Y-1356D01*
X26091Y-1341D01*
X26074Y-1328D01*
X26054Y-1319D01*
X26033Y-1314D01*
X26012Y-1312D01*
X25807Y-1312D01*
X26409Y-1312D02*
X26409Y-1803D01*
X26409Y-1312D02*
X26777Y-1312D01*
X26798Y-1314D01*
X26819Y-1319D01*
X26839Y-1328D01*
X26856Y-1341D01*
X26871Y-1356D01*
X26884Y-1374D01*
X26893Y-1393D01*
X26898Y-1414D01*
X26900Y-1435D01*
X26900Y-1803D01*
X26654Y-1803D02*
X26654Y-1312D01*
X27199Y-1312D02*
X27199Y-2049D01*
X27199Y-1312D02*
X27404Y-1312D01*
X27425Y-1314D01*
X27446Y-1319D01*
X27466Y-1328D01*
X27483Y-1341D01*
X27498Y-1356D01*
X27511Y-1374D01*
X27520Y-1393D01*
X27525Y-1414D01*
X27527Y-1435D01*
X27527Y-1681D01*
X27525Y-1702D01*
X27520Y-1723D01*
X27511Y-1743D01*
X27498Y-1760D01*
X27483Y-1775D01*
X27466Y-1788D01*
X27446Y-1797D01*
X27425Y-1802D01*
X27404Y-1804D01*
X27404Y-1803D02*
X27199Y-1803D01*
D102*
X622300Y584200D02*
X622300Y596900D01*
X622300Y584200D02*
X622300Y571500D01*
X647700Y571500D02*
X647700Y584200D01*
X647700Y596900D01*
X626110Y571500D02*
X622300Y571500D01*
X643890Y571500D02*
X647700Y571500D01*
X647700Y596900D02*
X643890Y596900D01*
X626110Y596900D02*
X622300Y596900D01*
X647700Y584200D02*
X647696Y583893D01*
X647685Y583585D01*
X647667Y583278D01*
X647640Y582972D01*
X647607Y582666D01*
X647566Y582361D01*
X647518Y582058D01*
X647462Y581755D01*
X647400Y581454D01*
X647329Y581155D01*
X647252Y580857D01*
X647168Y580561D01*
X647076Y580268D01*
X646977Y579976D01*
X646871Y579688D01*
X646759Y579402D01*
X646639Y579118D01*
X646512Y578838D01*
X646379Y578561D01*
X646239Y578287D01*
X646093Y578016D01*
X645940Y577750D01*
X645780Y577487D01*
X645615Y577227D01*
X645443Y576972D01*
X645265Y576722D01*
X645081Y576475D01*
X644891Y576233D01*
X644695Y575996D01*
X644493Y575764D01*
X644286Y575537D01*
X644074Y575314D01*
X643856Y575097D01*
X643633Y574885D01*
X643405Y574679D01*
X643172Y574478D01*
X642934Y574283D01*
X647700Y584200D02*
X647696Y584507D01*
X647685Y584815D01*
X647667Y585122D01*
X647640Y585428D01*
X647607Y585734D01*
X647566Y586039D01*
X647518Y586342D01*
X647462Y586645D01*
X647400Y586946D01*
X647329Y587245D01*
X647252Y587543D01*
X647168Y587839D01*
X647076Y588132D01*
X646977Y588424D01*
X646871Y588712D01*
X646759Y588998D01*
X646639Y589282D01*
X646512Y589562D01*
X646379Y589839D01*
X646239Y590113D01*
X646093Y590384D01*
X645940Y590650D01*
X645780Y590913D01*
X645615Y591173D01*
X645443Y591428D01*
X645265Y591678D01*
X645081Y591925D01*
X644891Y592167D01*
X644695Y592404D01*
X644493Y592636D01*
X644286Y592863D01*
X644074Y593086D01*
X643856Y593303D01*
X643633Y593515D01*
X643405Y593721D01*
X643172Y593922D01*
X642934Y594117D01*
X622300Y584200D02*
X622304Y583893D01*
X622315Y583585D01*
X622333Y583278D01*
X622360Y582972D01*
X622393Y582666D01*
X622434Y582361D01*
X622482Y582058D01*
X622538Y581755D01*
X622600Y581454D01*
X622671Y581155D01*
X622748Y580857D01*
X622832Y580561D01*
X622924Y580268D01*
X623023Y579976D01*
X623129Y579688D01*
X623241Y579402D01*
X623361Y579118D01*
X623488Y578838D01*
X623621Y578561D01*
X623761Y578287D01*
X623907Y578016D01*
X624060Y577750D01*
X624220Y577487D01*
X624385Y577227D01*
X624557Y576972D01*
X624735Y576722D01*
X624919Y576475D01*
X625109Y576233D01*
X625305Y575996D01*
X625507Y575764D01*
X625714Y575537D01*
X625926Y575314D01*
X626144Y575097D01*
X626367Y574885D01*
X626595Y574679D01*
X626828Y574478D01*
X627066Y574283D01*
X622300Y584200D02*
X622304Y584507D01*
X622315Y584815D01*
X622333Y585122D01*
X622360Y585428D01*
X622393Y585734D01*
X622434Y586039D01*
X622482Y586342D01*
X622538Y586645D01*
X622600Y586946D01*
X622671Y587245D01*
X622748Y587543D01*
X622832Y587839D01*
X622924Y588132D01*
X623023Y588424D01*
X623129Y588712D01*
X623241Y588998D01*
X623361Y589282D01*
X623488Y589562D01*
X623621Y589839D01*
X623761Y590113D01*
X623907Y590384D01*
X624060Y590650D01*
X624220Y590913D01*
X624385Y591173D01*
X624557Y591428D01*
X624735Y591678D01*
X624919Y591925D01*
X625109Y592167D01*
X625305Y592404D01*
X625507Y592636D01*
X625714Y592863D01*
X625926Y593086D01*
X626144Y593303D01*
X626367Y593515D01*
X626595Y593721D01*
X626828Y593922D01*
X627066Y594117D01*
X629920Y584200D02*
X629922Y584060D01*
X629928Y583920D01*
X629937Y583780D01*
X629951Y583641D01*
X629968Y583502D01*
X629989Y583364D01*
X630014Y583226D01*
X630043Y583089D01*
X630075Y582953D01*
X630112Y582818D01*
X630152Y582684D01*
X630195Y582551D01*
X630243Y582419D01*
X630293Y582288D01*
X630348Y582159D01*
X630406Y582032D01*
X630467Y581906D01*
X630532Y581782D01*
X630601Y581660D01*
X630672Y581540D01*
X630747Y581422D01*
X630825Y581305D01*
X630907Y581191D01*
X630991Y581080D01*
X631079Y580971D01*
X631169Y580864D01*
X631263Y580759D01*
X631359Y580658D01*
X631458Y580559D01*
X631559Y580463D01*
X631664Y580369D01*
X631771Y580279D01*
X631880Y580191D01*
X631991Y580107D01*
X632105Y580025D01*
X632222Y579947D01*
X632340Y579872D01*
X632460Y579801D01*
X632582Y579732D01*
X632706Y579667D01*
X632832Y579606D01*
X632959Y579548D01*
X633088Y579493D01*
X633219Y579443D01*
X633351Y579395D01*
X633484Y579352D01*
X633618Y579312D01*
X633753Y579275D01*
X633889Y579243D01*
X634026Y579214D01*
X634164Y579189D01*
X634302Y579168D01*
X634441Y579151D01*
X634580Y579137D01*
X634720Y579128D01*
X634860Y579122D01*
X635000Y579120D01*
D103*
X635000Y564515D03*
D10*
X654304Y561594D02*
X654304Y560070D01*
X654304Y561594D02*
X659384Y561594D01*
X659384Y558546D01*
X659382Y558457D01*
X659376Y558369D01*
X659367Y558281D01*
X659353Y558193D01*
X659336Y558106D01*
X659315Y558020D01*
X659290Y557935D01*
X659261Y557851D01*
X659229Y557768D01*
X659194Y557687D01*
X659154Y557608D01*
X659112Y557530D01*
X659066Y557454D01*
X659017Y557380D01*
X658964Y557309D01*
X658909Y557240D01*
X658850Y557173D01*
X658789Y557109D01*
X658725Y557048D01*
X658658Y556989D01*
X658589Y556934D01*
X658518Y556881D01*
X658444Y556832D01*
X658368Y556786D01*
X658290Y556744D01*
X658211Y556704D01*
X658130Y556669D01*
X658047Y556637D01*
X657963Y556608D01*
X657878Y556583D01*
X657792Y556562D01*
X657705Y556545D01*
X657617Y556531D01*
X657529Y556522D01*
X657441Y556516D01*
X657352Y556514D01*
X652272Y556514D01*
X652183Y556516D01*
X652095Y556522D01*
X652007Y556531D01*
X651919Y556545D01*
X651832Y556562D01*
X651746Y556583D01*
X651661Y556608D01*
X651577Y556637D01*
X651494Y556669D01*
X651413Y556704D01*
X651334Y556744D01*
X651256Y556786D01*
X651180Y556832D01*
X651106Y556881D01*
X651035Y556934D01*
X650966Y556989D01*
X650899Y557048D01*
X650835Y557109D01*
X650774Y557173D01*
X650715Y557240D01*
X650660Y557309D01*
X650607Y557380D01*
X650558Y557454D01*
X650512Y557530D01*
X650470Y557608D01*
X650430Y557687D01*
X650395Y557768D01*
X650363Y557851D01*
X650334Y557935D01*
X650309Y558020D01*
X650288Y558106D01*
X650271Y558193D01*
X650257Y558281D01*
X650248Y558369D01*
X650242Y558457D01*
X650240Y558546D01*
X650240Y561594D01*
X650240Y566334D02*
X659384Y566334D01*
X650240Y566334D02*
X650240Y568874D01*
X650242Y568974D01*
X650248Y569073D01*
X650258Y569173D01*
X650271Y569271D01*
X650289Y569370D01*
X650310Y569467D01*
X650335Y569563D01*
X650364Y569659D01*
X650397Y569753D01*
X650433Y569846D01*
X650473Y569937D01*
X650517Y570027D01*
X650564Y570115D01*
X650614Y570201D01*
X650668Y570285D01*
X650725Y570367D01*
X650785Y570446D01*
X650849Y570524D01*
X650915Y570598D01*
X650984Y570670D01*
X651056Y570739D01*
X651130Y570805D01*
X651208Y570869D01*
X651287Y570929D01*
X651369Y570986D01*
X651453Y571040D01*
X651539Y571090D01*
X651627Y571137D01*
X651717Y571181D01*
X651808Y571221D01*
X651901Y571257D01*
X651995Y571290D01*
X652091Y571319D01*
X652187Y571344D01*
X652284Y571365D01*
X652383Y571383D01*
X652481Y571396D01*
X652581Y571406D01*
X652680Y571412D01*
X652780Y571414D01*
X652880Y571412D01*
X652979Y571406D01*
X653079Y571396D01*
X653177Y571383D01*
X653276Y571365D01*
X653373Y571344D01*
X653469Y571319D01*
X653565Y571290D01*
X653659Y571257D01*
X653752Y571221D01*
X653843Y571181D01*
X653933Y571137D01*
X654021Y571090D01*
X654107Y571040D01*
X654191Y570986D01*
X654273Y570929D01*
X654352Y570869D01*
X654430Y570805D01*
X654504Y570739D01*
X654576Y570670D01*
X654645Y570598D01*
X654711Y570524D01*
X654775Y570446D01*
X654835Y570367D01*
X654892Y570285D01*
X654946Y570201D01*
X654996Y570115D01*
X655043Y570027D01*
X655087Y569937D01*
X655127Y569846D01*
X655163Y569753D01*
X655196Y569659D01*
X655225Y569563D01*
X655250Y569467D01*
X655271Y569370D01*
X655289Y569271D01*
X655302Y569173D01*
X655312Y569073D01*
X655318Y568974D01*
X655320Y568874D01*
X655320Y566334D01*
X655320Y569382D02*
X659384Y571414D01*
X659384Y575737D02*
X659384Y579801D01*
X659384Y575737D02*
X650240Y575737D01*
X650240Y579801D01*
X654304Y578785D02*
X654304Y575737D01*
X659384Y583662D02*
X659384Y587726D01*
X659384Y583662D02*
X650240Y583662D01*
X650240Y587726D01*
X654304Y586710D02*
X654304Y583662D01*
X650240Y591566D02*
X659384Y591566D01*
X659384Y596646D02*
X650240Y591566D01*
X650240Y596646D02*
X659384Y596646D01*
D102*
X895350Y508000D02*
X901700Y501650D01*
X901700Y488950D01*
X895350Y482600D01*
X882650Y482600D01*
X876300Y488950D01*
X876300Y501650D01*
X882650Y508000D01*
X901700Y539750D02*
X901700Y552450D01*
X901700Y539750D02*
X895350Y533400D01*
X882650Y533400D01*
X876300Y539750D01*
X895350Y533400D02*
X901700Y527050D01*
X901700Y514350D01*
X895350Y508000D01*
X882650Y508000D01*
X876300Y514350D01*
X876300Y527050D01*
X882650Y533400D01*
X901700Y577850D02*
X895350Y584200D01*
X901700Y577850D02*
X901700Y565150D01*
X895350Y558800D01*
X882650Y558800D01*
X876300Y565150D01*
X876300Y577850D01*
X882650Y584200D01*
X895350Y558800D02*
X901700Y552450D01*
X882650Y558800D02*
X876300Y552450D01*
X876300Y539750D01*
X901700Y615950D02*
X901700Y628650D01*
X901700Y615950D02*
X895350Y609600D01*
X882650Y609600D01*
X876300Y615950D01*
X895350Y609600D02*
X901700Y603250D01*
X901700Y590550D01*
X895350Y584200D01*
X882650Y584200D01*
X876300Y590550D01*
X876300Y603250D01*
X882650Y609600D01*
X901700Y654050D02*
X895350Y660400D01*
X901700Y654050D02*
X901700Y641350D01*
X895350Y635000D01*
X882650Y635000D01*
X876300Y641350D01*
X876300Y654050D01*
X882650Y660400D01*
X895350Y635000D02*
X901700Y628650D01*
X882650Y635000D02*
X876300Y628650D01*
X876300Y615950D01*
X901700Y692150D02*
X901700Y704850D01*
X901700Y692150D02*
X895350Y685800D01*
X882650Y685800D01*
X876300Y692150D01*
X895350Y685800D02*
X901700Y679450D01*
X901700Y666750D01*
X895350Y660400D01*
X882650Y660400D01*
X876300Y666750D01*
X876300Y679450D01*
X882650Y685800D01*
X901700Y730250D02*
X895350Y736600D01*
X901700Y730250D02*
X901700Y717550D01*
X895350Y711200D01*
X882650Y711200D01*
X876300Y717550D01*
X876300Y730250D01*
X882650Y736600D01*
X895350Y711200D02*
X901700Y704850D01*
X882650Y711200D02*
X876300Y704850D01*
X876300Y692150D01*
X901700Y768350D02*
X901700Y781050D01*
X901700Y768350D02*
X895350Y762000D01*
X882650Y762000D01*
X876300Y768350D01*
X895350Y762000D02*
X901700Y755650D01*
X901700Y742950D01*
X895350Y736600D01*
X882650Y736600D01*
X876300Y742950D01*
X876300Y755650D01*
X882650Y762000D01*
X901700Y806450D02*
X895350Y812800D01*
X901700Y806450D02*
X901700Y793750D01*
X895350Y787400D01*
X882650Y787400D01*
X876300Y793750D01*
X876300Y806450D01*
X882650Y812800D01*
X895350Y787400D02*
X901700Y781050D01*
X882650Y787400D02*
X876300Y781050D01*
X876300Y768350D01*
X901700Y844550D02*
X901700Y857250D01*
X901700Y844550D02*
X895350Y838200D01*
X882650Y838200D01*
X876300Y844550D01*
X895350Y838200D02*
X901700Y831850D01*
X901700Y819150D01*
X895350Y812800D01*
X882650Y812800D01*
X876300Y819150D01*
X876300Y831850D01*
X882650Y838200D01*
X882650Y863600D02*
X895350Y863600D01*
X901700Y857250D01*
X882650Y863600D02*
X876300Y857250D01*
X876300Y844550D01*
X895350Y482600D02*
X901700Y476250D01*
X901700Y463550D01*
X895350Y457200D01*
X882650Y457200D01*
X876300Y463550D01*
X876300Y476250D01*
X882650Y482600D01*
D104*
X907923Y840538D02*
X916813Y840538D01*
X916913Y840536D01*
X917012Y840530D01*
X917112Y840520D01*
X917210Y840507D01*
X917309Y840489D01*
X917406Y840468D01*
X917502Y840443D01*
X917598Y840414D01*
X917692Y840381D01*
X917785Y840345D01*
X917876Y840305D01*
X917966Y840261D01*
X918054Y840214D01*
X918140Y840164D01*
X918224Y840110D01*
X918306Y840053D01*
X918385Y839993D01*
X918463Y839929D01*
X918537Y839863D01*
X918609Y839794D01*
X918678Y839722D01*
X918744Y839648D01*
X918808Y839570D01*
X918868Y839491D01*
X918925Y839409D01*
X918979Y839325D01*
X919029Y839239D01*
X919076Y839151D01*
X919120Y839061D01*
X919160Y838970D01*
X919196Y838877D01*
X919229Y838783D01*
X919258Y838687D01*
X919283Y838591D01*
X919304Y838494D01*
X919322Y838395D01*
X919335Y838297D01*
X919345Y838197D01*
X919351Y838098D01*
X919353Y837998D01*
X919353Y836728D01*
X919353Y846519D02*
X907923Y846519D01*
X907923Y849694D01*
X907925Y849805D01*
X907931Y849915D01*
X907940Y850026D01*
X907954Y850136D01*
X907971Y850245D01*
X907992Y850354D01*
X908017Y850462D01*
X908046Y850569D01*
X908078Y850675D01*
X908114Y850780D01*
X908154Y850883D01*
X908197Y850985D01*
X908244Y851086D01*
X908295Y851185D01*
X908348Y851282D01*
X908405Y851376D01*
X908466Y851469D01*
X908529Y851560D01*
X908596Y851649D01*
X908666Y851735D01*
X908739Y851818D01*
X908814Y851900D01*
X908892Y851978D01*
X908974Y852053D01*
X909057Y852126D01*
X909143Y852196D01*
X909232Y852263D01*
X909323Y852326D01*
X909416Y852387D01*
X909511Y852444D01*
X909607Y852497D01*
X909706Y852548D01*
X909807Y852595D01*
X909909Y852638D01*
X910012Y852678D01*
X910117Y852714D01*
X910223Y852746D01*
X910330Y852775D01*
X910438Y852800D01*
X910547Y852821D01*
X910656Y852838D01*
X910766Y852852D01*
X910877Y852861D01*
X910987Y852867D01*
X911098Y852869D01*
X911209Y852867D01*
X911319Y852861D01*
X911430Y852852D01*
X911540Y852838D01*
X911649Y852821D01*
X911758Y852800D01*
X911866Y852775D01*
X911973Y852746D01*
X912079Y852714D01*
X912184Y852678D01*
X912287Y852638D01*
X912389Y852595D01*
X912490Y852548D01*
X912589Y852497D01*
X912686Y852444D01*
X912780Y852387D01*
X912873Y852326D01*
X912964Y852263D01*
X913053Y852196D01*
X913139Y852126D01*
X913222Y852053D01*
X913304Y851978D01*
X913382Y851900D01*
X913457Y851818D01*
X913530Y851735D01*
X913600Y851649D01*
X913667Y851560D01*
X913730Y851469D01*
X913791Y851376D01*
X913848Y851282D01*
X913901Y851185D01*
X913952Y851086D01*
X913999Y850985D01*
X914042Y850883D01*
X914082Y850780D01*
X914118Y850675D01*
X914150Y850569D01*
X914179Y850462D01*
X914204Y850354D01*
X914225Y850245D01*
X914242Y850136D01*
X914256Y850026D01*
X914265Y849915D01*
X914271Y849805D01*
X914273Y849694D01*
X914273Y846519D01*
X910463Y857377D02*
X907923Y860552D01*
X919353Y860552D01*
X919353Y857377D02*
X919353Y863727D01*
D102*
X692150Y508000D02*
X698500Y501650D01*
X698500Y488950D01*
X692150Y482600D01*
X679450Y482600D01*
X673100Y488950D01*
X673100Y501650D01*
X679450Y508000D01*
X698500Y539750D02*
X698500Y552450D01*
X698500Y539750D02*
X692150Y533400D01*
X679450Y533400D01*
X673100Y539750D01*
X692150Y533400D02*
X698500Y527050D01*
X698500Y514350D01*
X692150Y508000D01*
X679450Y508000D01*
X673100Y514350D01*
X673100Y527050D01*
X679450Y533400D01*
X698500Y577850D02*
X692150Y584200D01*
X698500Y577850D02*
X698500Y565150D01*
X692150Y558800D01*
X679450Y558800D01*
X673100Y565150D01*
X673100Y577850D01*
X679450Y584200D01*
X692150Y558800D02*
X698500Y552450D01*
X679450Y558800D02*
X673100Y552450D01*
X673100Y539750D01*
X698500Y615950D02*
X698500Y628650D01*
X698500Y615950D02*
X692150Y609600D01*
X679450Y609600D01*
X673100Y615950D01*
X692150Y609600D02*
X698500Y603250D01*
X698500Y590550D01*
X692150Y584200D01*
X679450Y584200D01*
X673100Y590550D01*
X673100Y603250D01*
X679450Y609600D01*
X698500Y654050D02*
X692150Y660400D01*
X698500Y654050D02*
X698500Y641350D01*
X692150Y635000D01*
X679450Y635000D01*
X673100Y641350D01*
X673100Y654050D01*
X679450Y660400D01*
X692150Y635000D02*
X698500Y628650D01*
X679450Y635000D02*
X673100Y628650D01*
X673100Y615950D01*
X698500Y692150D02*
X698500Y704850D01*
X698500Y692150D02*
X692150Y685800D01*
X679450Y685800D01*
X673100Y692150D01*
X692150Y685800D02*
X698500Y679450D01*
X698500Y666750D01*
X692150Y660400D01*
X679450Y660400D01*
X673100Y666750D01*
X673100Y679450D01*
X679450Y685800D01*
X698500Y730250D02*
X692150Y736600D01*
X698500Y730250D02*
X698500Y717550D01*
X692150Y711200D01*
X679450Y711200D01*
X673100Y717550D01*
X673100Y730250D01*
X679450Y736600D01*
X692150Y711200D02*
X698500Y704850D01*
X679450Y711200D02*
X673100Y704850D01*
X673100Y692150D01*
X698500Y768350D02*
X698500Y781050D01*
X698500Y768350D02*
X692150Y762000D01*
X679450Y762000D01*
X673100Y768350D01*
X692150Y762000D02*
X698500Y755650D01*
X698500Y742950D01*
X692150Y736600D01*
X679450Y736600D01*
X673100Y742950D01*
X673100Y755650D01*
X679450Y762000D01*
X698500Y806450D02*
X692150Y812800D01*
X698500Y806450D02*
X698500Y793750D01*
X692150Y787400D01*
X679450Y787400D01*
X673100Y793750D01*
X673100Y806450D01*
X679450Y812800D01*
X692150Y787400D02*
X698500Y781050D01*
X679450Y787400D02*
X673100Y781050D01*
X673100Y768350D01*
X698500Y844550D02*
X698500Y857250D01*
X698500Y844550D02*
X692150Y838200D01*
X679450Y838200D01*
X673100Y844550D01*
X692150Y838200D02*
X698500Y831850D01*
X698500Y819150D01*
X692150Y812800D01*
X679450Y812800D01*
X673100Y819150D01*
X673100Y831850D01*
X679450Y838200D01*
X679450Y863600D02*
X692150Y863600D01*
X698500Y857250D01*
X679450Y863600D02*
X673100Y857250D01*
X673100Y844550D01*
X692150Y482600D02*
X698500Y476250D01*
X698500Y463550D01*
X692150Y457200D01*
X679450Y457200D01*
X673100Y463550D01*
X673100Y476250D01*
X679450Y482600D01*
D104*
X704723Y840538D02*
X713613Y840538D01*
X713713Y840536D01*
X713812Y840530D01*
X713912Y840520D01*
X714010Y840507D01*
X714109Y840489D01*
X714206Y840468D01*
X714302Y840443D01*
X714398Y840414D01*
X714492Y840381D01*
X714585Y840345D01*
X714676Y840305D01*
X714766Y840261D01*
X714854Y840214D01*
X714940Y840164D01*
X715024Y840110D01*
X715106Y840053D01*
X715185Y839993D01*
X715263Y839929D01*
X715337Y839863D01*
X715409Y839794D01*
X715478Y839722D01*
X715544Y839648D01*
X715608Y839570D01*
X715668Y839491D01*
X715725Y839409D01*
X715779Y839325D01*
X715829Y839239D01*
X715876Y839151D01*
X715920Y839061D01*
X715960Y838970D01*
X715996Y838877D01*
X716029Y838783D01*
X716058Y838687D01*
X716083Y838591D01*
X716104Y838494D01*
X716122Y838395D01*
X716135Y838297D01*
X716145Y838197D01*
X716151Y838098D01*
X716153Y837998D01*
X716153Y836728D01*
X716153Y846519D02*
X704723Y846519D01*
X704723Y849694D01*
X704725Y849805D01*
X704731Y849915D01*
X704740Y850026D01*
X704754Y850136D01*
X704771Y850245D01*
X704792Y850354D01*
X704817Y850462D01*
X704846Y850569D01*
X704878Y850675D01*
X704914Y850780D01*
X704954Y850883D01*
X704997Y850985D01*
X705044Y851086D01*
X705095Y851185D01*
X705148Y851282D01*
X705205Y851376D01*
X705266Y851469D01*
X705329Y851560D01*
X705396Y851649D01*
X705466Y851735D01*
X705539Y851818D01*
X705614Y851900D01*
X705692Y851978D01*
X705774Y852053D01*
X705857Y852126D01*
X705943Y852196D01*
X706032Y852263D01*
X706123Y852326D01*
X706216Y852387D01*
X706311Y852444D01*
X706407Y852497D01*
X706506Y852548D01*
X706607Y852595D01*
X706709Y852638D01*
X706812Y852678D01*
X706917Y852714D01*
X707023Y852746D01*
X707130Y852775D01*
X707238Y852800D01*
X707347Y852821D01*
X707456Y852838D01*
X707566Y852852D01*
X707677Y852861D01*
X707787Y852867D01*
X707898Y852869D01*
X708009Y852867D01*
X708119Y852861D01*
X708230Y852852D01*
X708340Y852838D01*
X708449Y852821D01*
X708558Y852800D01*
X708666Y852775D01*
X708773Y852746D01*
X708879Y852714D01*
X708984Y852678D01*
X709087Y852638D01*
X709189Y852595D01*
X709290Y852548D01*
X709389Y852497D01*
X709486Y852444D01*
X709580Y852387D01*
X709673Y852326D01*
X709764Y852263D01*
X709853Y852196D01*
X709939Y852126D01*
X710022Y852053D01*
X710104Y851978D01*
X710182Y851900D01*
X710257Y851818D01*
X710330Y851735D01*
X710400Y851649D01*
X710467Y851560D01*
X710530Y851469D01*
X710591Y851376D01*
X710648Y851282D01*
X710701Y851185D01*
X710752Y851086D01*
X710799Y850985D01*
X710842Y850883D01*
X710882Y850780D01*
X710918Y850675D01*
X710950Y850569D01*
X710979Y850462D01*
X711004Y850354D01*
X711025Y850245D01*
X711042Y850136D01*
X711056Y850026D01*
X711065Y849915D01*
X711071Y849805D01*
X711073Y849694D01*
X711073Y846519D01*
X704723Y860870D02*
X704725Y860974D01*
X704731Y861079D01*
X704740Y861183D01*
X704753Y861286D01*
X704771Y861389D01*
X704791Y861491D01*
X704816Y861593D01*
X704844Y861693D01*
X704876Y861793D01*
X704912Y861891D01*
X704951Y861988D01*
X704993Y862083D01*
X705039Y862177D01*
X705089Y862269D01*
X705141Y862359D01*
X705197Y862447D01*
X705257Y862533D01*
X705319Y862617D01*
X705384Y862698D01*
X705452Y862777D01*
X705524Y862854D01*
X705597Y862927D01*
X705674Y862999D01*
X705753Y863067D01*
X705834Y863132D01*
X705918Y863194D01*
X706004Y863254D01*
X706092Y863310D01*
X706182Y863362D01*
X706274Y863412D01*
X706368Y863458D01*
X706463Y863500D01*
X706560Y863539D01*
X706658Y863575D01*
X706758Y863607D01*
X706858Y863635D01*
X706960Y863660D01*
X707062Y863680D01*
X707165Y863698D01*
X707268Y863711D01*
X707372Y863720D01*
X707477Y863726D01*
X707581Y863728D01*
X704723Y860870D02*
X704725Y860752D01*
X704731Y860633D01*
X704740Y860515D01*
X704753Y860398D01*
X704771Y860281D01*
X704791Y860164D01*
X704816Y860048D01*
X704844Y859933D01*
X704877Y859820D01*
X704912Y859707D01*
X704952Y859595D01*
X704994Y859485D01*
X705041Y859376D01*
X705091Y859268D01*
X705144Y859163D01*
X705201Y859059D01*
X705261Y858957D01*
X705324Y858857D01*
X705391Y858759D01*
X705460Y858663D01*
X705533Y858570D01*
X705609Y858479D01*
X705687Y858390D01*
X705769Y858304D01*
X705853Y858221D01*
X705939Y858140D01*
X706029Y858063D01*
X706120Y857988D01*
X706214Y857916D01*
X706311Y857847D01*
X706409Y857782D01*
X706510Y857719D01*
X706613Y857660D01*
X706717Y857604D01*
X706823Y857552D01*
X706931Y857503D01*
X707040Y857458D01*
X707151Y857416D01*
X707263Y857378D01*
X709803Y862775D02*
X709728Y862851D01*
X709649Y862926D01*
X709568Y862997D01*
X709484Y863066D01*
X709398Y863131D01*
X709310Y863193D01*
X709220Y863253D01*
X709128Y863309D01*
X709033Y863362D01*
X708937Y863411D01*
X708839Y863457D01*
X708740Y863500D01*
X708639Y863539D01*
X708537Y863574D01*
X708434Y863606D01*
X708330Y863634D01*
X708225Y863659D01*
X708118Y863680D01*
X708012Y863697D01*
X707905Y863710D01*
X707797Y863719D01*
X707689Y863725D01*
X707581Y863727D01*
X709803Y862775D02*
X716153Y857377D01*
X716153Y863727D01*
D102*
X622300Y641350D02*
X622300Y628650D01*
X622300Y641350D02*
X628650Y647700D01*
X641350Y647700D01*
X647700Y641350D01*
X641350Y622300D02*
X628650Y622300D01*
X622300Y628650D01*
X641350Y622300D02*
X647700Y628650D01*
X647700Y641350D01*
X628650Y647700D02*
X622300Y654050D01*
X622300Y666750D01*
X628650Y673100D01*
X641350Y673100D01*
X647700Y666750D01*
X647700Y654050D01*
X641350Y647700D01*
D104*
X616077Y622173D02*
X604647Y622173D01*
X610997Y625983D01*
X604647Y629793D01*
X616077Y629793D01*
X616077Y634746D02*
X604647Y638556D01*
X616077Y642366D01*
X613220Y641414D02*
X613220Y635699D01*
X609727Y651637D02*
X609727Y653542D01*
X616077Y653542D01*
X616077Y649732D01*
X616075Y649632D01*
X616069Y649533D01*
X616059Y649433D01*
X616046Y649335D01*
X616028Y649236D01*
X616007Y649139D01*
X615982Y649043D01*
X615953Y648947D01*
X615920Y648853D01*
X615884Y648760D01*
X615844Y648669D01*
X615800Y648579D01*
X615753Y648491D01*
X615703Y648405D01*
X615649Y648321D01*
X615592Y648239D01*
X615532Y648160D01*
X615468Y648082D01*
X615402Y648008D01*
X615333Y647936D01*
X615261Y647867D01*
X615187Y647801D01*
X615109Y647737D01*
X615030Y647677D01*
X614948Y647620D01*
X614864Y647566D01*
X614778Y647516D01*
X614690Y647469D01*
X614600Y647425D01*
X614509Y647385D01*
X614416Y647349D01*
X614322Y647316D01*
X614226Y647287D01*
X614130Y647262D01*
X614033Y647241D01*
X613934Y647223D01*
X613836Y647210D01*
X613736Y647200D01*
X613637Y647194D01*
X613537Y647192D01*
X607187Y647192D01*
X607087Y647194D01*
X606988Y647200D01*
X606888Y647210D01*
X606790Y647223D01*
X606691Y647241D01*
X606594Y647262D01*
X606498Y647287D01*
X606402Y647316D01*
X606308Y647349D01*
X606215Y647385D01*
X606124Y647425D01*
X606034Y647469D01*
X605946Y647516D01*
X605860Y647566D01*
X605776Y647620D01*
X605694Y647677D01*
X605615Y647737D01*
X605537Y647801D01*
X605463Y647867D01*
X605391Y647936D01*
X605322Y648008D01*
X605256Y648082D01*
X605192Y648160D01*
X605132Y648239D01*
X605075Y648321D01*
X605021Y648405D01*
X604971Y648491D01*
X604924Y648579D01*
X604880Y648669D01*
X604840Y648760D01*
X604804Y648853D01*
X604771Y648947D01*
X604742Y649043D01*
X604717Y649139D01*
X604696Y649236D01*
X604678Y649335D01*
X604665Y649433D01*
X604655Y649533D01*
X604649Y649632D01*
X604647Y649732D01*
X604647Y653542D01*
X604647Y659384D02*
X616077Y659384D01*
X616077Y665734D02*
X604647Y659384D01*
X604647Y665734D02*
X616077Y665734D01*
X616077Y671601D02*
X616077Y676681D01*
X616077Y671601D02*
X604647Y671601D01*
X604647Y676681D01*
X609727Y675411D02*
X609727Y671601D01*
X604647Y683514D02*
X616077Y683514D01*
X604647Y680339D02*
X604647Y686689D01*
X613537Y696976D02*
X613637Y696974D01*
X613736Y696968D01*
X613836Y696958D01*
X613934Y696945D01*
X614033Y696927D01*
X614130Y696906D01*
X614226Y696881D01*
X614322Y696852D01*
X614416Y696819D01*
X614509Y696783D01*
X614600Y696743D01*
X614690Y696699D01*
X614778Y696652D01*
X614864Y696602D01*
X614948Y696548D01*
X615030Y696491D01*
X615109Y696431D01*
X615187Y696367D01*
X615261Y696301D01*
X615333Y696232D01*
X615402Y696160D01*
X615468Y696086D01*
X615532Y696008D01*
X615592Y695929D01*
X615649Y695847D01*
X615703Y695763D01*
X615753Y695677D01*
X615800Y695589D01*
X615844Y695499D01*
X615884Y695408D01*
X615920Y695315D01*
X615953Y695221D01*
X615982Y695125D01*
X616007Y695029D01*
X616028Y694932D01*
X616046Y694833D01*
X616059Y694735D01*
X616069Y694635D01*
X616075Y694536D01*
X616077Y694436D01*
X616075Y694295D01*
X616070Y694154D01*
X616060Y694013D01*
X616047Y693872D01*
X616031Y693732D01*
X616010Y693592D01*
X615986Y693453D01*
X615958Y693314D01*
X615927Y693177D01*
X615892Y693040D01*
X615854Y692904D01*
X615812Y692769D01*
X615766Y692636D01*
X615717Y692503D01*
X615664Y692372D01*
X615608Y692243D01*
X615549Y692114D01*
X615486Y691988D01*
X615420Y691863D01*
X615351Y691740D01*
X615278Y691619D01*
X615202Y691500D01*
X615123Y691382D01*
X615042Y691267D01*
X614957Y691155D01*
X614869Y691044D01*
X614778Y690936D01*
X614685Y690830D01*
X614588Y690727D01*
X614489Y690626D01*
X607187Y690943D02*
X607087Y690945D01*
X606988Y690951D01*
X606888Y690961D01*
X606790Y690974D01*
X606691Y690992D01*
X606594Y691013D01*
X606498Y691038D01*
X606402Y691067D01*
X606308Y691100D01*
X606215Y691136D01*
X606124Y691176D01*
X606034Y691220D01*
X605946Y691267D01*
X605860Y691317D01*
X605776Y691371D01*
X605694Y691428D01*
X605615Y691488D01*
X605537Y691552D01*
X605463Y691618D01*
X605391Y691687D01*
X605322Y691759D01*
X605256Y691833D01*
X605192Y691911D01*
X605132Y691990D01*
X605075Y692072D01*
X605021Y692156D01*
X604971Y692242D01*
X604924Y692330D01*
X604880Y692420D01*
X604840Y692511D01*
X604804Y692604D01*
X604771Y692698D01*
X604742Y692794D01*
X604717Y692890D01*
X604696Y692987D01*
X604678Y693086D01*
X604665Y693184D01*
X604655Y693284D01*
X604649Y693383D01*
X604647Y693483D01*
X604649Y693616D01*
X604654Y693749D01*
X604664Y693882D01*
X604677Y694015D01*
X604694Y694147D01*
X604714Y694279D01*
X604738Y694410D01*
X604766Y694540D01*
X604797Y694670D01*
X604832Y694798D01*
X604871Y694926D01*
X604913Y695052D01*
X604959Y695177D01*
X605008Y695301D01*
X605060Y695424D01*
X605116Y695545D01*
X605176Y695664D01*
X605238Y695782D01*
X605304Y695897D01*
X605373Y696011D01*
X605446Y696123D01*
X605521Y696233D01*
X605600Y696341D01*
X609410Y692213D02*
X609358Y692129D01*
X609303Y692046D01*
X609244Y691966D01*
X609183Y691888D01*
X609119Y691813D01*
X609051Y691740D01*
X608981Y691669D01*
X608909Y691602D01*
X608834Y691537D01*
X608756Y691475D01*
X608676Y691416D01*
X608594Y691360D01*
X608510Y691308D01*
X608424Y691259D01*
X608336Y691213D01*
X608246Y691170D01*
X608155Y691131D01*
X608062Y691096D01*
X607968Y691064D01*
X607873Y691036D01*
X607777Y691011D01*
X607680Y690991D01*
X607582Y690973D01*
X607484Y690960D01*
X607385Y690951D01*
X607286Y690945D01*
X607187Y690943D01*
X611314Y695706D02*
X611366Y695790D01*
X611421Y695873D01*
X611480Y695953D01*
X611541Y696031D01*
X611605Y696106D01*
X611673Y696179D01*
X611743Y696250D01*
X611815Y696317D01*
X611890Y696382D01*
X611968Y696444D01*
X612048Y696503D01*
X612130Y696559D01*
X612214Y696611D01*
X612300Y696660D01*
X612388Y696706D01*
X612478Y696749D01*
X612569Y696788D01*
X612662Y696823D01*
X612756Y696855D01*
X612851Y696883D01*
X612947Y696908D01*
X613044Y696928D01*
X613142Y696946D01*
X613240Y696959D01*
X613339Y696968D01*
X613438Y696974D01*
X613537Y696976D01*
X611315Y695706D02*
X609410Y692213D01*
X604647Y701294D02*
X616077Y703834D01*
X608457Y706374D01*
X616077Y708914D01*
X604647Y711454D01*
X604647Y717042D02*
X616077Y717042D01*
X616077Y715772D02*
X616077Y718312D01*
X604647Y718312D02*
X604647Y715772D01*
X604647Y725424D02*
X616077Y725424D01*
X604647Y722249D02*
X604647Y728599D01*
X616077Y735420D02*
X616077Y737960D01*
X616077Y735420D02*
X616075Y735320D01*
X616069Y735221D01*
X616059Y735121D01*
X616046Y735023D01*
X616028Y734924D01*
X616007Y734827D01*
X615982Y734731D01*
X615953Y734635D01*
X615920Y734541D01*
X615884Y734448D01*
X615844Y734357D01*
X615800Y734267D01*
X615753Y734179D01*
X615703Y734093D01*
X615649Y734009D01*
X615592Y733927D01*
X615532Y733848D01*
X615468Y733770D01*
X615402Y733696D01*
X615333Y733624D01*
X615261Y733555D01*
X615187Y733489D01*
X615109Y733425D01*
X615030Y733365D01*
X614948Y733308D01*
X614864Y733254D01*
X614778Y733204D01*
X614690Y733157D01*
X614600Y733113D01*
X614509Y733073D01*
X614416Y733037D01*
X614322Y733004D01*
X614226Y732975D01*
X614130Y732950D01*
X614033Y732929D01*
X613934Y732911D01*
X613836Y732898D01*
X613736Y732888D01*
X613637Y732882D01*
X613537Y732880D01*
X607187Y732880D01*
X607087Y732882D01*
X606988Y732888D01*
X606888Y732898D01*
X606790Y732911D01*
X606691Y732929D01*
X606594Y732950D01*
X606498Y732975D01*
X606402Y733004D01*
X606308Y733037D01*
X606215Y733073D01*
X606124Y733113D01*
X606034Y733157D01*
X605946Y733204D01*
X605860Y733254D01*
X605776Y733308D01*
X605694Y733365D01*
X605615Y733425D01*
X605537Y733489D01*
X605463Y733555D01*
X605391Y733624D01*
X605322Y733696D01*
X605256Y733770D01*
X605192Y733848D01*
X605132Y733927D01*
X605075Y734009D01*
X605021Y734093D01*
X604971Y734179D01*
X604924Y734267D01*
X604880Y734357D01*
X604840Y734448D01*
X604804Y734541D01*
X604771Y734635D01*
X604742Y734731D01*
X604717Y734827D01*
X604696Y734924D01*
X604678Y735023D01*
X604665Y735121D01*
X604655Y735221D01*
X604649Y735320D01*
X604647Y735420D01*
X604647Y737960D01*
X604647Y742823D02*
X616077Y742823D01*
X609727Y742823D02*
X609727Y749173D01*
X604647Y749173D02*
X616077Y749173D01*
D102*
X642620Y520700D02*
X642720Y520698D01*
X642819Y520692D01*
X642919Y520682D01*
X643017Y520669D01*
X643116Y520651D01*
X643213Y520630D01*
X643309Y520605D01*
X643405Y520576D01*
X643499Y520543D01*
X643592Y520507D01*
X643683Y520467D01*
X643773Y520423D01*
X643861Y520376D01*
X643947Y520326D01*
X644031Y520272D01*
X644113Y520215D01*
X644192Y520155D01*
X644270Y520091D01*
X644344Y520025D01*
X644416Y519956D01*
X644485Y519884D01*
X644551Y519810D01*
X644615Y519732D01*
X644675Y519653D01*
X644732Y519571D01*
X644786Y519487D01*
X644836Y519401D01*
X644883Y519313D01*
X644927Y519223D01*
X644967Y519132D01*
X645003Y519039D01*
X645036Y518945D01*
X645065Y518849D01*
X645090Y518753D01*
X645111Y518656D01*
X645129Y518557D01*
X645142Y518459D01*
X645152Y518359D01*
X645158Y518260D01*
X645160Y518160D01*
X627380Y520700D02*
X627280Y520698D01*
X627181Y520692D01*
X627081Y520682D01*
X626983Y520669D01*
X626884Y520651D01*
X626787Y520630D01*
X626691Y520605D01*
X626595Y520576D01*
X626501Y520543D01*
X626408Y520507D01*
X626317Y520467D01*
X626227Y520423D01*
X626139Y520376D01*
X626053Y520326D01*
X625969Y520272D01*
X625887Y520215D01*
X625808Y520155D01*
X625730Y520091D01*
X625656Y520025D01*
X625584Y519956D01*
X625515Y519884D01*
X625449Y519810D01*
X625385Y519732D01*
X625325Y519653D01*
X625268Y519571D01*
X625214Y519487D01*
X625164Y519401D01*
X625117Y519313D01*
X625073Y519223D01*
X625033Y519132D01*
X624997Y519039D01*
X624964Y518945D01*
X624935Y518849D01*
X624910Y518753D01*
X624889Y518656D01*
X624871Y518557D01*
X624858Y518459D01*
X624848Y518359D01*
X624842Y518260D01*
X624840Y518160D01*
X624840Y472440D02*
X624842Y472340D01*
X624848Y472241D01*
X624858Y472141D01*
X624871Y472043D01*
X624889Y471944D01*
X624910Y471847D01*
X624935Y471751D01*
X624964Y471655D01*
X624997Y471561D01*
X625033Y471468D01*
X625073Y471377D01*
X625117Y471287D01*
X625164Y471199D01*
X625214Y471113D01*
X625268Y471029D01*
X625325Y470947D01*
X625385Y470868D01*
X625449Y470790D01*
X625515Y470716D01*
X625584Y470644D01*
X625656Y470575D01*
X625730Y470509D01*
X625808Y470445D01*
X625887Y470385D01*
X625969Y470328D01*
X626053Y470274D01*
X626139Y470224D01*
X626227Y470177D01*
X626317Y470133D01*
X626408Y470093D01*
X626501Y470057D01*
X626595Y470024D01*
X626691Y469995D01*
X626787Y469970D01*
X626884Y469949D01*
X626983Y469931D01*
X627081Y469918D01*
X627181Y469908D01*
X627280Y469902D01*
X627380Y469900D01*
X642620Y469900D02*
X642720Y469902D01*
X642819Y469908D01*
X642919Y469918D01*
X643017Y469931D01*
X643116Y469949D01*
X643213Y469970D01*
X643309Y469995D01*
X643405Y470024D01*
X643499Y470057D01*
X643592Y470093D01*
X643683Y470133D01*
X643773Y470177D01*
X643861Y470224D01*
X643947Y470274D01*
X644031Y470328D01*
X644113Y470385D01*
X644192Y470445D01*
X644270Y470509D01*
X644344Y470575D01*
X644416Y470644D01*
X644485Y470716D01*
X644551Y470790D01*
X644615Y470868D01*
X644675Y470947D01*
X644732Y471029D01*
X644786Y471113D01*
X644836Y471199D01*
X644883Y471287D01*
X644927Y471377D01*
X644967Y471468D01*
X645003Y471561D01*
X645036Y471655D01*
X645065Y471751D01*
X645090Y471847D01*
X645111Y471944D01*
X645129Y472043D01*
X645142Y472141D01*
X645152Y472241D01*
X645158Y472340D01*
X645160Y472440D01*
X642620Y520700D02*
X627380Y520700D01*
X645160Y518160D02*
X645160Y514350D01*
X643890Y513080D01*
X624840Y514350D02*
X624840Y518160D01*
X624840Y514350D02*
X626110Y513080D01*
X643890Y477520D02*
X645160Y476250D01*
X643890Y477520D02*
X643890Y513080D01*
X626110Y477520D02*
X624840Y476250D01*
X626110Y477520D02*
X626110Y513080D01*
X645160Y476250D02*
X645160Y472440D01*
X624840Y472440D02*
X624840Y476250D01*
X627380Y469900D02*
X642620Y469900D01*
D105*
X635000Y467995D03*
X635000Y522605D03*
D10*
X648462Y506403D02*
X657352Y506403D01*
X648462Y506403D02*
X648462Y508873D01*
X648464Y508971D01*
X648470Y509069D01*
X648480Y509167D01*
X648493Y509264D01*
X648511Y509361D01*
X648532Y509457D01*
X648557Y509551D01*
X648586Y509645D01*
X648618Y509738D01*
X648655Y509829D01*
X648694Y509919D01*
X648738Y510007D01*
X648785Y510093D01*
X648835Y510178D01*
X648888Y510260D01*
X648945Y510340D01*
X649005Y510418D01*
X649068Y510493D01*
X649134Y510566D01*
X649203Y510636D01*
X649274Y510703D01*
X649348Y510768D01*
X649425Y510829D01*
X649504Y510888D01*
X649585Y510943D01*
X649668Y510995D01*
X649754Y511043D01*
X649841Y511088D01*
X649930Y511130D01*
X650020Y511168D01*
X650112Y511202D01*
X650205Y511233D01*
X650300Y511260D01*
X650395Y511283D01*
X650492Y511303D01*
X650588Y511318D01*
X650686Y511330D01*
X650784Y511338D01*
X650882Y511342D01*
X650980Y511342D01*
X651078Y511338D01*
X651176Y511330D01*
X651274Y511318D01*
X651370Y511303D01*
X651467Y511283D01*
X651562Y511260D01*
X651657Y511233D01*
X651750Y511202D01*
X651842Y511168D01*
X651932Y511130D01*
X652021Y511088D01*
X652108Y511043D01*
X652194Y510995D01*
X652277Y510943D01*
X652358Y510888D01*
X652437Y510829D01*
X652514Y510768D01*
X652588Y510703D01*
X652659Y510636D01*
X652728Y510566D01*
X652794Y510493D01*
X652857Y510418D01*
X652917Y510340D01*
X652974Y510260D01*
X653027Y510178D01*
X653077Y510093D01*
X653124Y510007D01*
X653168Y509919D01*
X653207Y509829D01*
X653244Y509738D01*
X653276Y509645D01*
X653305Y509551D01*
X653330Y509457D01*
X653351Y509361D01*
X653369Y509264D01*
X653382Y509167D01*
X653392Y509069D01*
X653398Y508971D01*
X653400Y508873D01*
X653401Y508873D02*
X653401Y506403D01*
X653401Y509367D02*
X657352Y511342D01*
X650438Y515253D02*
X648462Y517723D01*
X657352Y517723D01*
X657352Y520192D02*
X657352Y515253D01*
D102*
X627380Y711200D02*
X627280Y711202D01*
X627181Y711208D01*
X627081Y711218D01*
X626983Y711231D01*
X626884Y711249D01*
X626787Y711270D01*
X626691Y711295D01*
X626595Y711324D01*
X626501Y711357D01*
X626408Y711393D01*
X626317Y711433D01*
X626227Y711477D01*
X626139Y711524D01*
X626053Y711574D01*
X625969Y711628D01*
X625887Y711685D01*
X625808Y711745D01*
X625730Y711809D01*
X625656Y711875D01*
X625584Y711944D01*
X625515Y712016D01*
X625449Y712090D01*
X625385Y712168D01*
X625325Y712247D01*
X625268Y712329D01*
X625214Y712413D01*
X625164Y712499D01*
X625117Y712587D01*
X625073Y712677D01*
X625033Y712768D01*
X624997Y712861D01*
X624964Y712955D01*
X624935Y713051D01*
X624910Y713147D01*
X624889Y713244D01*
X624871Y713343D01*
X624858Y713441D01*
X624848Y713541D01*
X624842Y713640D01*
X624840Y713740D01*
X642620Y711200D02*
X642720Y711202D01*
X642819Y711208D01*
X642919Y711218D01*
X643017Y711231D01*
X643116Y711249D01*
X643213Y711270D01*
X643309Y711295D01*
X643405Y711324D01*
X643499Y711357D01*
X643592Y711393D01*
X643683Y711433D01*
X643773Y711477D01*
X643861Y711524D01*
X643947Y711574D01*
X644031Y711628D01*
X644113Y711685D01*
X644192Y711745D01*
X644270Y711809D01*
X644344Y711875D01*
X644416Y711944D01*
X644485Y712016D01*
X644551Y712090D01*
X644615Y712168D01*
X644675Y712247D01*
X644732Y712329D01*
X644786Y712413D01*
X644836Y712499D01*
X644883Y712587D01*
X644927Y712677D01*
X644967Y712768D01*
X645003Y712861D01*
X645036Y712955D01*
X645065Y713051D01*
X645090Y713147D01*
X645111Y713244D01*
X645129Y713343D01*
X645142Y713441D01*
X645152Y713541D01*
X645158Y713640D01*
X645160Y713740D01*
X645160Y759460D02*
X645158Y759560D01*
X645152Y759659D01*
X645142Y759759D01*
X645129Y759857D01*
X645111Y759956D01*
X645090Y760053D01*
X645065Y760149D01*
X645036Y760245D01*
X645003Y760339D01*
X644967Y760432D01*
X644927Y760523D01*
X644883Y760613D01*
X644836Y760701D01*
X644786Y760787D01*
X644732Y760871D01*
X644675Y760953D01*
X644615Y761032D01*
X644551Y761110D01*
X644485Y761184D01*
X644416Y761256D01*
X644344Y761325D01*
X644270Y761391D01*
X644192Y761455D01*
X644113Y761515D01*
X644031Y761572D01*
X643947Y761626D01*
X643861Y761676D01*
X643773Y761723D01*
X643683Y761767D01*
X643592Y761807D01*
X643499Y761843D01*
X643405Y761876D01*
X643309Y761905D01*
X643213Y761930D01*
X643116Y761951D01*
X643017Y761969D01*
X642919Y761982D01*
X642819Y761992D01*
X642720Y761998D01*
X642620Y762000D01*
X627380Y762000D02*
X627280Y761998D01*
X627181Y761992D01*
X627081Y761982D01*
X626983Y761969D01*
X626884Y761951D01*
X626787Y761930D01*
X626691Y761905D01*
X626595Y761876D01*
X626501Y761843D01*
X626408Y761807D01*
X626317Y761767D01*
X626227Y761723D01*
X626139Y761676D01*
X626053Y761626D01*
X625969Y761572D01*
X625887Y761515D01*
X625808Y761455D01*
X625730Y761391D01*
X625656Y761325D01*
X625584Y761256D01*
X625515Y761184D01*
X625449Y761110D01*
X625385Y761032D01*
X625325Y760953D01*
X625268Y760871D01*
X625214Y760787D01*
X625164Y760701D01*
X625117Y760613D01*
X625073Y760523D01*
X625033Y760432D01*
X624997Y760339D01*
X624964Y760245D01*
X624935Y760149D01*
X624910Y760053D01*
X624889Y759956D01*
X624871Y759857D01*
X624858Y759759D01*
X624848Y759659D01*
X624842Y759560D01*
X624840Y759460D01*
X627380Y711200D02*
X642620Y711200D01*
X624840Y713740D02*
X624840Y717550D01*
X626110Y718820D01*
X645160Y717550D02*
X645160Y713740D01*
X645160Y717550D02*
X643890Y718820D01*
X626110Y754380D02*
X624840Y755650D01*
X626110Y754380D02*
X626110Y718820D01*
X643890Y754380D02*
X645160Y755650D01*
X643890Y754380D02*
X643890Y718820D01*
X624840Y755650D02*
X624840Y759460D01*
X645160Y759460D02*
X645160Y755650D01*
X642620Y762000D02*
X627380Y762000D01*
D105*
X635000Y763905D03*
X635000Y709295D03*
D10*
X621538Y711708D02*
X612648Y711708D01*
X612648Y714177D01*
X612650Y714275D01*
X612656Y714373D01*
X612666Y714471D01*
X612679Y714568D01*
X612697Y714665D01*
X612718Y714761D01*
X612743Y714855D01*
X612772Y714949D01*
X612804Y715042D01*
X612841Y715133D01*
X612880Y715223D01*
X612924Y715311D01*
X612971Y715397D01*
X613021Y715482D01*
X613074Y715564D01*
X613131Y715644D01*
X613191Y715722D01*
X613254Y715797D01*
X613320Y715870D01*
X613389Y715940D01*
X613460Y716007D01*
X613534Y716072D01*
X613611Y716133D01*
X613690Y716192D01*
X613771Y716247D01*
X613854Y716299D01*
X613940Y716347D01*
X614027Y716392D01*
X614116Y716434D01*
X614206Y716472D01*
X614298Y716506D01*
X614391Y716537D01*
X614486Y716564D01*
X614581Y716587D01*
X614678Y716607D01*
X614774Y716622D01*
X614872Y716634D01*
X614970Y716642D01*
X615068Y716646D01*
X615166Y716646D01*
X615264Y716642D01*
X615362Y716634D01*
X615460Y716622D01*
X615556Y716607D01*
X615653Y716587D01*
X615748Y716564D01*
X615843Y716537D01*
X615936Y716506D01*
X616028Y716472D01*
X616118Y716434D01*
X616207Y716392D01*
X616294Y716347D01*
X616380Y716299D01*
X616463Y716247D01*
X616544Y716192D01*
X616623Y716133D01*
X616700Y716072D01*
X616774Y716007D01*
X616845Y715940D01*
X616914Y715870D01*
X616980Y715797D01*
X617043Y715722D01*
X617103Y715644D01*
X617160Y715564D01*
X617213Y715482D01*
X617263Y715397D01*
X617310Y715311D01*
X617354Y715223D01*
X617393Y715133D01*
X617430Y715042D01*
X617462Y714949D01*
X617491Y714855D01*
X617516Y714761D01*
X617537Y714665D01*
X617555Y714568D01*
X617568Y714471D01*
X617578Y714373D01*
X617584Y714275D01*
X617586Y714177D01*
X617587Y714177D02*
X617587Y711708D01*
X617587Y714671D02*
X621538Y716647D01*
X614871Y725497D02*
X614779Y725495D01*
X614687Y725489D01*
X614596Y725480D01*
X614505Y725467D01*
X614415Y725450D01*
X614325Y725429D01*
X614237Y725405D01*
X614149Y725377D01*
X614063Y725345D01*
X613978Y725310D01*
X613895Y725271D01*
X613813Y725229D01*
X613733Y725184D01*
X613655Y725135D01*
X613579Y725083D01*
X613506Y725028D01*
X613434Y724970D01*
X613365Y724910D01*
X613299Y724846D01*
X613235Y724780D01*
X613175Y724711D01*
X613117Y724639D01*
X613062Y724566D01*
X613010Y724490D01*
X612961Y724412D01*
X612916Y724332D01*
X612874Y724250D01*
X612835Y724167D01*
X612800Y724082D01*
X612768Y723996D01*
X612740Y723908D01*
X612716Y723820D01*
X612695Y723730D01*
X612678Y723640D01*
X612665Y723549D01*
X612656Y723458D01*
X612650Y723366D01*
X612648Y723274D01*
X612650Y723168D01*
X612656Y723063D01*
X612666Y722958D01*
X612679Y722853D01*
X612697Y722749D01*
X612718Y722646D01*
X612743Y722543D01*
X612772Y722441D01*
X612805Y722341D01*
X612841Y722242D01*
X612881Y722144D01*
X612925Y722048D01*
X612972Y721953D01*
X613022Y721861D01*
X613076Y721770D01*
X613134Y721681D01*
X613194Y721595D01*
X613258Y721511D01*
X613324Y721429D01*
X613394Y721349D01*
X613467Y721273D01*
X613542Y721199D01*
X613620Y721128D01*
X613701Y721060D01*
X613784Y720994D01*
X613870Y720932D01*
X613957Y720874D01*
X614047Y720818D01*
X614139Y720766D01*
X614233Y720717D01*
X614328Y720672D01*
X614425Y720630D01*
X614524Y720592D01*
X614623Y720558D01*
X616600Y724756D02*
X616531Y724825D01*
X616461Y724891D01*
X616387Y724954D01*
X616311Y725013D01*
X616233Y725070D01*
X616153Y725124D01*
X616070Y725174D01*
X615986Y725221D01*
X615899Y725264D01*
X615811Y725304D01*
X615722Y725340D01*
X615631Y725373D01*
X615539Y725402D01*
X615445Y725427D01*
X615351Y725448D01*
X615256Y725466D01*
X615160Y725479D01*
X615064Y725489D01*
X614968Y725495D01*
X614871Y725497D01*
X616599Y724756D02*
X621538Y720558D01*
X621538Y725497D01*
D102*
X645160Y861060D02*
X645158Y861160D01*
X645152Y861259D01*
X645142Y861359D01*
X645129Y861457D01*
X645111Y861556D01*
X645090Y861653D01*
X645065Y861749D01*
X645036Y861845D01*
X645003Y861939D01*
X644967Y862032D01*
X644927Y862123D01*
X644883Y862213D01*
X644836Y862301D01*
X644786Y862387D01*
X644732Y862471D01*
X644675Y862553D01*
X644615Y862632D01*
X644551Y862710D01*
X644485Y862784D01*
X644416Y862856D01*
X644344Y862925D01*
X644270Y862991D01*
X644192Y863055D01*
X644113Y863115D01*
X644031Y863172D01*
X643947Y863226D01*
X643861Y863276D01*
X643773Y863323D01*
X643683Y863367D01*
X643592Y863407D01*
X643499Y863443D01*
X643405Y863476D01*
X643309Y863505D01*
X643213Y863530D01*
X643116Y863551D01*
X643017Y863569D01*
X642919Y863582D01*
X642819Y863592D01*
X642720Y863598D01*
X642620Y863600D01*
X627380Y863600D02*
X627280Y863598D01*
X627181Y863592D01*
X627081Y863582D01*
X626983Y863569D01*
X626884Y863551D01*
X626787Y863530D01*
X626691Y863505D01*
X626595Y863476D01*
X626501Y863443D01*
X626408Y863407D01*
X626317Y863367D01*
X626227Y863323D01*
X626139Y863276D01*
X626053Y863226D01*
X625969Y863172D01*
X625887Y863115D01*
X625808Y863055D01*
X625730Y862991D01*
X625656Y862925D01*
X625584Y862856D01*
X625515Y862784D01*
X625449Y862710D01*
X625385Y862632D01*
X625325Y862553D01*
X625268Y862471D01*
X625214Y862387D01*
X625164Y862301D01*
X625117Y862213D01*
X625073Y862123D01*
X625033Y862032D01*
X624997Y861939D01*
X624964Y861845D01*
X624935Y861749D01*
X624910Y861653D01*
X624889Y861556D01*
X624871Y861457D01*
X624858Y861359D01*
X624848Y861259D01*
X624842Y861160D01*
X624840Y861060D01*
X624840Y815340D02*
X624842Y815240D01*
X624848Y815141D01*
X624858Y815041D01*
X624871Y814943D01*
X624889Y814844D01*
X624910Y814747D01*
X624935Y814651D01*
X624964Y814555D01*
X624997Y814461D01*
X625033Y814368D01*
X625073Y814277D01*
X625117Y814187D01*
X625164Y814099D01*
X625214Y814013D01*
X625268Y813929D01*
X625325Y813847D01*
X625385Y813768D01*
X625449Y813690D01*
X625515Y813616D01*
X625584Y813544D01*
X625656Y813475D01*
X625730Y813409D01*
X625808Y813345D01*
X625887Y813285D01*
X625969Y813228D01*
X626053Y813174D01*
X626139Y813124D01*
X626227Y813077D01*
X626317Y813033D01*
X626408Y812993D01*
X626501Y812957D01*
X626595Y812924D01*
X626691Y812895D01*
X626787Y812870D01*
X626884Y812849D01*
X626983Y812831D01*
X627081Y812818D01*
X627181Y812808D01*
X627280Y812802D01*
X627380Y812800D01*
X642620Y812800D02*
X642720Y812802D01*
X642819Y812808D01*
X642919Y812818D01*
X643017Y812831D01*
X643116Y812849D01*
X643213Y812870D01*
X643309Y812895D01*
X643405Y812924D01*
X643499Y812957D01*
X643592Y812993D01*
X643683Y813033D01*
X643773Y813077D01*
X643861Y813124D01*
X643947Y813174D01*
X644031Y813228D01*
X644113Y813285D01*
X644192Y813345D01*
X644270Y813409D01*
X644344Y813475D01*
X644416Y813544D01*
X644485Y813616D01*
X644551Y813690D01*
X644615Y813768D01*
X644675Y813847D01*
X644732Y813929D01*
X644786Y814013D01*
X644836Y814099D01*
X644883Y814187D01*
X644927Y814277D01*
X644967Y814368D01*
X645003Y814461D01*
X645036Y814555D01*
X645065Y814651D01*
X645090Y814747D01*
X645111Y814844D01*
X645129Y814943D01*
X645142Y815041D01*
X645152Y815141D01*
X645158Y815240D01*
X645160Y815340D01*
X642620Y863600D02*
X627380Y863600D01*
X645160Y861060D02*
X645160Y857250D01*
X643890Y855980D01*
X624840Y857250D02*
X624840Y861060D01*
X624840Y857250D02*
X626110Y855980D01*
X643890Y820420D02*
X645160Y819150D01*
X643890Y820420D02*
X643890Y855980D01*
X626110Y820420D02*
X624840Y819150D01*
X626110Y820420D02*
X626110Y855980D01*
X645160Y819150D02*
X645160Y815340D01*
X624840Y815340D02*
X624840Y819150D01*
X627380Y812800D02*
X642620Y812800D01*
D105*
X635000Y810895D03*
X635000Y865505D03*
D10*
X648462Y849303D02*
X657352Y849303D01*
X648462Y849303D02*
X648462Y851773D01*
X648464Y851871D01*
X648470Y851969D01*
X648480Y852067D01*
X648493Y852164D01*
X648511Y852261D01*
X648532Y852357D01*
X648557Y852451D01*
X648586Y852545D01*
X648618Y852638D01*
X648655Y852729D01*
X648694Y852819D01*
X648738Y852907D01*
X648785Y852993D01*
X648835Y853078D01*
X648888Y853160D01*
X648945Y853240D01*
X649005Y853318D01*
X649068Y853393D01*
X649134Y853466D01*
X649203Y853536D01*
X649274Y853603D01*
X649348Y853668D01*
X649425Y853729D01*
X649504Y853788D01*
X649585Y853843D01*
X649668Y853895D01*
X649754Y853943D01*
X649841Y853988D01*
X649930Y854030D01*
X650020Y854068D01*
X650112Y854102D01*
X650205Y854133D01*
X650300Y854160D01*
X650395Y854183D01*
X650492Y854203D01*
X650588Y854218D01*
X650686Y854230D01*
X650784Y854238D01*
X650882Y854242D01*
X650980Y854242D01*
X651078Y854238D01*
X651176Y854230D01*
X651274Y854218D01*
X651370Y854203D01*
X651467Y854183D01*
X651562Y854160D01*
X651657Y854133D01*
X651750Y854102D01*
X651842Y854068D01*
X651932Y854030D01*
X652021Y853988D01*
X652108Y853943D01*
X652194Y853895D01*
X652277Y853843D01*
X652358Y853788D01*
X652437Y853729D01*
X652514Y853668D01*
X652588Y853603D01*
X652659Y853536D01*
X652728Y853466D01*
X652794Y853393D01*
X652857Y853318D01*
X652917Y853240D01*
X652974Y853160D01*
X653027Y853078D01*
X653077Y852993D01*
X653124Y852907D01*
X653168Y852819D01*
X653207Y852729D01*
X653244Y852638D01*
X653276Y852545D01*
X653305Y852451D01*
X653330Y852357D01*
X653351Y852261D01*
X653369Y852164D01*
X653382Y852067D01*
X653392Y851969D01*
X653398Y851871D01*
X653400Y851773D01*
X653401Y851773D02*
X653401Y849303D01*
X653401Y852267D02*
X657352Y854242D01*
X657352Y858153D02*
X657352Y860623D01*
X657350Y860721D01*
X657344Y860819D01*
X657334Y860917D01*
X657321Y861014D01*
X657303Y861111D01*
X657282Y861207D01*
X657257Y861301D01*
X657228Y861395D01*
X657196Y861488D01*
X657159Y861579D01*
X657120Y861669D01*
X657076Y861757D01*
X657029Y861843D01*
X656979Y861928D01*
X656926Y862010D01*
X656869Y862090D01*
X656809Y862168D01*
X656746Y862243D01*
X656680Y862316D01*
X656611Y862386D01*
X656540Y862453D01*
X656466Y862518D01*
X656389Y862579D01*
X656310Y862638D01*
X656229Y862693D01*
X656146Y862745D01*
X656060Y862793D01*
X655973Y862838D01*
X655884Y862880D01*
X655794Y862918D01*
X655702Y862952D01*
X655609Y862983D01*
X655514Y863010D01*
X655419Y863033D01*
X655322Y863053D01*
X655226Y863068D01*
X655128Y863080D01*
X655030Y863088D01*
X654932Y863092D01*
X654834Y863092D01*
X654736Y863088D01*
X654638Y863080D01*
X654540Y863068D01*
X654444Y863053D01*
X654347Y863033D01*
X654252Y863010D01*
X654157Y862983D01*
X654064Y862952D01*
X653972Y862918D01*
X653882Y862880D01*
X653793Y862838D01*
X653706Y862793D01*
X653620Y862745D01*
X653537Y862693D01*
X653456Y862638D01*
X653377Y862579D01*
X653300Y862518D01*
X653226Y862453D01*
X653155Y862386D01*
X653086Y862316D01*
X653020Y862243D01*
X652957Y862168D01*
X652897Y862090D01*
X652840Y862010D01*
X652787Y861928D01*
X652737Y861843D01*
X652690Y861757D01*
X652646Y861669D01*
X652607Y861579D01*
X652570Y861488D01*
X652538Y861395D01*
X652509Y861301D01*
X652484Y861207D01*
X652463Y861111D01*
X652445Y861014D01*
X652432Y860917D01*
X652422Y860819D01*
X652416Y860721D01*
X652414Y860623D01*
X648462Y861116D02*
X648462Y858153D01*
X648462Y861116D02*
X648464Y861203D01*
X648470Y861291D01*
X648479Y861378D01*
X648493Y861464D01*
X648510Y861550D01*
X648531Y861634D01*
X648556Y861718D01*
X648585Y861801D01*
X648617Y861882D01*
X648652Y861962D01*
X648691Y862040D01*
X648734Y862117D01*
X648780Y862191D01*
X648829Y862263D01*
X648881Y862333D01*
X648937Y862401D01*
X648995Y862466D01*
X649056Y862529D01*
X649120Y862588D01*
X649187Y862645D01*
X649255Y862699D01*
X649327Y862750D01*
X649400Y862797D01*
X649475Y862842D01*
X649553Y862883D01*
X649632Y862920D01*
X649712Y862954D01*
X649794Y862984D01*
X649877Y863011D01*
X649962Y863034D01*
X650047Y863053D01*
X650133Y863068D01*
X650220Y863080D01*
X650307Y863088D01*
X650394Y863092D01*
X650482Y863092D01*
X650569Y863088D01*
X650656Y863080D01*
X650743Y863068D01*
X650829Y863053D01*
X650914Y863034D01*
X650999Y863011D01*
X651082Y862984D01*
X651164Y862954D01*
X651244Y862920D01*
X651323Y862883D01*
X651401Y862842D01*
X651476Y862797D01*
X651549Y862750D01*
X651621Y862699D01*
X651689Y862645D01*
X651756Y862588D01*
X651820Y862529D01*
X651881Y862466D01*
X651939Y862401D01*
X651995Y862333D01*
X652047Y862263D01*
X652096Y862191D01*
X652142Y862117D01*
X652185Y862040D01*
X652224Y861962D01*
X652259Y861882D01*
X652291Y861801D01*
X652320Y861718D01*
X652345Y861634D01*
X652366Y861550D01*
X652383Y861464D01*
X652397Y861378D01*
X652406Y861291D01*
X652412Y861203D01*
X652414Y861116D01*
X652413Y861116D02*
X652413Y859141D01*
D102*
X641350Y431800D02*
X628650Y431800D01*
X641350Y431800D02*
X647700Y425450D01*
X647700Y412750D01*
X641350Y406400D01*
X622300Y412750D02*
X622300Y425450D01*
X628650Y431800D01*
X622300Y412750D02*
X628650Y406400D01*
X641350Y406400D01*
X647700Y425450D02*
X654050Y431800D01*
X666750Y431800D01*
X673100Y425450D01*
X673100Y412750D01*
X666750Y406400D01*
X654050Y406400D01*
X647700Y412750D01*
D104*
X625983Y440563D02*
X625983Y449453D01*
X625983Y440563D02*
X625981Y440463D01*
X625975Y440364D01*
X625965Y440264D01*
X625952Y440166D01*
X625934Y440067D01*
X625913Y439970D01*
X625888Y439874D01*
X625859Y439778D01*
X625826Y439684D01*
X625790Y439591D01*
X625750Y439500D01*
X625706Y439410D01*
X625659Y439322D01*
X625609Y439236D01*
X625555Y439152D01*
X625498Y439070D01*
X625438Y438991D01*
X625374Y438913D01*
X625308Y438839D01*
X625239Y438767D01*
X625167Y438698D01*
X625093Y438632D01*
X625015Y438568D01*
X624936Y438508D01*
X624854Y438451D01*
X624770Y438397D01*
X624684Y438347D01*
X624596Y438300D01*
X624506Y438256D01*
X624415Y438216D01*
X624322Y438180D01*
X624228Y438147D01*
X624132Y438118D01*
X624036Y438093D01*
X623939Y438072D01*
X623840Y438054D01*
X623742Y438041D01*
X623642Y438031D01*
X623543Y438025D01*
X623443Y438023D01*
X622173Y438023D01*
X631963Y438023D02*
X631963Y449453D01*
X635138Y449453D01*
X635249Y449451D01*
X635359Y449445D01*
X635470Y449436D01*
X635580Y449422D01*
X635689Y449405D01*
X635798Y449384D01*
X635906Y449359D01*
X636013Y449330D01*
X636119Y449298D01*
X636224Y449262D01*
X636327Y449222D01*
X636429Y449179D01*
X636530Y449132D01*
X636629Y449081D01*
X636726Y449028D01*
X636820Y448971D01*
X636913Y448910D01*
X637004Y448847D01*
X637093Y448780D01*
X637179Y448710D01*
X637262Y448637D01*
X637344Y448562D01*
X637422Y448484D01*
X637497Y448402D01*
X637570Y448319D01*
X637640Y448233D01*
X637707Y448144D01*
X637770Y448053D01*
X637831Y447960D01*
X637888Y447865D01*
X637941Y447769D01*
X637992Y447670D01*
X638039Y447569D01*
X638082Y447467D01*
X638122Y447364D01*
X638158Y447259D01*
X638190Y447153D01*
X638219Y447046D01*
X638244Y446938D01*
X638265Y446829D01*
X638282Y446720D01*
X638296Y446610D01*
X638305Y446499D01*
X638311Y446389D01*
X638313Y446278D01*
X638311Y446167D01*
X638305Y446057D01*
X638296Y445946D01*
X638282Y445836D01*
X638265Y445727D01*
X638244Y445618D01*
X638219Y445510D01*
X638190Y445403D01*
X638158Y445297D01*
X638122Y445192D01*
X638082Y445089D01*
X638039Y444987D01*
X637992Y444886D01*
X637941Y444787D01*
X637888Y444690D01*
X637831Y444596D01*
X637770Y444503D01*
X637707Y444412D01*
X637640Y444323D01*
X637570Y444237D01*
X637497Y444154D01*
X637422Y444072D01*
X637344Y443994D01*
X637262Y443919D01*
X637179Y443846D01*
X637093Y443776D01*
X637004Y443709D01*
X636913Y443646D01*
X636820Y443585D01*
X636726Y443528D01*
X636629Y443475D01*
X636530Y443424D01*
X636429Y443377D01*
X636327Y443334D01*
X636224Y443294D01*
X636119Y443258D01*
X636013Y443226D01*
X635906Y443197D01*
X635798Y443172D01*
X635689Y443151D01*
X635580Y443134D01*
X635470Y443120D01*
X635359Y443111D01*
X635249Y443105D01*
X635138Y443103D01*
X631963Y443103D01*
X642822Y438023D02*
X645997Y438023D01*
X646108Y438025D01*
X646218Y438031D01*
X646329Y438040D01*
X646439Y438054D01*
X646548Y438071D01*
X646657Y438092D01*
X646765Y438117D01*
X646872Y438146D01*
X646978Y438178D01*
X647083Y438214D01*
X647186Y438254D01*
X647288Y438297D01*
X647389Y438344D01*
X647488Y438395D01*
X647585Y438448D01*
X647679Y438505D01*
X647772Y438566D01*
X647863Y438629D01*
X647952Y438696D01*
X648038Y438766D01*
X648121Y438839D01*
X648203Y438914D01*
X648281Y438992D01*
X648356Y439074D01*
X648429Y439157D01*
X648499Y439243D01*
X648566Y439332D01*
X648629Y439423D01*
X648690Y439516D01*
X648747Y439610D01*
X648800Y439707D01*
X648851Y439806D01*
X648898Y439907D01*
X648941Y440009D01*
X648981Y440112D01*
X649017Y440217D01*
X649049Y440323D01*
X649078Y440430D01*
X649103Y440538D01*
X649124Y440647D01*
X649141Y440756D01*
X649155Y440866D01*
X649164Y440977D01*
X649170Y441087D01*
X649172Y441198D01*
X649170Y441309D01*
X649164Y441419D01*
X649155Y441530D01*
X649141Y441640D01*
X649124Y441749D01*
X649103Y441858D01*
X649078Y441966D01*
X649049Y442073D01*
X649017Y442179D01*
X648981Y442284D01*
X648941Y442387D01*
X648898Y442489D01*
X648851Y442590D01*
X648800Y442689D01*
X648747Y442785D01*
X648690Y442880D01*
X648629Y442973D01*
X648566Y443064D01*
X648499Y443153D01*
X648429Y443239D01*
X648356Y443322D01*
X648281Y443404D01*
X648203Y443482D01*
X648121Y443557D01*
X648038Y443630D01*
X647952Y443700D01*
X647863Y443767D01*
X647772Y443830D01*
X647679Y443891D01*
X647585Y443948D01*
X647488Y444001D01*
X647389Y444052D01*
X647288Y444099D01*
X647186Y444142D01*
X647083Y444182D01*
X646978Y444218D01*
X646872Y444250D01*
X646765Y444279D01*
X646657Y444304D01*
X646548Y444325D01*
X646439Y444342D01*
X646329Y444356D01*
X646218Y444365D01*
X646108Y444371D01*
X645997Y444373D01*
X646632Y449453D02*
X642822Y449453D01*
X646632Y449453D02*
X646732Y449451D01*
X646831Y449445D01*
X646931Y449435D01*
X647029Y449422D01*
X647128Y449404D01*
X647225Y449383D01*
X647321Y449358D01*
X647417Y449329D01*
X647511Y449296D01*
X647604Y449260D01*
X647695Y449220D01*
X647785Y449176D01*
X647873Y449129D01*
X647959Y449079D01*
X648043Y449025D01*
X648125Y448968D01*
X648204Y448908D01*
X648282Y448844D01*
X648356Y448778D01*
X648428Y448709D01*
X648497Y448637D01*
X648563Y448563D01*
X648627Y448485D01*
X648687Y448406D01*
X648744Y448324D01*
X648798Y448240D01*
X648848Y448154D01*
X648895Y448066D01*
X648939Y447976D01*
X648979Y447885D01*
X649015Y447792D01*
X649048Y447698D01*
X649077Y447602D01*
X649102Y447506D01*
X649123Y447409D01*
X649141Y447310D01*
X649154Y447212D01*
X649164Y447112D01*
X649170Y447013D01*
X649172Y446913D01*
X649170Y446813D01*
X649164Y446714D01*
X649154Y446614D01*
X649141Y446516D01*
X649123Y446417D01*
X649102Y446320D01*
X649077Y446224D01*
X649048Y446128D01*
X649015Y446034D01*
X648979Y445941D01*
X648939Y445850D01*
X648895Y445760D01*
X648848Y445672D01*
X648798Y445586D01*
X648744Y445502D01*
X648687Y445420D01*
X648627Y445341D01*
X648563Y445263D01*
X648497Y445189D01*
X648428Y445117D01*
X648356Y445048D01*
X648282Y444982D01*
X648204Y444918D01*
X648125Y444858D01*
X648043Y444801D01*
X647959Y444747D01*
X647873Y444697D01*
X647785Y444650D01*
X647695Y444606D01*
X647604Y444566D01*
X647511Y444530D01*
X647417Y444497D01*
X647321Y444468D01*
X647225Y444443D01*
X647128Y444422D01*
X647029Y444404D01*
X646931Y444391D01*
X646831Y444381D01*
X646732Y444375D01*
X646632Y444373D01*
X644092Y444373D01*
M02*
