G75*
%MOIN*%
%OFA0B0*%
%FSLAX25Y25*%
%IPPOS*%
%LPD*%
%AMOC8*
5,1,8,0,0,1.08239X$1,22.5*
%
%ADD10OC8,0.05200*%
%ADD11C,0.06000*%
%ADD12C,0.01600*%
%ADD13C,0.00600*%
D10*
X0251000Y0181000D03*
X0251000Y0211000D03*
X0251000Y0226000D03*
X0251000Y0236000D03*
X0251000Y0276000D03*
X0251000Y0306000D03*
X0251000Y0316000D03*
X0251000Y0346000D03*
D11*
X0268000Y0336000D02*
X0274000Y0336000D01*
X0274000Y0326000D02*
X0268000Y0326000D01*
X0268000Y0316000D02*
X0274000Y0316000D01*
X0274000Y0306000D02*
X0268000Y0306000D01*
X0268000Y0296000D02*
X0274000Y0296000D01*
X0274000Y0286000D02*
X0268000Y0286000D01*
X0268000Y0276000D02*
X0274000Y0276000D01*
X0274000Y0266000D02*
X0268000Y0266000D01*
X0254000Y0261000D02*
X0248000Y0261000D01*
X0248000Y0251000D02*
X0254000Y0251000D01*
X0268000Y0246000D02*
X0274000Y0246000D01*
X0274000Y0256000D02*
X0268000Y0256000D01*
X0268000Y0236000D02*
X0274000Y0236000D01*
X0274000Y0226000D02*
X0268000Y0226000D01*
X0268000Y0216000D02*
X0274000Y0216000D01*
X0274000Y0206000D02*
X0268000Y0206000D01*
X0268000Y0196000D02*
X0274000Y0196000D01*
X0274000Y0186000D02*
X0268000Y0186000D01*
X0261000Y0169000D02*
X0261000Y0163000D01*
X0251000Y0163000D02*
X0251000Y0169000D01*
X0348000Y0186000D02*
X0354000Y0186000D01*
X0354000Y0196000D02*
X0348000Y0196000D01*
X0348000Y0206000D02*
X0354000Y0206000D01*
X0354000Y0216000D02*
X0348000Y0216000D01*
X0348000Y0226000D02*
X0354000Y0226000D01*
X0354000Y0236000D02*
X0348000Y0236000D01*
X0348000Y0246000D02*
X0354000Y0246000D01*
X0354000Y0256000D02*
X0348000Y0256000D01*
X0348000Y0266000D02*
X0354000Y0266000D01*
X0354000Y0276000D02*
X0348000Y0276000D01*
X0348000Y0286000D02*
X0354000Y0286000D01*
X0354000Y0296000D02*
X0348000Y0296000D01*
X0348000Y0306000D02*
X0354000Y0306000D01*
X0354000Y0316000D02*
X0348000Y0316000D01*
X0348000Y0326000D02*
X0354000Y0326000D01*
X0354000Y0336000D02*
X0348000Y0336000D01*
D12*
X0256000Y0176000D02*
X0256000Y0156000D01*
X0261000Y0151000D01*
X0326000Y0151000D01*
X0336000Y0161000D01*
X0336000Y0196000D01*
X0346000Y0206000D01*
X0351000Y0206000D01*
X0351000Y0216000D02*
X0341000Y0216000D01*
X0291000Y0166000D01*
X0261000Y0166000D01*
X0251000Y0166000D02*
X0241100Y0175900D01*
X0241100Y0326100D01*
X0251000Y0336000D01*
X0271000Y0336000D01*
X0256000Y0326000D02*
X0251000Y0326000D01*
X0246000Y0321000D01*
X0246000Y0281000D01*
X0251000Y0276000D01*
X0251000Y0261000D02*
X0256000Y0261000D01*
X0261000Y0256000D01*
X0261000Y0221000D01*
X0266000Y0216000D01*
X0271000Y0216000D01*
X0251000Y0211000D02*
X0246000Y0216000D01*
X0246000Y0231000D01*
X0251000Y0236000D01*
X0256000Y0231000D02*
X0251000Y0226000D01*
X0256000Y0231000D02*
X0256000Y0246000D01*
X0251000Y0251000D01*
X0261000Y0296000D02*
X0271000Y0296000D01*
X0261000Y0296000D02*
X0251000Y0306000D01*
X0251000Y0316000D01*
X0261000Y0321000D02*
X0256000Y0326000D01*
X0261000Y0321000D02*
X0261000Y0311000D01*
X0266000Y0306000D01*
X0271000Y0306000D01*
X0251000Y0346000D02*
X0301000Y0346000D01*
X0351000Y0296000D01*
X0251000Y0181000D02*
X0256000Y0176000D01*
D13*
X0251000Y0251000D02*
X0250600Y0251200D01*
X0244000Y0257800D01*
X0244000Y0262600D01*
X0250600Y0269200D01*
X0250600Y0275800D01*
X0251000Y0276000D01*
M02*
