G75*
%MOIN*%
%OFA0B0*%
%FSLAX25Y25*%
%IPPOS*%
%LPD*%
%AMOC8*
5,1,8,0,0,1.08239X$1,22.5*
%
%ADD10C,0.00000*%
%ADD11C,0.00600*%
%ADD12OC8,0.05200*%
%ADD13C,0.06000*%
D10*
X0001000Y0001000D02*
X0001000Y0394701D01*
X0630921Y0394701D01*
X0630921Y0001000D01*
X0001000Y0001000D01*
D11*
X0236000Y0086000D02*
X0236000Y0366000D01*
X0246000Y0376000D01*
X0356000Y0376000D01*
X0366000Y0366000D01*
X0366000Y0086000D01*
X0356000Y0076000D01*
X0246000Y0076000D01*
X0236000Y0086000D01*
X0298929Y0211000D02*
X0298931Y0211174D01*
X0298938Y0211347D01*
X0298948Y0211520D01*
X0298963Y0211693D01*
X0298982Y0211866D01*
X0299006Y0212038D01*
X0299033Y0212209D01*
X0299065Y0212379D01*
X0299101Y0212549D01*
X0299141Y0212718D01*
X0299185Y0212886D01*
X0299233Y0213053D01*
X0299286Y0213218D01*
X0299342Y0213382D01*
X0299403Y0213545D01*
X0299467Y0213706D01*
X0299536Y0213865D01*
X0299608Y0214023D01*
X0299684Y0214179D01*
X0299764Y0214333D01*
X0299848Y0214485D01*
X0299935Y0214635D01*
X0300026Y0214783D01*
X0300121Y0214928D01*
X0300219Y0215072D01*
X0300321Y0215212D01*
X0300426Y0215350D01*
X0300534Y0215486D01*
X0300646Y0215619D01*
X0300761Y0215749D01*
X0300879Y0215876D01*
X0301000Y0216000D01*
X0301124Y0216121D01*
X0301251Y0216239D01*
X0301381Y0216354D01*
X0301514Y0216466D01*
X0301650Y0216574D01*
X0301788Y0216679D01*
X0301928Y0216781D01*
X0302072Y0216879D01*
X0302217Y0216974D01*
X0302365Y0217065D01*
X0302515Y0217152D01*
X0302667Y0217236D01*
X0302821Y0217316D01*
X0302977Y0217392D01*
X0303135Y0217464D01*
X0303294Y0217533D01*
X0303455Y0217597D01*
X0303618Y0217658D01*
X0303782Y0217714D01*
X0303947Y0217767D01*
X0304114Y0217815D01*
X0304282Y0217859D01*
X0304451Y0217899D01*
X0304621Y0217935D01*
X0304791Y0217967D01*
X0304962Y0217994D01*
X0305134Y0218018D01*
X0305307Y0218037D01*
X0305480Y0218052D01*
X0305653Y0218062D01*
X0305826Y0218069D01*
X0306000Y0218071D01*
X0306174Y0218069D01*
X0306347Y0218062D01*
X0306520Y0218052D01*
X0306693Y0218037D01*
X0306866Y0218018D01*
X0307038Y0217994D01*
X0307209Y0217967D01*
X0307379Y0217935D01*
X0307549Y0217899D01*
X0307718Y0217859D01*
X0307886Y0217815D01*
X0308053Y0217767D01*
X0308218Y0217714D01*
X0308382Y0217658D01*
X0308545Y0217597D01*
X0308706Y0217533D01*
X0308865Y0217464D01*
X0309023Y0217392D01*
X0309179Y0217316D01*
X0309333Y0217236D01*
X0309485Y0217152D01*
X0309635Y0217065D01*
X0309783Y0216974D01*
X0309928Y0216879D01*
X0310072Y0216781D01*
X0310212Y0216679D01*
X0310350Y0216574D01*
X0310486Y0216466D01*
X0310619Y0216354D01*
X0310749Y0216239D01*
X0310876Y0216121D01*
X0311000Y0216000D01*
X0311121Y0215876D01*
X0311239Y0215749D01*
X0311354Y0215619D01*
X0311466Y0215486D01*
X0311574Y0215350D01*
X0311679Y0215212D01*
X0311781Y0215072D01*
X0311879Y0214928D01*
X0311974Y0214783D01*
X0312065Y0214635D01*
X0312152Y0214485D01*
X0312236Y0214333D01*
X0312316Y0214179D01*
X0312392Y0214023D01*
X0312464Y0213865D01*
X0312533Y0213706D01*
X0312597Y0213545D01*
X0312658Y0213382D01*
X0312714Y0213218D01*
X0312767Y0213053D01*
X0312815Y0212886D01*
X0312859Y0212718D01*
X0312899Y0212549D01*
X0312935Y0212379D01*
X0312967Y0212209D01*
X0312994Y0212038D01*
X0313018Y0211866D01*
X0313037Y0211693D01*
X0313052Y0211520D01*
X0313062Y0211347D01*
X0313069Y0211174D01*
X0313071Y0211000D01*
X0313069Y0210826D01*
X0313062Y0210653D01*
X0313052Y0210480D01*
X0313037Y0210307D01*
X0313018Y0210134D01*
X0312994Y0209962D01*
X0312967Y0209791D01*
X0312935Y0209621D01*
X0312899Y0209451D01*
X0312859Y0209282D01*
X0312815Y0209114D01*
X0312767Y0208947D01*
X0312714Y0208782D01*
X0312658Y0208618D01*
X0312597Y0208455D01*
X0312533Y0208294D01*
X0312464Y0208135D01*
X0312392Y0207977D01*
X0312316Y0207821D01*
X0312236Y0207667D01*
X0312152Y0207515D01*
X0312065Y0207365D01*
X0311974Y0207217D01*
X0311879Y0207072D01*
X0311781Y0206928D01*
X0311679Y0206788D01*
X0311574Y0206650D01*
X0311466Y0206514D01*
X0311354Y0206381D01*
X0311239Y0206251D01*
X0311121Y0206124D01*
X0311000Y0206000D01*
X0310876Y0205879D01*
X0310749Y0205761D01*
X0310619Y0205646D01*
X0310486Y0205534D01*
X0310350Y0205426D01*
X0310212Y0205321D01*
X0310072Y0205219D01*
X0309928Y0205121D01*
X0309783Y0205026D01*
X0309635Y0204935D01*
X0309485Y0204848D01*
X0309333Y0204764D01*
X0309179Y0204684D01*
X0309023Y0204608D01*
X0308865Y0204536D01*
X0308706Y0204467D01*
X0308545Y0204403D01*
X0308382Y0204342D01*
X0308218Y0204286D01*
X0308053Y0204233D01*
X0307886Y0204185D01*
X0307718Y0204141D01*
X0307549Y0204101D01*
X0307379Y0204065D01*
X0307209Y0204033D01*
X0307038Y0204006D01*
X0306866Y0203982D01*
X0306693Y0203963D01*
X0306520Y0203948D01*
X0306347Y0203938D01*
X0306174Y0203931D01*
X0306000Y0203929D01*
X0305826Y0203931D01*
X0305653Y0203938D01*
X0305480Y0203948D01*
X0305307Y0203963D01*
X0305134Y0203982D01*
X0304962Y0204006D01*
X0304791Y0204033D01*
X0304621Y0204065D01*
X0304451Y0204101D01*
X0304282Y0204141D01*
X0304114Y0204185D01*
X0303947Y0204233D01*
X0303782Y0204286D01*
X0303618Y0204342D01*
X0303455Y0204403D01*
X0303294Y0204467D01*
X0303135Y0204536D01*
X0302977Y0204608D01*
X0302821Y0204684D01*
X0302667Y0204764D01*
X0302515Y0204848D01*
X0302365Y0204935D01*
X0302217Y0205026D01*
X0302072Y0205121D01*
X0301928Y0205219D01*
X0301788Y0205321D01*
X0301650Y0205426D01*
X0301514Y0205534D01*
X0301381Y0205646D01*
X0301251Y0205761D01*
X0301124Y0205879D01*
X0301000Y0206000D01*
X0300879Y0206124D01*
X0300761Y0206251D01*
X0300646Y0206381D01*
X0300534Y0206514D01*
X0300426Y0206650D01*
X0300321Y0206788D01*
X0300219Y0206928D01*
X0300121Y0207072D01*
X0300026Y0207217D01*
X0299935Y0207365D01*
X0299848Y0207515D01*
X0299764Y0207667D01*
X0299684Y0207821D01*
X0299608Y0207977D01*
X0299536Y0208135D01*
X0299467Y0208294D01*
X0299403Y0208455D01*
X0299342Y0208618D01*
X0299286Y0208782D01*
X0299233Y0208947D01*
X0299185Y0209114D01*
X0299141Y0209282D01*
X0299101Y0209451D01*
X0299065Y0209621D01*
X0299033Y0209791D01*
X0299006Y0209962D01*
X0298982Y0210134D01*
X0298963Y0210307D01*
X0298948Y0210480D01*
X0298938Y0210653D01*
X0298931Y0210826D01*
X0298929Y0211000D01*
X0298929Y0311000D02*
X0298931Y0311174D01*
X0298938Y0311347D01*
X0298948Y0311520D01*
X0298963Y0311693D01*
X0298982Y0311866D01*
X0299006Y0312038D01*
X0299033Y0312209D01*
X0299065Y0312379D01*
X0299101Y0312549D01*
X0299141Y0312718D01*
X0299185Y0312886D01*
X0299233Y0313053D01*
X0299286Y0313218D01*
X0299342Y0313382D01*
X0299403Y0313545D01*
X0299467Y0313706D01*
X0299536Y0313865D01*
X0299608Y0314023D01*
X0299684Y0314179D01*
X0299764Y0314333D01*
X0299848Y0314485D01*
X0299935Y0314635D01*
X0300026Y0314783D01*
X0300121Y0314928D01*
X0300219Y0315072D01*
X0300321Y0315212D01*
X0300426Y0315350D01*
X0300534Y0315486D01*
X0300646Y0315619D01*
X0300761Y0315749D01*
X0300879Y0315876D01*
X0301000Y0316000D01*
X0301124Y0316121D01*
X0301251Y0316239D01*
X0301381Y0316354D01*
X0301514Y0316466D01*
X0301650Y0316574D01*
X0301788Y0316679D01*
X0301928Y0316781D01*
X0302072Y0316879D01*
X0302217Y0316974D01*
X0302365Y0317065D01*
X0302515Y0317152D01*
X0302667Y0317236D01*
X0302821Y0317316D01*
X0302977Y0317392D01*
X0303135Y0317464D01*
X0303294Y0317533D01*
X0303455Y0317597D01*
X0303618Y0317658D01*
X0303782Y0317714D01*
X0303947Y0317767D01*
X0304114Y0317815D01*
X0304282Y0317859D01*
X0304451Y0317899D01*
X0304621Y0317935D01*
X0304791Y0317967D01*
X0304962Y0317994D01*
X0305134Y0318018D01*
X0305307Y0318037D01*
X0305480Y0318052D01*
X0305653Y0318062D01*
X0305826Y0318069D01*
X0306000Y0318071D01*
X0306174Y0318069D01*
X0306347Y0318062D01*
X0306520Y0318052D01*
X0306693Y0318037D01*
X0306866Y0318018D01*
X0307038Y0317994D01*
X0307209Y0317967D01*
X0307379Y0317935D01*
X0307549Y0317899D01*
X0307718Y0317859D01*
X0307886Y0317815D01*
X0308053Y0317767D01*
X0308218Y0317714D01*
X0308382Y0317658D01*
X0308545Y0317597D01*
X0308706Y0317533D01*
X0308865Y0317464D01*
X0309023Y0317392D01*
X0309179Y0317316D01*
X0309333Y0317236D01*
X0309485Y0317152D01*
X0309635Y0317065D01*
X0309783Y0316974D01*
X0309928Y0316879D01*
X0310072Y0316781D01*
X0310212Y0316679D01*
X0310350Y0316574D01*
X0310486Y0316466D01*
X0310619Y0316354D01*
X0310749Y0316239D01*
X0310876Y0316121D01*
X0311000Y0316000D01*
X0311121Y0315876D01*
X0311239Y0315749D01*
X0311354Y0315619D01*
X0311466Y0315486D01*
X0311574Y0315350D01*
X0311679Y0315212D01*
X0311781Y0315072D01*
X0311879Y0314928D01*
X0311974Y0314783D01*
X0312065Y0314635D01*
X0312152Y0314485D01*
X0312236Y0314333D01*
X0312316Y0314179D01*
X0312392Y0314023D01*
X0312464Y0313865D01*
X0312533Y0313706D01*
X0312597Y0313545D01*
X0312658Y0313382D01*
X0312714Y0313218D01*
X0312767Y0313053D01*
X0312815Y0312886D01*
X0312859Y0312718D01*
X0312899Y0312549D01*
X0312935Y0312379D01*
X0312967Y0312209D01*
X0312994Y0312038D01*
X0313018Y0311866D01*
X0313037Y0311693D01*
X0313052Y0311520D01*
X0313062Y0311347D01*
X0313069Y0311174D01*
X0313071Y0311000D01*
X0313069Y0310826D01*
X0313062Y0310653D01*
X0313052Y0310480D01*
X0313037Y0310307D01*
X0313018Y0310134D01*
X0312994Y0309962D01*
X0312967Y0309791D01*
X0312935Y0309621D01*
X0312899Y0309451D01*
X0312859Y0309282D01*
X0312815Y0309114D01*
X0312767Y0308947D01*
X0312714Y0308782D01*
X0312658Y0308618D01*
X0312597Y0308455D01*
X0312533Y0308294D01*
X0312464Y0308135D01*
X0312392Y0307977D01*
X0312316Y0307821D01*
X0312236Y0307667D01*
X0312152Y0307515D01*
X0312065Y0307365D01*
X0311974Y0307217D01*
X0311879Y0307072D01*
X0311781Y0306928D01*
X0311679Y0306788D01*
X0311574Y0306650D01*
X0311466Y0306514D01*
X0311354Y0306381D01*
X0311239Y0306251D01*
X0311121Y0306124D01*
X0311000Y0306000D01*
X0310876Y0305879D01*
X0310749Y0305761D01*
X0310619Y0305646D01*
X0310486Y0305534D01*
X0310350Y0305426D01*
X0310212Y0305321D01*
X0310072Y0305219D01*
X0309928Y0305121D01*
X0309783Y0305026D01*
X0309635Y0304935D01*
X0309485Y0304848D01*
X0309333Y0304764D01*
X0309179Y0304684D01*
X0309023Y0304608D01*
X0308865Y0304536D01*
X0308706Y0304467D01*
X0308545Y0304403D01*
X0308382Y0304342D01*
X0308218Y0304286D01*
X0308053Y0304233D01*
X0307886Y0304185D01*
X0307718Y0304141D01*
X0307549Y0304101D01*
X0307379Y0304065D01*
X0307209Y0304033D01*
X0307038Y0304006D01*
X0306866Y0303982D01*
X0306693Y0303963D01*
X0306520Y0303948D01*
X0306347Y0303938D01*
X0306174Y0303931D01*
X0306000Y0303929D01*
X0305826Y0303931D01*
X0305653Y0303938D01*
X0305480Y0303948D01*
X0305307Y0303963D01*
X0305134Y0303982D01*
X0304962Y0304006D01*
X0304791Y0304033D01*
X0304621Y0304065D01*
X0304451Y0304101D01*
X0304282Y0304141D01*
X0304114Y0304185D01*
X0303947Y0304233D01*
X0303782Y0304286D01*
X0303618Y0304342D01*
X0303455Y0304403D01*
X0303294Y0304467D01*
X0303135Y0304536D01*
X0302977Y0304608D01*
X0302821Y0304684D01*
X0302667Y0304764D01*
X0302515Y0304848D01*
X0302365Y0304935D01*
X0302217Y0305026D01*
X0302072Y0305121D01*
X0301928Y0305219D01*
X0301788Y0305321D01*
X0301650Y0305426D01*
X0301514Y0305534D01*
X0301381Y0305646D01*
X0301251Y0305761D01*
X0301124Y0305879D01*
X0301000Y0306000D01*
X0300879Y0306124D01*
X0300761Y0306251D01*
X0300646Y0306381D01*
X0300534Y0306514D01*
X0300426Y0306650D01*
X0300321Y0306788D01*
X0300219Y0306928D01*
X0300121Y0307072D01*
X0300026Y0307217D01*
X0299935Y0307365D01*
X0299848Y0307515D01*
X0299764Y0307667D01*
X0299684Y0307821D01*
X0299608Y0307977D01*
X0299536Y0308135D01*
X0299467Y0308294D01*
X0299403Y0308455D01*
X0299342Y0308618D01*
X0299286Y0308782D01*
X0299233Y0308947D01*
X0299185Y0309114D01*
X0299141Y0309282D01*
X0299101Y0309451D01*
X0299065Y0309621D01*
X0299033Y0309791D01*
X0299006Y0309962D01*
X0298982Y0310134D01*
X0298963Y0310307D01*
X0298948Y0310480D01*
X0298938Y0310653D01*
X0298931Y0310826D01*
X0298929Y0311000D01*
D12*
X0251000Y0306000D03*
X0251000Y0316000D03*
X0251000Y0346000D03*
X0251000Y0276000D03*
X0251000Y0236000D03*
X0251000Y0226000D03*
X0251000Y0211000D03*
X0251000Y0181000D03*
D13*
X0251000Y0169000D02*
X0251000Y0163000D01*
X0261000Y0163000D02*
X0261000Y0169000D01*
X0268000Y0186000D02*
X0274000Y0186000D01*
X0274000Y0196000D02*
X0268000Y0196000D01*
X0268000Y0206000D02*
X0274000Y0206000D01*
X0274000Y0216000D02*
X0268000Y0216000D01*
X0268000Y0226000D02*
X0274000Y0226000D01*
X0274000Y0236000D02*
X0268000Y0236000D01*
X0268000Y0246000D02*
X0274000Y0246000D01*
X0274000Y0256000D02*
X0268000Y0256000D01*
X0254000Y0251000D02*
X0248000Y0251000D01*
X0248000Y0261000D02*
X0254000Y0261000D01*
X0268000Y0266000D02*
X0274000Y0266000D01*
X0274000Y0276000D02*
X0268000Y0276000D01*
X0268000Y0286000D02*
X0274000Y0286000D01*
X0274000Y0296000D02*
X0268000Y0296000D01*
X0268000Y0306000D02*
X0274000Y0306000D01*
X0274000Y0316000D02*
X0268000Y0316000D01*
X0268000Y0326000D02*
X0274000Y0326000D01*
X0274000Y0336000D02*
X0268000Y0336000D01*
X0348000Y0336000D02*
X0354000Y0336000D01*
X0354000Y0326000D02*
X0348000Y0326000D01*
X0348000Y0316000D02*
X0354000Y0316000D01*
X0354000Y0306000D02*
X0348000Y0306000D01*
X0348000Y0296000D02*
X0354000Y0296000D01*
X0354000Y0286000D02*
X0348000Y0286000D01*
X0348000Y0276000D02*
X0354000Y0276000D01*
X0354000Y0266000D02*
X0348000Y0266000D01*
X0348000Y0256000D02*
X0354000Y0256000D01*
X0354000Y0246000D02*
X0348000Y0246000D01*
X0348000Y0236000D02*
X0354000Y0236000D01*
X0354000Y0226000D02*
X0348000Y0226000D01*
X0348000Y0216000D02*
X0354000Y0216000D01*
X0354000Y0206000D02*
X0348000Y0206000D01*
X0348000Y0196000D02*
X0354000Y0196000D01*
X0354000Y0186000D02*
X0348000Y0186000D01*
M02*
