%
M48
M72
T01C0.03200
T02C0.04000
%
T01
X251000Y181000
X251000Y211000
X251000Y226000
X251000Y236000
X251000Y276000
X251000Y306000
X251000Y316000
X251000Y346000
T02
X251000Y166000
X261000Y166000
X271000Y186000
X271000Y196000
X271000Y206000
X271000Y216000
X271000Y226000
X271000Y236000
X271000Y246000
X271000Y256000
X271000Y266000
X271000Y276000
X271000Y286000
X271000Y296000
X271000Y306000
X271000Y316000
X271000Y326000
X271000Y336000
X351000Y336000
X351000Y326000
X351000Y316000
X351000Y306000
X351000Y296000
X351000Y286000
X351000Y276000
X351000Y266000
X351000Y256000
X351000Y246000
X351000Y236000
X351000Y226000
X351000Y216000
X351000Y206000
X351000Y196000
X351000Y186000
X251000Y251000
X251000Y261000
M30
