G04 MADE WITH FRITZING*
G04 WWW.FRITZING.ORG*
G04 DOUBLE SIDED*
G04 HOLES PLATED*
G04 CONTOUR ON CENTER OF CONTOUR VECTOR*
%ASAXBY*%
%FSLAX23Y23*%
%MOIN*%
%OFA0B0*%
%SFA1.0B1.0*%
%ADD10C,0.075000*%
%ADD11C,0.062992*%
%ADD12C,0.074000*%
%ADD13C,0.138425*%
%ADD14C,0.066000*%
%ADD15R,0.062992X0.062992*%
%ADD16C,0.024000*%
%LNCOPPER0*%
G90*
G70*
G54D10*
X1418Y1506D03*
X1818Y1506D03*
X618Y1606D03*
X1018Y1606D03*
G54D11*
X218Y1406D03*
X218Y1505D03*
G54D10*
X218Y606D03*
X218Y206D03*
G54D12*
X518Y506D03*
X518Y1206D03*
G54D13*
X2551Y1156D03*
G54D14*
X901Y1206D03*
X1001Y1206D03*
X1101Y1206D03*
X1201Y1206D03*
X1301Y1206D03*
X1401Y1206D03*
G54D13*
X2551Y456D03*
G54D14*
X2001Y1206D03*
X2101Y1206D03*
X2301Y1206D03*
X2401Y1206D03*
X2001Y406D03*
X1901Y406D03*
X1801Y406D03*
X1701Y406D03*
X1601Y406D03*
X1501Y406D03*
X1401Y406D03*
X1301Y406D03*
X1201Y406D03*
X1101Y406D03*
X1001Y406D03*
X901Y406D03*
G54D15*
X218Y1406D03*
G54D16*
X1218Y1306D02*
X1516Y1305D01*
D02*
X1516Y1305D02*
X1986Y433D01*
D02*
X1398Y1486D02*
X1218Y1306D01*
D02*
X218Y1379D02*
X218Y635D01*
D02*
X247Y206D02*
X1018Y206D01*
D02*
X1018Y206D02*
X1089Y378D01*
D02*
X244Y1511D02*
X590Y1599D01*
G04 End of Copper0*
M02*