; NON-PLATED HOLES START AT T1
; THROUGH (PLATED) HOLES START AT T100
M48
INCH
T1C0.125984
T100C0.035000
T101C0.031497
T102C0.039370
T103C0.040000
T104C0.098425
%
T1
X026179Y017062
X001179Y017062
X026179Y001062
X001179Y001062
T100
X002179Y006062
X010179Y016062
X018179Y015062
X014179Y015062
X006179Y016062
X002179Y002062
T101
X002179Y014062
X002179Y015046
T102
X020007Y012062
X015007Y004062
X021007Y012062
X019007Y004062
X009006Y004062
X023007Y012062
X011006Y004062
X010006Y012062
X010006Y004062
X012006Y004062
X014007Y004062
X014007Y012062
X020007Y004062
X009006Y012062
X011006Y012062
X013007Y004062
X013007Y012062
X012006Y012062
X024007Y012062
X016007Y004062
X017007Y004062
X018007Y004062
T103
X005179Y005062
X005179Y012062
T104
X025507Y004562
X025507Y011562
T00
M30
