G04 MADE WITH FRITZING*
G04 WWW.FRITZING.ORG*
G04 DOUBLE SIDED*
G04 HOLES PLATED*
G04 CONTOUR ON CENTER OF CONTOUR VECTOR*
%ASAXBY*%
%FSLAX23Y23*%
%MOIN*%
%OFA0B0*%
%SFA1.0B1.0*%
%ADD10C,0.075000*%
%ADD11C,0.062992*%
%ADD12C,0.074000*%
%ADD13C,0.138425*%
%ADD14C,0.066000*%
%ADD15R,0.066653X0.065331*%
%ADD16R,0.062992X0.062992*%
%ADD17C,0.024000*%
%LNCOPPER1*%
G90*
G70*
G54D10*
X1418Y1506D03*
X1818Y1506D03*
X618Y1606D03*
X1018Y1606D03*
G54D11*
X218Y1406D03*
X218Y1505D03*
G54D10*
X218Y606D03*
X218Y206D03*
G54D12*
X518Y506D03*
X518Y1206D03*
X518Y506D03*
X518Y1206D03*
G54D13*
X2551Y1156D03*
G54D14*
X901Y1206D03*
X1001Y1206D03*
X1101Y1206D03*
X1201Y1206D03*
X1301Y1206D03*
X1401Y1206D03*
G54D13*
X2551Y456D03*
G54D14*
X2001Y1206D03*
X2101Y1206D03*
X2301Y1206D03*
X2401Y1206D03*
X2001Y406D03*
X1901Y406D03*
X1801Y406D03*
X1701Y406D03*
X1601Y406D03*
X1501Y406D03*
X1401Y406D03*
X1301Y406D03*
X1201Y406D03*
X1101Y406D03*
X1001Y406D03*
X901Y406D03*
G54D15*
X1718Y106D03*
G54D16*
X218Y1406D03*
G54D15*
X1618Y106D03*
G54D17*
X990Y1598D02*
X1017Y1606D01*
D02*
X1017Y1606D02*
X1618Y1606D01*
D02*
X1618Y1606D02*
X1792Y1519D01*
D02*
X2106Y1176D02*
X2119Y1105D01*
D02*
X2119Y1105D02*
X1818Y1105D01*
D02*
X1818Y1105D02*
X1618Y1406D01*
D02*
X1618Y1406D02*
X1119Y1406D01*
D02*
X1119Y1406D02*
X1018Y1306D01*
D02*
X1018Y1306D02*
X718Y1306D01*
D02*
X718Y1306D02*
X627Y1579D01*
D02*
X1218Y107D02*
X1202Y375D01*
D02*
X1590Y106D02*
X1218Y107D01*
D02*
X2417Y107D02*
X2401Y1175D01*
D02*
X1746Y106D02*
X2417Y107D01*
D02*
X1989Y1235D02*
X1916Y1406D01*
D02*
X1916Y1406D02*
X1820Y1406D01*
D02*
X1820Y1406D02*
X1819Y1478D01*
D02*
X540Y1184D02*
X716Y1006D01*
D02*
X1212Y1166D02*
X1209Y1177D01*
D02*
X487Y506D02*
X418Y506D01*
D02*
X348Y1262D02*
X600Y1584D01*
D02*
X1218Y1006D02*
X1212Y1166D01*
D02*
X716Y1006D02*
X1218Y1006D01*
D02*
X418Y506D02*
X318Y906D01*
D02*
X318Y906D02*
X348Y1262D01*
G04 End of Copper1*
M02*