M48
;GenerationSoftware,Autodesk,EAGLE,9.3.1*%
;CreationDate,2019-04-01T17:09:37Z*%
FMAT,2
ICI,OFF
METRIC,TZ,000.000
T2C0.813
T1C1.016
%
G90
M71
T1
X88900Y77470
X66040Y41910
X88900Y85090
X88900Y82550
X88900Y80010
X88900Y64770
X88900Y74930
X88900Y72390
X88900Y69850
X88900Y67310
X63500Y41910
X88900Y62230
X88900Y59690
X88900Y57150
X88900Y54610
X88900Y52070
X88900Y49530
X88900Y46990
X68580Y85090
X68580Y82550
X68580Y80010
X68580Y77470
X68580Y74930
X68580Y72390
X68580Y69850
X68580Y67310
X68580Y64770
X68580Y62230
X68580Y59690
X68580Y57150
X68580Y54610
X68580Y52070
X68580Y49530
X68580Y46990
X63500Y63500
X63500Y66040
T2
X63500Y57150
X63500Y59690
X63500Y53340
X63500Y77470
X63500Y87630
X63500Y80010
X63500Y45720
X63500Y69850
M30