G04 EAGLE Gerber X2 export*
%TF.Part,Single*%
%TF.FileFunction,Profile,NP*%
%TF.FilePolarity,Positive*%
%TF.GenerationSoftware,Autodesk,EAGLE,8.7.1*%
%TF.CreationDate,2019-01-27T12:14:56Z*%
G75*
%MOMM*%
%FSLAX34Y34*%
%LPD*%
%AMOC8*
5,1,8,0,0,1.08239X$1,22.5*%
G01*
%ADD10C,0.254000*%


D10*
X0Y0D02*
X1600000Y0D01*
X1600000Y1000000D01*
X0Y1000000D01*
X0Y0D01*
X596900Y215900D02*
X622300Y190500D01*
X901700Y190500D01*
X927100Y215900D01*
X927100Y927100D01*
X901700Y952500D01*
X622300Y952500D01*
X596900Y927100D01*
X596900Y215900D01*
X792661Y786812D02*
X792661Y787988D01*
X792584Y789161D01*
X792430Y790327D01*
X792201Y791481D01*
X791896Y792616D01*
X791518Y793730D01*
X791068Y794816D01*
X790548Y795871D01*
X789960Y796889D01*
X789307Y797867D01*
X788591Y798800D01*
X787816Y799684D01*
X786984Y800516D01*
X786100Y801291D01*
X785167Y802007D01*
X784189Y802660D01*
X783171Y803248D01*
X782116Y803768D01*
X781030Y804218D01*
X779916Y804596D01*
X778781Y804901D01*
X777627Y805130D01*
X776461Y805284D01*
X775288Y805361D01*
X774112Y805361D01*
X772939Y805284D01*
X771773Y805130D01*
X770619Y804901D01*
X769484Y804596D01*
X768370Y804218D01*
X767284Y803768D01*
X766229Y803248D01*
X765211Y802660D01*
X764233Y802007D01*
X763300Y801291D01*
X762416Y800516D01*
X761584Y799684D01*
X760809Y798800D01*
X760093Y797867D01*
X759440Y796889D01*
X758852Y795871D01*
X758332Y794816D01*
X757882Y793730D01*
X757504Y792616D01*
X757199Y791481D01*
X756970Y790327D01*
X756816Y789161D01*
X756740Y787988D01*
X756740Y786812D01*
X756816Y785639D01*
X756970Y784473D01*
X757199Y783319D01*
X757504Y782184D01*
X757882Y781070D01*
X758332Y779984D01*
X758852Y778929D01*
X759440Y777911D01*
X760093Y776933D01*
X760809Y776000D01*
X761584Y775116D01*
X762416Y774284D01*
X763300Y773509D01*
X764233Y772793D01*
X765211Y772140D01*
X766229Y771552D01*
X767284Y771032D01*
X768370Y770582D01*
X769484Y770204D01*
X770619Y769899D01*
X771773Y769670D01*
X772939Y769516D01*
X774112Y769440D01*
X775288Y769440D01*
X776461Y769516D01*
X777627Y769670D01*
X778781Y769899D01*
X779916Y770204D01*
X781030Y770582D01*
X782116Y771032D01*
X783171Y771552D01*
X784189Y772140D01*
X785167Y772793D01*
X786100Y773509D01*
X786984Y774284D01*
X787816Y775116D01*
X788591Y776000D01*
X789307Y776933D01*
X789960Y777911D01*
X790548Y778929D01*
X791068Y779984D01*
X791518Y781070D01*
X791896Y782184D01*
X792201Y783319D01*
X792430Y784473D01*
X792584Y785639D01*
X792661Y786812D01*
X792661Y532812D02*
X792661Y533988D01*
X792584Y535161D01*
X792430Y536327D01*
X792201Y537481D01*
X791896Y538616D01*
X791518Y539730D01*
X791068Y540816D01*
X790548Y541871D01*
X789960Y542889D01*
X789307Y543867D01*
X788591Y544800D01*
X787816Y545684D01*
X786984Y546516D01*
X786100Y547291D01*
X785167Y548007D01*
X784189Y548660D01*
X783171Y549248D01*
X782116Y549768D01*
X781030Y550218D01*
X779916Y550596D01*
X778781Y550901D01*
X777627Y551130D01*
X776461Y551284D01*
X775288Y551361D01*
X774112Y551361D01*
X772939Y551284D01*
X771773Y551130D01*
X770619Y550901D01*
X769484Y550596D01*
X768370Y550218D01*
X767284Y549768D01*
X766229Y549248D01*
X765211Y548660D01*
X764233Y548007D01*
X763300Y547291D01*
X762416Y546516D01*
X761584Y545684D01*
X760809Y544800D01*
X760093Y543867D01*
X759440Y542889D01*
X758852Y541871D01*
X758332Y540816D01*
X757882Y539730D01*
X757504Y538616D01*
X757199Y537481D01*
X756970Y536327D01*
X756816Y535161D01*
X756740Y533988D01*
X756740Y532812D01*
X756816Y531639D01*
X756970Y530473D01*
X757199Y529319D01*
X757504Y528184D01*
X757882Y527070D01*
X758332Y525984D01*
X758852Y524929D01*
X759440Y523911D01*
X760093Y522933D01*
X760809Y522000D01*
X761584Y521116D01*
X762416Y520284D01*
X763300Y519509D01*
X764233Y518793D01*
X765211Y518140D01*
X766229Y517552D01*
X767284Y517032D01*
X768370Y516582D01*
X769484Y516204D01*
X770619Y515899D01*
X771773Y515670D01*
X772939Y515516D01*
X774112Y515440D01*
X775288Y515440D01*
X776461Y515516D01*
X777627Y515670D01*
X778781Y515899D01*
X779916Y516204D01*
X781030Y516582D01*
X782116Y517032D01*
X783171Y517552D01*
X784189Y518140D01*
X785167Y518793D01*
X786100Y519509D01*
X786984Y520284D01*
X787816Y521116D01*
X788591Y522000D01*
X789307Y522933D01*
X789960Y523911D01*
X790548Y524929D01*
X791068Y525984D01*
X791518Y527070D01*
X791896Y528184D01*
X792201Y529319D01*
X792430Y530473D01*
X792584Y531639D01*
X792661Y532812D01*
M02*
