<?xml version="1.0" encoding="iso-8859-1"?>
<!-- Generator: Adobe Illustrator 16.0.0, SVG Export Plug-In . SVG Version: 6.00 Build 0)  -->
<!DOCTYPE svg PUBLIC "-//W3C//DTD SVG 1.1//EN" "http://www.w3.org/Graphics/SVG/1.1/DTD/svg11.dtd">
<svg version="1.1" id="Capa_1" xmlns="http://www.w3.org/2000/svg" xmlns:xlink="http://www.w3.org/1999/xlink" x="0px" y="0px"
	 width="494.459px" height="494.459px" viewBox="0 0 494.459 494.459" style="enable-background:new 0 0 494.459 494.459;"
	 xml:space="preserve">
<g>
	<path d="M0,21.479v451.5h34v-82.953h9.99v82.953h196.598V65.78H43.99v55.652H34V55.479h426.459v65.953h-9.988V65.78H253.873
		v407.199h196.598v-82.953h9.988v82.953h34v-451.5H0z M198.105,243.021c7.018,0,12.709,5.688,12.709,12.708
		s-5.691,12.708-12.709,12.708s-12.709-5.688-12.709-12.708S191.087,243.021,198.105,243.021z M43.99,168.453v174.55H34v-174.55
		H43.99z M296.355,268.438c-7.019,0-12.709-5.688-12.709-12.708s5.69-12.708,12.709-12.708c7.018,0,12.709,5.688,12.709,12.708
		S303.373,268.438,296.355,268.438z M450.471,343.003v-174.55h9.986v174.55H450.471z"/>
</g>
<g>
</g>
<g>
</g>
<g>
</g>
<g>
</g>
<g>
</g>
<g>
</g>
<g>
</g>
<g>
</g>
<g>
</g>
<g>
</g>
<g>
</g>
<g>
</g>
<g>
</g>
<g>
</g>
<g>
</g>
</svg>
