<?xml version="1.0" encoding="iso-8859-1"?>
<!-- Generator: Adobe Illustrator 18.0.0, SVG Export Plug-In . SVG Version: 6.00 Build 0)  -->
<!DOCTYPE svg PUBLIC "-//W3C//DTD SVG 1.1//EN" "http://www.w3.org/Graphics/SVG/1.1/DTD/svg11.dtd">
<svg version="1.1" id="Capa_1" xmlns="http://www.w3.org/2000/svg" xmlns:xlink="http://www.w3.org/1999/xlink" x="0px" y="0px"
	 viewBox="0 0 53.25 53.25" style="enable-background:new 0 0 53.25 53.25;" xml:space="preserve">
<path d="M43.375,0h-33.5C9.774,0,9.676,0.011,9.58,0.03c-0.001,0-0.003,0-0.004,0c-0.108,0.022-0.21,0.057-0.307,0.1
	C9.244,0.141,9.222,0.156,9.198,0.169c-0.071,0.036-0.14,0.076-0.204,0.123C8.982,0.3,8.969,0.304,8.959,0.313
	C8.939,0.327,8.925,0.347,8.906,0.363c-0.053,0.045-0.103,0.093-0.15,0.146C8.73,0.539,8.706,0.568,8.682,0.6
	C8.64,0.655,8.603,0.714,8.569,0.776C8.551,0.808,8.532,0.839,8.517,0.872C8.485,0.942,8.46,1.015,8.439,1.09
	c-0.008,0.028-0.02,0.055-0.026,0.084C8.389,1.28,8.375,1.388,8.375,1.5v43.378c0,0.156,0.031,0.303,0.075,0.444
	c0.008,0.025,0.014,0.05,0.023,0.074c0.05,0.134,0.117,0.258,0.201,0.371c0.015,0.02,0.031,0.038,0.047,0.057
	c0.093,0.113,0.198,0.217,0.32,0.299c0.001,0.001,0.002,0.001,0.004,0.002c0.125,0.083,0.265,0.142,0.412,0.185
	c0.014,0.004,0.024,0.014,0.038,0.017l26.199,6.872c0.126,0.033,0.253,0.049,0.38,0.049c0.328,0,0.651-0.108,0.917-0.313
	c0.368-0.284,0.583-0.723,0.583-1.188V8.372c0-0.682-0.46-1.278-1.12-1.451L21.505,3h20.37v41.878c0,0.829,0.671,1.5,1.5,1.5
	c0.829,0,1.5-0.671,1.5-1.5V1.5C44.875,0.671,44.204,0,43.375,0z M23.933,28.838c0.228-0.797,1.06-1.256,1.855-1.03l7,2
	c0.796,0.228,1.258,1.058,1.03,1.854c-0.188,0.659-0.789,1.088-1.441,1.088c-0.137,0-0.275-0.019-0.413-0.058l-7-2
	C24.167,30.465,23.705,29.634,23.933,28.838z"/>
<g>
</g>
<g>
</g>
<g>
</g>
<g>
</g>
<g>
</g>
<g>
</g>
<g>
</g>
<g>
</g>
<g>
</g>
<g>
</g>
<g>
</g>
<g>
</g>
<g>
</g>
<g>
</g>
<g>
</g>
</svg>
